<svg xmlns:xlink="http://www.w3.org/1999/xlink" xmlns="http://www.w3.org/2000/svg" id="3XOz8oIfN" viewBox="0 0 350 73.26906135142777" height="73.26906135142777" width="350" style="width: 350px; height: 73.2691px; position: absolute; top: 50%; left: 50%; transform: translate(-50%, -50%) scale(0.648143); z-index: 0; cursor: pointer; overflow: visible;"><defs id="SvgjsDefs1057"></defs><g id="SvgjsG1058" featurekey="NcgQJ4-0" transform="matrix(3.402683238607495,0,0,3.402683238607495,-2.041609618659336,-23.378025157642753)" fill="#283C63"><path d="M12.62 19.08 l0 0.92 l-1.32 0 c-1.8 0 -2.62 -1.02 -3.34 -3.22 c-0.54 -1.64 -1.18 -2.2 -2.5 -2.2 l-1.34 0 l0 3.66 c0 0.56 0.46 0.76 1.2 0.92 l0 0.84 l-4.72 0 l0 -0.84 c0.76 -0.16 1.2 -0.36 1.2 -0.92 l0 -8.8 c0 -0.56 -0.44 -0.86 -1.2 -1.02 l0 -0.84 l6.02 0 c2.86 0 4.66 1.42 4.66 3.4 c0 1.56 -1.08 2.9 -3.54 3.18 c1.74 0.24 2.56 1.24 2.98 2.48 c0.42 1.38 0.74 2.4 1.72 2.44 l0.18 0 z M6.6 13.46 c1.72 0 2.22 -1.22 2.22 -2.48 c0 -1.32 -0.58 -2.46 -2.06 -2.46 l-2.64 0 l0 4.94 l2.48 0 z M17.54 10.8 c2.3 0 4.54 1.7 4.54 4.58 c0 2.94 -2.24 4.74 -4.5 4.74 c-2.3 0 -4.56 -1.8 -4.56 -4.58 c0 -3.04 2.26 -4.74 4.52 -4.74 z M19.84 16.02 c0 -2.6 -1.08 -4.08 -2.5 -4.08 c-1.32 0 -2.08 0.84 -2.08 2.96 c0 2.46 1.08 3.98 2.48 3.98 c1.32 0 2.1 -0.78 2.1 -2.86 z M27.8 10.8 c2.3 0 4.54 1.7 4.54 4.58 c0 2.94 -2.24 4.74 -4.5 4.74 c-2.3 0 -4.56 -1.8 -4.56 -4.58 c0 -3.04 2.26 -4.74 4.52 -4.74 z M30.1 16.02 c0 -2.6 -1.08 -4.08 -2.5 -4.08 c-1.32 0 -2.08 0.84 -2.08 2.96 c0 2.46 1.08 3.98 2.48 3.98 c1.32 0 2.1 -0.78 2.1 -2.86 z M48.17999999999999 18 c0 0.66 0.18 1.1 1.2 0.86 l-0.26 0.94 c-0.44 0.16 -1 0.2 -1.38 0.2 c-1.08 0 -1.64 -0.66 -1.64 -1.44 l0 -4.1 c0 -1.32 -0.32 -2.24 -1.38 -2.24 c-1.32 0 -2.04 1.08 -2.38 1.88 l0 4.52 c0 0.46 0.32 0.56 0.98 0.56 l0 0.82 l-4 0 l0 -0.82 c0.64 0 0.94 -0.1 0.94 -0.56 l0 -4.16 c0 -1.42 -0.28 -2.24 -1.36 -2.24 c-1.42 0 -2.02 1.08 -2.4 1.88 l0 4.52 c0 0.46 0.32 0.56 1 0.56 l0 0.82 l-4.02 0 l0 -0.82 c0.64 0 0.94 -0.1 0.94 -0.56 l0 -5.76 c0 -0.66 -0.42 -0.88 -1.18 -0.78 l0 -0.92 l2.7 -0.34 c0.72 -0.08 0.6 0.6 0.46 1.5 l-0.08 0.78 c0.42 -0.8 1.18 -2.3 3.06 -2.3 c1.46 0 2.56 0.64 2.84 2.08 c0.3 -0.66 1.16 -2.08 2.9 -2.08 c1.86 0 3.06 1.04 3.06 3.48 l0 3.72 z M62.39999999999999 19.08 l0 0.92 l-1.32 0 c-1.8 0 -2.62 -1.02 -3.34 -3.22 c-0.54 -1.64 -1.18 -2.2 -2.5 -2.2 l-1.34 0 l0 3.66 c0 0.56 0.46 0.76 1.2 0.92 l0 0.84 l-4.72 0 l0 -0.84 c0.76 -0.16 1.2 -0.36 1.2 -0.92 l0 -8.8 c0 -0.56 -0.44 -0.86 -1.2 -1.02 l0 -0.84 l6.02 0 c2.86 0 4.66 1.42 4.66 3.4 c0 1.56 -1.08 2.9 -3.54 3.18 c1.74 0.24 2.56 1.24 2.98 2.48 c0.42 1.38 0.74 2.4 1.72 2.44 l0.18 0 z M56.379999999999995 13.46 c1.72 0 2.22 -1.22 2.22 -2.48 c0 -1.32 -0.58 -2.46 -2.06 -2.46 l-2.64 0 l0 4.94 l2.48 0 z M71.32 14.54 c0 0.76 -0.38 1.26 -1.12 1.26 l-5.12 0 c0 1.76 1.02 3.16 2.66 3.16 c1.24 0 1.94 -0.72 2.42 -1.3 l0.76 0.78 c-0.5 0.66 -1.48 1.68 -3.48 1.68 c-2.56 0 -4.64 -1.94 -4.64 -4.7 c0 -2.92 2.14 -4.62 4.38 -4.62 c2.16 0 4.14 1.62 4.14 3.74 z M69.19999999999999 14.76 c0 -1.8 -0.64 -2.96 -2.02 -2.96 c-1.36 0 -2.1 1.16 -2.1 2.96 l4.12 0 z M80.36 18.12 c0 0.66 0.34 0.84 1.1 0.72 l-0.06 0.8 c-0.76 0.32 -1.28 0.48 -1.76 0.48 c-0.66 0 -1.18 -0.6 -1.32 -1.96 c-0.4 0.96 -1.2 1.96 -2.74 1.96 c-1.68 0 -3.16 -0.8 -3.16 -2.52 c0 -1.66 1.08 -2.68 5.82 -3.32 l0 -0.4 c0 -1.44 -0.42 -2.14 -1.52 -2.14 c-1.04 0 -1.54 0.26 -1.54 1.52 c0 0.42 -0.6 0.64 -1.2 0.64 s-1 -0.42 -1 -0.96 c0 -1.4 1.84 -2.14 3.82 -2.14 c2.14 0 3.56 0.96 3.56 3.5 l0 3.82 z M76.06 18.82 c1.3 0 1.88 -1.2 2.18 -1.96 l0 -1.7 c-3.3 0.52 -3.62 1.56 -3.62 2.34 c0 0.74 0.6 1.32 1.44 1.32 z M91.04 18.12 c0 0.66 0.34 0.84 1.1 0.72 l-0.06 0.82 l-1.62 0.38 c-0.58 0.14 -1.34 -0.44 -1.52 -1.88 c-0.26 0.72 -1.02 1.96 -2.74 1.96 c-1.88 0 -3.84 -1.64 -3.84 -4.64 c0 -2.62 1.8 -4.66 4.04 -4.66 c1.28 0 2.16 0.74 2.54 1.36 l0 -3.24 c0 -0.66 -0.34 -0.88 -1.1 -0.86 l0 -0.82 l2.62 -0.38 c0.74 -0.1 0.58 0.6 0.58 1.48 l0 9.76 z M88.94 17.12 l0 -3.92 c-0.68 -0.82 -1.32 -1.2 -2.16 -1.2 c-1.4 0 -2.2 1.5 -2.2 3.22 c0 2 0.8 3.48 2.2 3.48 c1.18 0 1.8 -0.8 2.16 -1.58 z M103.46000000000001 10.98 l0 0.68 l-0.28 0.12 c-0.36 0.16 -0.7 0.22 -0.84 0.54 l-4.12 9.38 c-0.7 1.64 -1.2 2.6 -2.7 2.6 c-1.3 0 -2.26 -0.58 -2.26 -1.6 c0 -0.62 0.38 -1.08 1.12 -1.08 c1.44 0 0.62 1.54 1.4 1.54 c0.6 0 0.92 -0.54 1.32 -1.48 l0.58 -1.44 l-3.82 -7.92 c-0.18 -0.36 -0.36 -0.44 -0.66 -0.54 l-0.36 -0.12 l0 -0.68 l4.24 0 l0 0.68 l-0.5 0.1 c-0.32 0.06 -0.6 0.22 -0.44 0.56 l2.6 5.42 l2.22 -5.42 c0.12 -0.3 -0.18 -0.5 -0.48 -0.56 l-0.56 -0.1 l0 -0.68 l3.54 0 z" fill="#283C63"></path></g><g id="SvgjsG1059" featurekey="sWXNXQ-0" transform="matrix(0.24704928847422486,0,0,0.24704928847422486,-0.47927560432569977,67.64621925360476)" fill="#283C63"><path d="M3.26 5.84 l0 14.16 l-1.32 0 l0 -14.16 l1.32 0 z M30.620500000000003 5.84 l8.62 12.4 l0.04 0 l0 -12.4 l1.32 0 l0 14.16 l-1.7 0 l-8.62 -12.4 l-0.04 0 l0 12.4 l-1.32 0 l0 -14.16 l1.7 0 z M70.30100000000002 5.48 q2.46 0 3.86 1.78 l-1.14 0.82 q-1.04 -1.4 -2.76 -1.4 q-1.4 0 -2.27 0.72 t-0.91 1.96 q0 1.08 0.66 1.75 t2.3 1.13 q2.16 0.64 2.88 1.13 t1.09 1.21 t0.37 1.8 q0 1.72 -1.23 2.83 t-3.17 1.15 q-3.06 0 -4.6 -2.14 l1.26 -0.84 q1.06 1.76 3.24 1.78 q1.42 0 2.3 -0.79 t0.88 -1.99 q0 -0.7 -0.25 -1.15 t-0.76 -0.78 t-1.3 -0.6 t-1.85 -0.63 q-1.6 -0.52 -2.37 -1.46 t-0.77 -2.4 q0 -1.72 1.29 -2.8 t3.25 -1.08 z M108.46150000000002 5.84 l0 1.2 l-4.84 0 l0 12.96 l-1.32 0 l0 -12.96 l-4.84 0 l0 -1.2 l11 0 z M134.08200000000002 15.04 l6.5 0 l-3.2 -7.76 z M138.122 5.84 l5.96 14.16 l-1.48 0 l-1.54 -3.76 l-7.5 0 l-1.6 3.76 l-1.38 0 l6.18 -14.16 l1.36 0 z M169.60250000000002 5.84 l8.62 12.4 l0.04 0 l0 -12.4 l1.32 0 l0 14.16 l-1.7 0 l-8.62 -12.4 l-0.04 0 l0 12.4 l-1.32 0 l0 -14.16 l1.7 0 z M214.54300000000006 5.84 l0 1.2 l-4.84 0 l0 12.96 l-1.32 0 l0 -12.96 l-4.84 0 l0 -1.2 l11 0 z M269.92400000000004 18.8 q1.7 0 2.6 -0.73 t0.9 -1.99 q0 -1.36 -0.93 -2.14 t-2.43 -0.78 l-3.26 0 l0 5.64 l3.12 0 z M269.624 11.96 q1.44 0 2.31 -0.62 t0.87 -1.76 q0 -2.48 -3 -2.54 l-3 0 l0 4.92 l2.82 0 z M269.66400000000004 5.84 q2.22 0 3.33 0.9 t1.13 2.84 q0 1.12 -0.66 1.91 t-1.88 1.03 l0 0.04 q1.38 0.08 2.26 1.04 t0.9 2.44 q0 1.88 -1.25 2.91 t-3.45 1.05 l-4.56 0 l0 -14.16 l4.18 0 z M300.2645 12.92 q0 2.7 1.66 4.45 t4.34 1.79 q2.7 0 4.34 -1.77 t1.66 -4.47 q0 -2.74 -1.64 -4.47 t-4.38 -1.77 q-2.68 0 -4.32 1.76 t-1.66 4.48 z M306.2645 5.48 q2.16 0 3.82 0.95 t2.57 2.66 t0.93 3.83 q0 3.26 -2.06 5.33 t-5.26 2.11 q-3.22 0 -5.24 -2.09 t-2.08 -5.35 q0.02 -3.26 2.04 -5.32 t5.28 -2.12 z M338.725 12.92 q0 2.7 1.66 4.45 t4.34 1.79 q2.7 0 4.34 -1.77 t1.66 -4.47 q0 -2.74 -1.64 -4.47 t-4.38 -1.77 q-2.68 0 -4.32 1.76 t-1.66 4.48 z M344.725 5.48 q2.16 0 3.82 0.95 t2.57 2.66 t0.93 3.83 q0 3.26 -2.06 5.33 t-5.26 2.11 q-3.22 0 -5.24 -2.09 t-2.08 -5.35 q0.02 -3.26 2.04 -5.32 t5.28 -2.12 z M378.10550000000006 5.84 l0 6.24 l0.12 0 l6.86 -6.24 l1.82 0 l-7.16 6.48 l7.56 7.68 l-1.9 0 l-7.18 -7.32 l-0.12 0 l0 7.32 l-1.32 0 l0 -14.16 l1.32 0 z M412.10600000000005 5.84 l0 14.16 l-1.32 0 l0 -14.16 l1.32 0 z M439.46650000000005 5.84 l8.62 12.4 l0.04 0 l0 -12.4 l1.32 0 l0 14.16 l-1.7 0 l-8.62 -12.4 l-0.04 0 l0 12.4 l-1.32 0 l0 -14.16 l1.7 0 z M481.50700000000006 5.48 q3.2 -0.02 5.1 1.96 l-0.96 1 q-0.6 -0.74 -1.77 -1.25 t-2.37 -0.51 q-2.66 0 -4.32 1.76 t-1.68 4.48 q0 2.7 1.64 4.44 t4.38 1.8 q2.6 0 3.94 -0.84 l0 -4.76 l-3.4 0 l0 -1.2 l4.72 0 l0 6.72 q-2.3 1.28 -5.28 1.28 q-3.2 0 -5.23 -2.09 t-2.09 -5.35 q0.02 -3.28 2.06 -5.34 t5.26 -2.1 z M516.4875000000001 5.48 q2.46 0 3.86 1.78 l-1.14 0.82 q-1.04 -1.4 -2.76 -1.4 q-1.4 0 -2.27 0.72 t-0.91 1.96 q0 1.08 0.66 1.75 t2.3 1.13 q2.16 0.64 2.88 1.13 t1.09 1.21 t0.37 1.8 q0 1.72 -1.23 2.83 t-3.17 1.15 q-3.06 0 -4.6 -2.14 l1.26 -0.84 q1.06 1.76 3.24 1.78 q1.42 0 2.3 -0.79 t0.88 -1.99 q0 -0.7 -0.25 -1.15 t-0.76 -0.78 t-1.3 -0.6 t-1.85 -0.63 q-1.6 -0.52 -2.37 -1.46 t-0.77 -2.4 q0 -1.72 1.29 -2.8 t3.25 -1.08 z M547.1280000000002 18.2 l-1.54 4.56 l-1.18 0 l1.32 -4.56 l1.4 0 z M600.6290000000001 5.84 l0 14.16 l-1.32 0 l0 -14.16 l1.32 0 z M627.9895000000001 5.84 l8.62 12.4 l0.04 0 l0 -12.4 l1.32 0 l0 14.16 l-1.7 0 l-8.62 -12.4 l-0.04 0 l0 12.4 l-1.32 0 l0 -14.16 l1.7 0 z M672.1100000000001 5.84 l0 1.2 l-7.16 0 l0 5.04 l6.66 0 l0 1.2 l-6.66 0 l0 6.72 l-1.32 0 l0 -14.16 l8.48 0 z M697.8505000000001 5.84 l0 14.16 l-1.32 0 l0 -14.16 l1.32 0 z M725.2110000000001 5.84 l8.62 12.4 l0.04 0 l0 -12.4 l1.32 0 l0 14.16 l-1.7 0 l-8.62 -12.4 l-0.04 0 l0 12.4 l-1.32 0 l0 -14.16 l1.7 0 z M762.1715000000002 5.84 l0 14.16 l-1.32 0 l0 -14.16 l1.32 0 z M797.1320000000002 5.84 l0 1.2 l-4.84 0 l0 12.96 l-1.32 0 l0 -12.96 l-4.84 0 l0 -1.2 l11 0 z M829.7525000000002 5.84 l0 1.2 l-7.34 0 l0 5.04 l6.88 0 l0 1.2 l-6.88 0 l0 5.52 l7.66 0 l0 1.2 l-8.98 0 l0 -14.16 l8.66 0 z M883.5535000000001 5.84 l5.16 11.88 l5.16 -11.88 l1.88 0 l0 14.16 l-1.32 0 l0 -12.48 l-0.04 0 l-5.4 12.48 l-0.58 0 l-5.48 -12.48 l-0.04 0 l0 12.48 l-1.32 0 l0 -14.16 l1.98 0 z M929.9340000000002 5.84 l0 1.2 l-7.34 0 l0 5.04 l6.88 0 l0 1.2 l-6.88 0 l0 5.52 l7.66 0 l0 1.2 l-8.98 0 l0 -14.16 l8.66 0 z M956.7545000000001 5.84 l5.16 11.88 l5.16 -11.88 l1.88 0 l0 14.16 l-1.32 0 l0 -12.48 l-0.04 0 l-5.4 12.48 l-0.58 0 l-5.48 -12.48 l-0.04 0 l0 12.48 l-1.32 0 l0 -14.16 l1.98 0 z M994.8750000000002 12.92 q0 2.7 1.66 4.45 t4.34 1.79 q2.7 0 4.34 -1.77 t1.66 -4.47 q0 -2.74 -1.64 -4.47 t-4.38 -1.77 q-2.68 0 -4.32 1.76 t-1.66 4.48 z M1000.8750000000002 5.48 q2.16 0 3.82 0.95 t2.57 2.66 t0.93 3.83 q0 3.26 -2.06 5.33 t-5.26 2.11 q-3.22 0 -5.24 -2.09 t-2.08 -5.35 q0.02 -3.26 2.04 -5.32 t5.28 -2.12 z M1037.1555000000003 12.08 q1.54 0 2.38 -0.69 t0.84 -1.83 t-0.82 -1.82 t-2.44 -0.7 l-2.86 0 l0 5.04 l2.9 0 z M1036.7555000000002 5.84 q4.9 0 4.94 3.72 q0 3.14 -3.62 3.64 l4.12 6.8 l-1.5 0 l-3.98 -6.72 l-2.46 0 l0 6.72 l-1.32 0 l0 -14.16 l3.82 0 z M1067.8960000000002 5.84 l0 14.16 l-1.32 0 l0 -14.16 l1.32 0 z M1102.2165 5.84 l0 1.2 l-7.34 0 l0 5.04 l6.88 0 l0 1.2 l-6.88 0 l0 5.52 l7.66 0 l0 1.2 l-8.98 0 l0 -14.16 l8.66 0 z M1131.237 5.48 q2.46 0 3.86 1.78 l-1.14 0.82 q-1.04 -1.4 -2.76 -1.4 q-1.4 0 -2.27 0.72 t-0.91 1.96 q0 1.08 0.66 1.75 t2.3 1.13 q2.16 0.64 2.88 1.13 t1.09 1.21 t0.37 1.8 q0 1.72 -1.23 2.83 t-3.17 1.15 q-3.06 0 -4.6 -2.14 l1.26 -0.84 q1.06 1.76 3.24 1.78 q1.42 0 2.3 -0.79 t0.88 -1.99 q0 -0.7 -0.25 -1.15 t-0.76 -0.78 t-1.3 -0.6 t-1.85 -0.63 q-1.6 -0.52 -2.37 -1.46 t-0.77 -2.4 q0 -1.72 1.29 -2.8 t3.25 -1.08 z" fill="#283C63"></path></g></svg>