<svg xmlns:xlink="http://www.w3.org/1999/xlink" xmlns="http://www.w3.org/2000/svg" id="1X2fZ4gmh" viewBox="0 0 350 264.96650021717227" height="264.96650021717227" width="350" style="width: 350px; height: 264.967px; position: absolute; top: 50%; left: 50%; transform: translate(-50%, -50%) scale(0.543465); z-index: 0; cursor: pointer; overflow: visible;"><defs id="SvgjsDefs1013"></defs><g id="SvgjsG1014" featurekey="cWd8YO-0" transform="matrix(1.8688426486161358,0,0,1.8688426486161358,81.47627537515706,-9.344213243080679)" fill="#3A4750"><g xmlns="http://www.w3.org/2000/svg" fill="#3A4750"><path d="M87.5,57.8c0-19.1-14.5-34.9-33-37c-0.2-1.2-0.3-2.2-0.4-2.8h0.2c0.4,0,0.7-0.3,0.7-0.7V12c0-0.2-0.1-0.4-0.3-0.5l0,0   l-4.2-2.9V5h-1.4v3.5l-4,2.9l0,0c-0.2,0.1-0.3,0.3-0.3,0.5v5.4c0,0.4,0.3,0.7,0.7,0.7h0.4c-0.1,0.6-0.2,1.6-0.4,2.9   c-12,1.6-22.2,9-27.8,19.2c-1.5,0.4-2.2,1.7-2.4,2.6c-2,0.2-2.7,2-2.7,2.9c-0.1,0.9,0.4,1.8,1.2,2.4c0.2,0.2,0.4,0.3,0.7,0.4   c-0.8,3-1.2,6.1-1.2,9.3C13.1,78.3,29.8,95,50.3,95c7,0,13.6-2,19.2-5.4h0.1c0,0,0,0,0-0.1C80.4,83.1,87.5,71.2,87.5,57.8z    M85.7,57.8c0,9.8-4,18.7-10.5,25.1c-2.5-4.3-4.7-8.8-6.6-13.3v-5.4c0-0.4-0.3-0.7-0.7-0.7h-1.8c-1.9-4.9-3.6-9.8-5-14.4h0.6   c0.4,0,0.7-0.3,0.7-0.7v-4.2c0-0.4-0.3-0.7-0.7-0.7h-2.2c-0.6-2.4-1.2-4.6-1.8-6.8c0-0.1,0-0.2-0.1-0.2c-0.5-2-0.9-3.9-1.3-5.7   c-0.1-0.5-0.2-0.9-0.3-1.4c-0.4-1.8-0.7-3.5-1-5c-0.1-0.5-0.2-0.9-0.2-1.4c0-0.2-0.1-0.4-0.1-0.5C72.2,24.9,85.7,39.8,85.7,57.8z    M68.7,88c-0.9-1.7-1.8-3.3-2.7-5l4.4,2.8l0.8,0.5C70.5,86.9,69.6,87.5,68.7,88z M26.4,82.7l0.7,1.7c-0.4-0.3-0.8-0.7-1.1-1   C26.1,83.2,26.2,82.9,26.4,82.7z M38.9,47.8V45H40h1.4h5.7h1.4H51h1.4h6.1h1.4H61v2.8h-0.3h-1.4H53h-1.4h-3.8h-1.4h-5.8h-1.4H38.9z    M46.2,16.7v-4h7.4v4h-0.3h-0.4h-2.4h-0.7H49h-2h-0.4H46.2z M52.1,22l0.4,0.5l0,0l0.5,0.8h-2.5v-0.8v-1.8v-1L52.1,22z M47.2,22.5   L47.2,22.5l1.2-1.9l0,0l0.6-0.9v0.9l0,0v1.8l0,0v0.8h-2.3L47.2,22.5z M51.9,42.8c-0.3-1.4-0.6-2.7-0.8-3.8l2.3,1.8L51.9,42.8z    M47.6,42.7l-1.4-1.9l2.1-1.8C48.2,40.1,47.9,41.3,47.6,42.7z M50.5,35.6c-0.1-0.4-0.1-0.6-0.1-0.6v-3.1l1.7,1.6L50.5,35.6z    M49,31.9v3c0,0,0,0.3-0.1,0.6l-1.5-2.1L49,31.9z M52,38h3.7l-1.4,1.8L52,38z M51.5,36.6l1.7-2.2l2.3,2.2H51.5z M51.4,30.9h2.7   L53,32.4L51.4,30.9z M50.4,24.6h2.5l-2.5,3.5V24.6z M49,24.6V28l-2.3-3.4H49z M46.7,32.4l-1-1.4h2.4L46.7,32.4z M48,36.6h-3.6   l2.1-2.1L48,36.6z M47.5,38l-2.1,1.7L44.1,38H47.5z M46.6,43.6h-3.8l2.3-2L46.6,43.6z M49.7,39c0.2,1.3,0.5,2.8,0.9,4.6h-1.9   C49.2,41.8,49.5,40.3,49.7,39z M54.5,41.7l2.5,2h-4.1L54.5,41.7z M55.4,40.6l1.5-1.8c0.3,1.2,0.6,2.5,1,3.8L55.4,40.6z M54,33.4   l1.2-1.6c0.2,1.1,0.5,2.3,0.8,3.5L54,33.4z M51,29.6l2.9-4.1c0.2,1.2,0.5,2.6,0.8,4.1H51z M48.5,18.1l-1.6,2.5   c0.2-1.1,0.3-2,0.4-2.5H48.5z M45.9,25.8l2.5,3.8h-3.3C45.5,28.2,45.7,27,45.9,25.8z M44.7,31.9l1,1.5L44,35.1   C44.2,34,44.5,32.9,44.7,31.9z M43.1,38.8l1.3,1.7l-2.2,1.9C42.5,41.2,42.8,40,43.1,38.8z M69.6,75c0.7,1.5,1.4,3,2.2,4.4L68,77.2   L69.6,75z M66.9,76.5l-3.5-2.1h5L66.9,76.5z M61.4,73c-0.3-0.8-0.7-1.6-1-2.4h7.2c0.3,0.8,0.7,1.6,1.1,2.3L61.4,73L61.4,73z    M47.5,49.2H52c0.1,0.5,0.3,1.1,0.4,1.6H47C47.2,50.3,47.3,49.7,47.5,49.2z M62,69.3h-2.1h-1.5h-0.1v-4.4H62   C62,64.9,62,69.3,62,69.3z M57.5,62.9c-0.3-1-0.7-2-1-2.9l2.5,1.4L57.5,62.9z M55.6,57.1c-0.4-1.4-0.8-2.8-1.2-4.1l2.9,1.9   L55.6,57.1z M54.3,57.3c0.1,0.4,0.3,0.9,0.4,1.3l0,0l0,0c0,0.1,0,0.1,0.1,0.1c0.5,1.5,1,3.1,1.6,4.7H43.3c0.6-1.7,1.1-3.3,1.6-4.9   c0.1-0.5,0.3-0.9,0.4-1.4c0.5-1.8,1-3.5,1.5-5.1h6.1C53.2,53.8,53.7,55.5,54.3,57.3z M44,56.6l-1.4-1.7l2.4-1.7   C44.7,54.3,44.4,55.4,44,56.6z M42,62.9l-1.4-1.7l2.5-1.6C42.7,60.6,42.4,61.7,42,62.9z M43,64.9h3.7v4.4H43V64.9z M48.1,64.9h3.7   v4.4h-3.7V64.9z M53.2,64.9h3.6h0.1v4.4h-3.7C53.2,69.3,53.2,64.9,53.2,64.9z M58.8,63.6l1.4-1.5l2.8,1.5H58.8z M57,58.7h4.6   L60,60.3L57,58.7z M57.3,57.3l1.3-1.5l2.3,1.5H57.3z M55.6,52.2h4.1L58.3,54L55.6,52.2z M41.7,53.8l-1.4-1.7H44L41.7,53.8z    M42.8,57.3h-3.7l2.3-1.6L42.8,57.3z M41.9,58.7l-2.3,1.4l-1.2-1.4H41.9z M40.8,63.6h-4.1l2.7-1.7L40.8,63.6z M37.9,64.9h3.3h0.4   v4.4H41h-1.5h-1.7L37.9,64.9L37.9,64.9z M40.5,70.6h18.4c0.3,0.8,0.6,1.6,1,2.4H39.6C39.9,72.2,40.2,71.4,40.5,70.6z M67.2,66.4   v2.9h-0.3h-3.6v-4.4h1.8h1.5h0.6V66.4z M61.2,61l1.8-1.9c0.4,1.2,0.9,2.4,1.3,3.6L61.2,61z M59.4,54.7l1.5-1.8   c0.4,1.2,0.8,2.4,1.2,3.6L59.4,54.7z M60.2,50.8h-6.4c-0.1-0.6-0.3-1.1-0.4-1.6h6.3C59.9,49.7,60.1,50.3,60.2,50.8z M46.1,49.2   c-0.1,0.5-0.3,1.1-0.4,1.6h-6c0.2-0.6,0.3-1.1,0.5-1.6H46.1z M39.1,52.9l1.5,1.8l-2.7,1.9C38.3,55.3,38.7,54.1,39.1,52.9z M37,59   l1.5,1.8l-2.8,1.8C36.1,61.4,36.5,60.2,37,59z M34.8,64.9h1.8v4.4H33h-0.3v-2.9v-1.5h0.6H34.8z M32.4,70.6h6.7   c-0.3,0.8-0.6,1.6-1,2.4h-6.8C31.7,72.2,32,71.4,32.4,70.6z M36.2,74.4l-3.2,2l-1.3-2H36.2z M31.8,77.1l-3.5,2.2   c0.7-1.4,1.5-2.9,2.2-4.3L31.8,77.1z M27.5,81.8h5.3l-4.2,2.7L27.5,81.8z M29.2,85.8l4.3-2.7c-0.7,1.5-1.5,2.9-2.3,4.4   c-0.6-0.4-1.2-0.8-1.7-1.2L29.2,85.8z M28.9,80.5l3.6-2.2l1.4,2.2H28.9z M33.7,77.5l3.4-2.1c-0.6,1.4-1.3,2.9-2,4.3L33.7,77.5z    M35.6,81.8l0.7-1.4c1-2,1.9-4.1,2.8-6.1h21.5c0.9,2,1.8,4.1,2.8,6.1c0.2,0.5,0.4,0.9,0.7,1.4c0.2,0.4,0.4,0.7,0.5,1.1   c-0.4-0.4-0.8-0.7-1.2-1.1c-0.5-0.5-1.1-0.9-1.6-1.4c-3.1-2.4-7.1-4.3-11.9-4.3S41.2,78,38,80.4c-0.6,0.4-1.1,0.9-1.7,1.4   c-0.4,0.4-0.8,0.8-1.2,1.2C35.2,82.6,35.4,82.2,35.6,81.8z M64.5,79.8c-0.7-1.5-1.4-3-2-4.4l3.6,2.2L64.5,79.8z M67.2,78.3l3.6,2.2   h-5.2L67.2,78.3z M72.2,85.3L71,84.6l-4.3-2.7h5.6h0.8c0.1,0.2,0.3,0.5,0.4,0.7c0.3,0.5,0.5,0.9,0.8,1.3c-0.6,0.5-1.2,1-1.8,1.5   L72.2,85.3z M52.8,20.7L51,18.1h1.7c0.1,0.5,0.2,1.4,0.4,2.6C53,20.7,52.9,20.7,52.8,20.7z M49.8,9.7l2.3,1.6h-4.5L49.8,9.7z    M13.8,45.7c0-0.2,0.2-1.7,1.9-1.7l0,0c0.4,0,0.7-0.3,0.7-0.6c0-0.2,0.3-2.4,2.8-2.1c0.3,0,0.6-0.1,0.7-0.4c0,0,0.7-1.8,2.5-1.8   c0.5,0,1,0.1,1.5,0.3c0,0,1.5,0.7,1.9,2.6c0.1,0.3,0.3,0.5,0.6,0.6c0.2,0,2.1,0.3,2.2,2.2c0,0.8-0.2,1.5-0.7,2   c-0.6,0.6-1.4,0.8-1.6,0.8h-9.9c-0.7,0-1.3-0.2-1.8-0.6C14,46.6,13.8,46.2,13.8,45.7z M14.9,57.8c0-3.1,0.4-6,1.1-8.9   c0.1,0,0.1,0,0.2,0h9.9c0.7,0,1.8-0.4,2.6-1.3c0.8-0.8,1.2-1.8,1.1-3c-0.1-2.2-1.7-3.1-2.9-3.4c-0.6-2.2-2.5-3.1-2.6-3.1   c-0.7-0.3-1.4-0.4-2-0.4s-1,0.1-1.5,0.3c5.4-8.1,14.1-13.8,24.1-15.3c0,0.1,0,0.3-0.1,0.4c0,0.1,0,0.1,0,0.2c0,0.2-0.1,0.5-0.1,0.7   s-0.1,0.3-0.1,0.5c-0.3,1.5-0.6,3.2-1,5c-0.1,0.4-0.2,0.9-0.3,1.4c-0.8,3.7-1.8,8-3.1,12.7H38c-0.4,0-0.7,0.3-0.7,0.7v4.2   c0,0.4,0.3,0.7,0.7,0.7h0.6c-1.4,4.6-3,9.5-4.9,14.4h-1.8c-0.2,0-0.4,0.1-0.5,0.2c-0.1,0.1-0.2,0.3-0.2,0.5v5.4   c-1.9,4.3-4,8.6-6.4,12.8C18.8,76,14.9,67.4,14.9,57.8z M32.4,88.3c1.3-1.8,3.3-4.3,6-6.4c0.6-0.5,1.2-0.9,1.9-1.4   c2.7-1.7,5.8-2.9,9.4-2.9c3.6,0,6.8,1.2,9.4,2.9c0.7,0.4,1.3,0.9,1.9,1.4c3,2.4,5.1,5.1,6.4,6.9c-5.1,2.8-10.9,4.4-17.1,4.4   C43.8,93.2,37.6,91.4,32.4,88.3z" fill="#3A4750"></path><path d="M72.1,61.9h7.4l0,0c0.9,0,2.7-0.5,2.8-2.6c0.1-1.6-0.8-2.4-1.6-2.7c-0.2-1-0.9-1.6-0.9-1.6c-0.6-0.6-1.4-0.9-2.2-0.9   c-0.2,0-0.4,0-0.6,0.1c-0.5-0.7-1.3-1.1-2.2-1.2c-1-0.1-1.9,0.1-2.7,0.6c-1.1,0.8-1.3,2-1.3,2.8c-1.4,0.4-1.9,1.6-1.8,2.7   c0,0.2,0,0.3,0.1,0.5C69.6,61.4,71.3,61.9,72.1,61.9z M71.8,57.6c0.2,0,0.4-0.1,0.5-0.3s0.1-0.4,0.1-0.6c0,0-0.4-1.3,0.6-2   c0.5-0.3,1.1-0.5,1.7-0.4c0.7,0.1,1.2,0.4,1.5,1c0.2,0.3,0.5,0.5,0.9,0.3c0,0,0.3-0.1,0.7-0.1c0.5,0,0.9,0.2,1.3,0.5   c0,0,0.5,0.5,0.5,1.1c0,0.3,0.2,0.6,0.6,0.7c0.2,0,1,0.2,1,1.5c-0.1,1.2-1.2,1.3-1.5,1.3v0.7v-0.7h-7.4c0,0-1.4-0.1-1.7-1.3   c0,0,0-0.1,0-0.2C70.4,58.2,70.9,57.7,71.8,57.6z" fill="#3A4750"></path></g></g><g id="SvgjsG1015" featurekey="TZbA6h-0" transform="matrix(3.2139577143791525,0,0,3.2139577143791525,-2.5068861589964397,169.87328045254569)" fill="#3A4750"><path d="M0.78 20 l0 -2.32 l1.44 0 l0 -8.58 l-1.44 0 l0 -2.32 l6.62 0 c3.66 0 4.96 1.64 4.96 3.76 c0 1.98 -1.12 3.04 -2.34 3.62 c0.52 0.28 0.9 0.8 1.24 1.74 c0.28 0.78 0.4 1.5 1.7 1.5 l0.16 0 l-0.58 2.72 c-0.28 0.04 -0.54 0.06 -0.78 0.06 c-2.52 0 -3.16 -1.82 -3.66 -3.16 c-0.58 -1.82 -0.78 -1.98 -1.9 -1.98 l-0.62 0 l0 2.64 l1.44 0 l0 2.32 l-6.24 0 z M5.58 12.52 l1.74 0 c1.22 0 1.68 -0.76 1.68 -1.54 c0 -1.22 -0.56 -1.68 -1.68 -1.68 l-1.74 0 l0 3.22 z M18.94 20.28 c-3.78 0 -4.92 -2.34 -4.92 -5.02 c0 -2.62 1.08 -4.88 4.86 -4.88 c3.86 0 4.88 2.34 4.88 4.92 c0 2.74 -1.14 4.98 -4.82 4.98 z M18.9 17.96 c1.36 0 1.62 -1.26 1.62 -2.62 s-0.26 -2.64 -1.64 -2.64 c-1.36 0 -1.62 1.28 -1.62 2.6 c0 1.34 0.26 2.66 1.64 2.66 z M29.720000000000002 20.28 c-3.78 0 -4.92 -2.34 -4.92 -5.02 c0 -2.62 1.08 -4.88 4.86 -4.88 c3.86 0 4.88 2.34 4.88 4.92 c0 2.74 -1.14 4.98 -4.82 4.98 z M29.68 17.96 c1.36 0 1.62 -1.26 1.62 -2.62 s-0.26 -2.64 -1.64 -2.64 c-1.36 0 -1.62 1.28 -1.62 2.6 c0 1.34 0.26 2.66 1.64 2.66 z M35.800000000000004 20 l0 -2.26 l1.06 0 l0 -4.82 l-1.36 0 l0 -2.26 l4.26 0 l0 1.68 c0.26 -0.64 1.04 -1.96 3.06 -1.96 c1.2 0 2.34 0.5 2.74 2.02 c0.22 -0.54 0.98 -2.02 3.14 -2.02 c1.38 0 2.98 0.56 2.98 3.48 l0 3.88 l1.06 0 l0 2.26 l-5.04 0 l0 -2.26 l0.86 0 l0 -3.08 c0 -1.1 -0.26 -1.64 -0.9 -1.64 c-1.08 0 -1.64 1.3 -1.82 1.86 l0 2.86 l0.86 0 l0 2.26 l-4.84 0 l0 -2.26 l0.86 0 l0 -3.08 c0 -1.08 -0.26 -1.64 -0.9 -1.64 c-1.12 0 -1.68 1.38 -1.84 1.92 l0 2.8 l0.86 0 l0 2.26 l-5.04 0 z M53.86 20 l0 -2.32 l1.44 0 l0 -8.58 l-1.44 0 l0 -2.32 l6.62 0 c3.66 0 4.96 1.64 4.96 3.76 c0 1.98 -1.12 3.04 -2.34 3.62 c0.52 0.28 0.9 0.8 1.24 1.74 c0.28 0.78 0.4 1.5 1.7 1.5 l0.16 0 l-0.58 2.72 c-0.28 0.04 -0.54 0.06 -0.78 0.06 c-2.52 0 -3.16 -1.82 -3.66 -3.16 c-0.58 -1.82 -0.78 -1.98 -1.9 -1.98 l-0.62 0 l0 2.64 l1.44 0 l0 2.32 l-6.24 0 z M58.66 12.52 l1.74 0 c1.22 0 1.68 -0.76 1.68 -1.54 c0 -1.22 -0.56 -1.68 -1.68 -1.68 l-1.74 0 l0 3.22 z M73.53999999999999 17.02 l2.74 0.48 c-0.52 1.74 -1.76 2.78 -4.26 2.78 c-3.12 0 -4.92 -1.62 -4.92 -4.84 c0 -2.6 1.16 -5.06 4.78 -5.06 c2.94 0 4.4 1.62 4.4 4.64 l0 1.02 l-5.92 0 c0.08 1.34 0.46 1.92 1.76 1.92 c0.8 0 1.28 -0.22 1.42 -0.94 z M70.39999999999999 14.14 l2.6 0 l0 -0.02 c0 -1.1 -0.42 -1.52 -1.24 -1.52 c-0.76 0 -1.2 0.36 -1.36 1.54 z M80.66 13.9 l-3.1 -0.58 c-0.02 -0.1 -0.02 -0.2 -0.02 -0.3 c0 -1.48 1.44 -2.64 4.3 -2.64 s3.92 1.18 3.92 3.76 l0 2.2 c0 0.86 0.02 1.36 0.66 1.36 c0.12 0 0.26 -0.02 0.44 -0.06 l-0.56 2.46 c-0.34 0.06 -0.64 0.08 -0.9 0.08 c-1.48 0 -2.12 -0.7 -2.34 -1.3 c-0.48 0.68 -1.2 1.4 -2.66 1.4 c-1.7 0 -3.16 -0.96 -3.16 -2.74 c0 -2.16 2.14 -3.14 5.4 -3.16 l0 -0.28 c0 -1.06 -0.26 -1.44 -1.02 -1.44 c-0.64 0 -0.98 0.26 -0.98 0.96 c0 0.08 0 0.18 0.02 0.28 z M82.64 16.88 l0 -0.74 c-1.22 0.02 -2.26 0.24 -2.26 1.16 c0 0.52 0.34 0.76 0.86 0.76 c0.6 0 1.32 -0.32 1.4 -1.18 z M94.6 20 l-0.12 -1.26 c-0.46 0.74 -1.18 1.54 -2.74 1.54 c-3.14 0 -4.14 -2.7 -4.14 -5 c0 -2.92 1.68 -4.9 4.32 -4.9 c1.06 0 1.66 0.34 2.1 0.94 l0 -3.42 l-1.26 0 l0 -2.26 l4.38 0 l0 12.1 l1.06 0 l0 2.26 l-3.6 0 z M92.38 17.96 c1.12 0 1.64 -0.84 1.64 -2.76 c0 -1.36 -0.26 -2.5 -1.6 -2.5 c-1.1 0 -1.58 0.78 -1.58 2.68 c0 1.76 0.42 2.58 1.54 2.58 z M99.28 23.62 l1.48 -2 c0.02 0.04 0.44 0.72 1.02 0.72 s0.92 -0.32 1.1 -1.3 l0.2 -1.12 l-3.3 -7 l-0.92 0 l0 -2.26 l4.9 0 l0 2.26 l-0.78 0 l1.54 3.76 l1.3 -3.76 l-0.78 0 l0 -2.26 l4.64 0 l0 2.26 l-0.92 0 l-2.9 7.26 l-0.26 1.44 c-0.3 1.64 -1.24 3.22 -3.7 3.22 c-1.92 0 -2.62 -1.22 -2.62 -1.22 z" fill="#3A4750"></path></g><g id="SvgjsG1016" featurekey="hKLqjk-0" transform="matrix(0.2710971779423888,0,0,0.2710971779423888,34.54998415528851,258.81259432958774)" fill="#3A4750"><path d="M2.56 20.3 c-0.25334 0 -0.46668 -0.08666 -0.64002 -0.26 s-0.26 -0.38 -0.26 -0.62 l0 -14.02 c0 -0.24 0.08666 -0.44666 0.26 -0.62 s0.38668 -0.26 0.64002 -0.26 c0.24 0 0.44666 0.08666 0.62 0.26 s0.26 0.38 0.26 0.62 l0 14.02 c0 0.24 -0.08666 0.44666 -0.26 0.62 s-0.38 0.26 -0.62 0.26 z M35.42 20.3 c-0.33334 0 -0.58668 -0.14 -0.76002 -0.42 l-7.22 -11.44 l0 10.98 c0 0.24 -0.08334 0.44666 -0.25 0.62 s-0.37666 0.26 -0.63 0.26 c-0.24 0 -0.44666 -0.08666 -0.62 -0.26 s-0.26 -0.38 -0.26 -0.62 l0 -14.02 c0 -0.24 0.08666 -0.44666 0.26 -0.62 s0.38 -0.26 0.62 -0.26 c0.33334 0 0.58668 0.13334 0.76002 0.4 l7.22 11.44 l0 -10.96 c0 -0.24 0.08334 -0.44666 0.25 -0.62 s0.37666 -0.26 0.63 -0.26 c0.24 0 0.44666 0.08666 0.62 0.26 s0.26 0.38 0.26 0.62 l0 14.02 c0 0.24 -0.08666 0.44666 -0.26 0.62 s-0.38 0.26 -0.62 0.26 z M62.52 20.3 c-0.61334 0 -1.1867 -0.11668 -1.72 -0.35002 s-1 -0.55 -1.4 -0.95 s-0.71666 -0.86666 -0.95 -1.4 s-0.35 -1.1067 -0.35 -1.72 c0 -0.25334 0.08666 -0.46668 0.26 -0.64002 s0.38668 -0.26 0.64002 -0.26 c0.24 0 0.44666 0.08666 0.62 0.26 s0.26 0.38668 0.26 0.64002 c0 0.36 0.07 0.7 0.21 1.02 s0.33 0.6 0.57 0.84 s0.52 0.43 0.84 0.57 s0.66 0.21 1.02 0.21 s0.70334 -0.07 1.03 -0.21 s0.61 -0.33 0.85 -0.57 s0.43 -0.52 0.57 -0.84 s0.21 -0.66 0.21 -1.02 c0 -0.44 -0.08666 -0.80334 -0.26 -1.09 s-0.41334 -0.53666 -0.72 -0.75 c-0.14666 -0.10666 -0.31332 -0.20332 -0.49998 -0.28998 s-0.38 -0.17666 -0.58 -0.27 c-0.2 -0.08 -0.40666 -0.16 -0.62 -0.24 s-0.43334 -0.16 -0.66 -0.24 c-0.44 -0.16 -0.88334 -0.34 -1.33 -0.54 s-0.84666 -0.45 -1.2 -0.75 s-0.64334 -0.67334 -0.87 -1.12 s-0.34 -0.99666 -0.34 -1.65 c0 -0.61334 0.11666 -1.1867 0.35 -1.72 s0.55 -1 0.95 -1.4 s0.86666 -0.71666 1.4 -0.95 s1.1067 -0.35 1.72 -0.35 s1.19 0.11666 1.73 0.35 s1.01 0.55 1.41 0.95 s0.71666 0.86666 0.95 1.4 s0.35 1.1067 0.35 1.72 c0 0.24 -0.08666 0.44666 -0.26 0.62 s-0.38668 0.26 -0.64002 0.26 c-0.24 0 -0.44666 -0.08666 -0.62 -0.26 s-0.26 -0.38 -0.26 -0.62 c0 -0.36 -0.07 -0.70334 -0.21 -1.03 s-0.33 -0.61 -0.57 -0.85 s-0.52334 -0.43 -0.85 -0.57 s-0.67 -0.21 -1.03 -0.21 s-0.7 0.07 -1.02 0.21 s-0.6 0.33 -0.84 0.57 s-0.43 0.52334 -0.57 0.85 s-0.21 0.67 -0.21 1.03 c0 0.4 0.08334 0.73334 0.25 1 s0.40332 0.5 0.70998 0.7 c0.32 0.2 0.68 0.38 1.08 0.54 l0.64 0.24 l0.66 0.24 c0.44 0.16 0.88334 0.34334 1.33 0.55 s0.84666 0.46666 1.2 0.78 s0.64334 0.70334 0.87 1.17 s0.34 1.04 0.34 1.72 c0 0.61334 -0.11666 1.1867 -0.35 1.72 s-0.55 1 -0.95 1.4 s-0.87 0.71666 -1.41 0.95 s-1.1167 0.35 -1.73 0.35 z M96.36000000000001 6.279999999999999 l-3.24 0 l0 13.14 c0 0.24 -0.08666 0.44666 -0.26 0.62 s-0.38 0.26 -0.62 0.26 c-0.25334 0 -0.46668 -0.08666 -0.64002 -0.26 s-0.26 -0.38 -0.26 -0.62 l0 -13.14 l-3.24 0 c-0.24 0 -0.44666 -0.08334 -0.62 -0.25 s-0.26 -0.37666 -0.26 -0.63 c0 -0.24 0.08666 -0.44666 0.26 -0.62 s0.38 -0.26 0.62 -0.26 l8.26 0 c0.24 0 0.44666 0.08666 0.62 0.26 s0.26 0.38 0.26 0.62 c0 0.25334 -0.08666 0.46334 -0.26 0.63 s-0.38 0.25 -0.62 0.25 z M129.9 20.22 c-0.10666 0.05334 -0.21992 0.08 -0.33992 0.08 c-0.17334 0 -0.33668 -0.04666 -0.49002 -0.14 s-0.26334 -0.22668 -0.33 -0.40002 l-1.58 -3.72 l-7.26 0 l-1.58 3.72 c-0.09334 0.22666 -0.25334 0.38666 -0.48 0.48 s-0.45332 0.08668 -0.67998 -0.01998 c-0.22666 -0.09334 -0.38666 -0.25334 -0.48 -0.48 s-0.08668 -0.45332 0.01998 -0.67998 l1.8 -4.26 l4.22 -9.88 c0.06666 -0.17334 0.17332 -0.30668 0.31998 -0.40002 s0.31332 -0.14 0.49998 -0.14 c0.17334 0 0.33334 0.04666 0.48 0.14 s0.25332 0.22668 0.31998 0.40002 c1.0133 2.3734 2.02 4.73 3.02 7.07 s2.0066 4.6966 3.02 7.07 c0.09334 0.22666 0.09334 0.45332 0 0.67998 s-0.25334 0.38666 -0.48 0.48 z M123.54 7.539999999999999 l-2.88 6.72 l5.74 0 z M161.1 20.3 c-0.33334 0 -0.58668 -0.14 -0.76002 -0.42 l-7.22 -11.44 l0 10.98 c0 0.24 -0.08334 0.44666 -0.25 0.62 s-0.37666 0.26 -0.63 0.26 c-0.24 0 -0.44666 -0.08666 -0.62 -0.26 s-0.26 -0.38 -0.26 -0.62 l0 -14.02 c0 -0.24 0.08666 -0.44666 0.26 -0.62 s0.38 -0.26 0.62 -0.26 c0.33334 0 0.58668 0.13334 0.76002 0.4 l7.22 11.44 l0 -10.96 c0 -0.24 0.08334 -0.44666 0.25 -0.62 s0.37666 -0.26 0.63 -0.26 c0.24 0 0.44666 0.08666 0.62 0.26 s0.26 0.38 0.26 0.62 l0 14.02 c0 0.24 -0.08666 0.44666 -0.26 0.62 s-0.38 0.26 -0.62 0.26 z M191.82 6.279999999999999 l-3.24 0 l0 13.14 c0 0.24 -0.08666 0.44666 -0.26 0.62 s-0.38 0.26 -0.62 0.26 c-0.25334 0 -0.46668 -0.08666 -0.64002 -0.26 s-0.26 -0.38 -0.26 -0.62 l0 -13.14 l-3.24 0 c-0.24 0 -0.44666 -0.08334 -0.62 -0.25 s-0.26 -0.37666 -0.26 -0.63 c0 -0.24 0.08666 -0.44666 0.26 -0.62 s0.38 -0.26 0.62 -0.26 l8.26 0 c0.24 0 0.44666 0.08666 0.62 0.26 s0.26 0.38 0.26 0.62 c0 0.25334 -0.08666 0.46334 -0.26 0.63 s-0.38 0.25 -0.62 0.25 z M244.5 20.3 l-4.26 0.000019531 c-0.25334 0 -0.46668 -0.08666 -0.64002 -0.26 s-0.26 -0.38 -0.26 -0.62 l0 -14.02 c0 -0.24 0.08666 -0.44666 0.26 -0.62 s0.38668 -0.26 0.64002 -0.26 l2.92 0 c0.50666 0 0.98666 0.09666 1.44 0.29 s0.84668 0.45668 1.18 0.79002 s0.59668 0.72668 0.79002 1.18 s0.29 0.93334 0.29 1.44 c0 0.8 -0.24 1.5333 -0.72 2.2 c0.52 0.17334 0.99334 0.41 1.42 0.71 s0.79332 0.65666 1.1 1.07 s0.54666 0.87 0.72 1.37 s0.26 1.03 0.26 1.59 c0 0.70666 -0.13334 1.3733 -0.4 2 s-0.63332 1.1733 -1.1 1.64 s-1.0133 0.83332 -1.64 1.1 s-1.2933 0.4 -2 0.4 z M243.16 6.279999999999999 l-2.04 0 l0 3.86 l2.24 0 c0.21334 0 0.42334 -0.05666 0.63 -0.17 s0.39 -0.26 0.55 -0.44 s0.29 -0.38334 0.39 -0.61 s0.15 -0.46 0.15 -0.7 c0 -0.26666 -0.05 -0.51666 -0.15 -0.75 s-0.23666 -0.44 -0.41 -0.62 s-0.37668 -0.32 -0.61002 -0.42 s-0.48334 -0.15 -0.75 -0.15 z M244.5 11.92 l-3.38 -0.000039062 l0 6.6 l3.38 0 c0.46666 0 0.90332 -0.08666 1.31 -0.26 s0.76332 -0.41334 1.07 -0.72 s0.54666 -0.66332 0.72 -1.07 s0.26 -0.84332 0.26 -1.31 s-0.09 -0.9 -0.27 -1.3 s-0.42 -0.74334 -0.72 -1.03 s-0.65666 -0.51 -1.07 -0.67 s-0.84668 -0.24 -1.3 -0.24 z M278.46000000000004 20.3 c-1.0933 0 -2.12 -0.20666 -3.08 -0.62 s-1.7967 -0.97668 -2.51 -1.69 s-1.2767 -1.55 -1.69 -2.51 s-0.62 -1.9867 -0.62 -3.08 c0 -1.08 0.20666 -2.1 0.62 -3.06 s0.97668 -1.7967 1.69 -2.51 s1.55 -1.2767 2.51 -1.69 s1.9867 -0.62 3.08 -0.62 c1.08 0 2.1 0.20666 3.06 0.62 s1.7967 0.97668 2.51 1.69 s1.2767 1.55 1.69 2.51 s0.62 1.98 0.62 3.06 c0 1.0933 -0.20666 2.12 -0.62 3.08 s-0.97668 1.7967 -1.69 2.51 s-1.55 1.2767 -2.51 1.69 s-1.98 0.62 -3.06 0.62 z M278.46000000000004 6.279999999999999 c-0.84 0 -1.6333 0.16 -2.38 0.48 s-1.4 0.75666 -1.96 1.31 s-1 1.2033 -1.32 1.95 s-0.48 1.54 -0.48 2.38 s0.16 1.6333 0.48 2.38 s0.76 1.4 1.32 1.96 s1.2133 1 1.96 1.32 s1.54 0.48 2.38 0.48 s1.6333 -0.16 2.38 -0.48 s1.3967 -0.76 1.95 -1.32 s0.99 -1.2133 1.31 -1.96 s0.48 -1.54 0.48 -2.38 s-0.16 -1.6333 -0.48 -2.38 s-0.75666 -1.3967 -1.31 -1.95 s-1.2033 -0.99 -1.95 -1.31 s-1.54 -0.48 -2.38 -0.48 z M315.62000000000006 20.3 c-1.0933 0 -2.12 -0.20666 -3.08 -0.62 s-1.7967 -0.97668 -2.51 -1.69 s-1.2767 -1.55 -1.69 -2.51 s-0.62 -1.9867 -0.62 -3.08 c0 -1.08 0.20666 -2.1 0.62 -3.06 s0.97668 -1.7967 1.69 -2.51 s1.55 -1.2767 2.51 -1.69 s1.9867 -0.62 3.08 -0.62 c1.08 0 2.1 0.20666 3.06 0.62 s1.7967 0.97668 2.51 1.69 s1.2767 1.55 1.69 2.51 s0.62 1.98 0.62 3.06 c0 1.0933 -0.20666 2.12 -0.62 3.08 s-0.97668 1.7967 -1.69 2.51 s-1.55 1.2767 -2.51 1.69 s-1.98 0.62 -3.06 0.62 z M315.62000000000006 6.279999999999999 c-0.84 0 -1.6333 0.16 -2.38 0.48 s-1.4 0.75666 -1.96 1.31 s-1 1.2033 -1.32 1.95 s-0.48 1.54 -0.48 2.38 s0.16 1.6333 0.48 2.38 s0.76 1.4 1.32 1.96 s1.2133 1 1.96 1.32 s1.54 0.48 2.38 0.48 s1.6333 -0.16 2.38 -0.48 s1.3967 -0.76 1.95 -1.32 s0.99 -1.2133 1.31 -1.96 s0.48 -1.54 0.48 -2.38 s-0.16 -1.6333 -0.48 -2.38 s-0.75666 -1.3967 -1.31 -1.95 s-1.2033 -0.99 -1.95 -1.31 s-1.54 -0.48 -2.38 -0.48 z M354.4000000000001 20.3 c-0.24 0 -0.44 -0.07998 -0.6 -0.23998 l-6.72 -6.44 l0 5.8 c0 0.24 -0.08334 0.44666 -0.25 0.62 s-0.37666 0.26 -0.63 0.26 c-0.24 0 -0.44666 -0.08666 -0.62 -0.26 s-0.26 -0.38 -0.26 -0.62 l0 -14.02 c0 -0.25334 0.08666 -0.46334 0.26 -0.63 s0.38 -0.25 0.62 -0.25 c0.25334 0 0.46334 0.08334 0.63 0.25 s0.25 0.37666 0.25 0.63 l0 5.8 l6.72 -6.44 c0.17334 -0.17334 0.38 -0.25668 0.62 -0.25002 s0.44666 0.09666 0.62 0.27 c0.17334 0.18666 0.25668 0.4 0.25002 0.64 s-0.09666 0.44666 -0.27 0.62 l-6.64 6.36 l6.64 6.38 c0.17334 0.17334 0.26334 0.38 0.27 0.62 s-0.07668 0.44666 -0.25002 0.62 c-0.16 0.18666 -0.37334 0.28 -0.64 0.28 z M377.5600000000001 20.3 c-0.25334 0 -0.46668 -0.08666 -0.64002 -0.26 s-0.26 -0.38 -0.26 -0.62 l0 -14.02 c0 -0.24 0.08666 -0.44666 0.26 -0.62 s0.38668 -0.26 0.64002 -0.26 c0.24 0 0.44666 0.08666 0.62 0.26 s0.26 0.38 0.26 0.62 l0 14.02 c0 0.24 -0.08666 0.44666 -0.26 0.62 s-0.38 0.26 -0.62 0.26 z M410.4200000000001 20.3 c-0.33334 0 -0.58668 -0.14 -0.76002 -0.42 l-7.22 -11.44 l0 10.98 c0 0.24 -0.08334 0.44666 -0.25 0.62 s-0.37666 0.26 -0.63 0.26 c-0.24 0 -0.44666 -0.08666 -0.62 -0.26 s-0.26 -0.38 -0.26 -0.62 l0 -14.02 c0 -0.24 0.08666 -0.44666 0.26 -0.62 s0.38 -0.26 0.62 -0.26 c0.33334 0 0.58668 0.13334 0.76002 0.4 l7.22 11.44 l0 -10.96 c0 -0.24 0.08334 -0.44666 0.25 -0.62 s0.37666 -0.26 0.63 -0.26 c0.24 0 0.44666 0.08666 0.62 0.26 s0.26 0.38 0.26 0.62 l0 14.02 c0 0.24 -0.08666 0.44666 -0.26 0.62 s-0.38 0.26 -0.62 0.26 z M446.7400000000001 17.96 c-0.76 0.76 -1.6234 1.3399 -2.59 1.7399 s-1.99 0.6 -3.07 0.6 c-1.1067 0 -2.1434 -0.21 -3.11 -0.63 s-1.81 -0.99 -2.53 -1.71 s-1.29 -1.5633 -1.71 -2.53 s-0.63 -2.0034 -0.63 -3.11 s0.21 -2.1334 0.63 -3.08 s0.99334 -1.77 1.72 -2.47 s1.5733 -1.25 2.54 -1.65 s1.9967 -0.6 3.09 -0.6 c1.08 0 2.1034 0.2 3.07 0.6 s1.83 0.98 2.59 1.74 c0.17334 0.17334 0.26 0.38 0.26 0.62 s-0.08666 0.44666 -0.26 0.62 c-0.18666 0.18666 -0.4 0.28 -0.64 0.28 s-0.44666 -0.09334 -0.62 -0.28 c-0.6 -0.58666 -1.2733 -1.0367 -2.02 -1.35 s-1.54 -0.47 -2.38 -0.47 c-0.85334 0 -1.6567 0.15334 -2.41 0.46 s-1.41 0.73 -1.97 1.27 s-1.0033 1.18 -1.33 1.92 s-0.49 1.5367 -0.49 2.39 s0.16334 1.6567 0.49 2.41 s0.77 1.41 1.33 1.97 s1.2167 1.0033 1.97 1.33 s1.5567 0.49 2.41 0.49 c0.77334 0 1.5133 -0.13334 2.22 -0.4 s1.3467 -0.65332 1.92 -1.16 l0 -3.76 l-4.04 0 c-0.25334 0 -0.46668 -0.08666 -0.64002 -0.26 s-0.26 -0.38 -0.26 -0.62 c0 -0.25334 0.08666 -0.46668 0.26 -0.64002 s0.38668 -0.26 0.64002 -0.26 l4.92 0 c0.25334 0 0.46668 0.08666 0.64002 0.26 s0.26 0.38668 0.26 0.64002 l0 5.02 c0 0.24 -0.08666 0.44666 -0.26 0.62 z M473.2200000000001 20.3 c-0.61334 0 -1.1867 -0.11668 -1.72 -0.35002 s-1 -0.55 -1.4 -0.95 s-0.71666 -0.86666 -0.95 -1.4 s-0.35 -1.1067 -0.35 -1.72 c0 -0.25334 0.08666 -0.46668 0.26 -0.64002 s0.38668 -0.26 0.64002 -0.26 c0.24 0 0.44666 0.08666 0.62 0.26 s0.26 0.38668 0.26 0.64002 c0 0.36 0.07 0.7 0.21 1.02 s0.33 0.6 0.57 0.84 s0.52 0.43 0.84 0.57 s0.66 0.21 1.02 0.21 s0.70334 -0.07 1.03 -0.21 s0.61 -0.33 0.85 -0.57 s0.43 -0.52 0.57 -0.84 s0.21 -0.66 0.21 -1.02 c0 -0.44 -0.08666 -0.80334 -0.26 -1.09 s-0.41334 -0.53666 -0.72 -0.75 c-0.14666 -0.10666 -0.31332 -0.20332 -0.49998 -0.28998 s-0.38 -0.17666 -0.58 -0.27 c-0.2 -0.08 -0.40666 -0.16 -0.62 -0.24 s-0.43334 -0.16 -0.66 -0.24 c-0.44 -0.16 -0.88334 -0.34 -1.33 -0.54 s-0.84666 -0.45 -1.2 -0.75 s-0.64334 -0.67334 -0.87 -1.12 s-0.34 -0.99666 -0.34 -1.65 c0 -0.61334 0.11666 -1.1867 0.35 -1.72 s0.55 -1 0.95 -1.4 s0.86666 -0.71666 1.4 -0.95 s1.1067 -0.35 1.72 -0.35 s1.19 0.11666 1.73 0.35 s1.01 0.55 1.41 0.95 s0.71666 0.86666 0.95 1.4 s0.35 1.1067 0.35 1.72 c0 0.24 -0.08666 0.44666 -0.26 0.62 s-0.38668 0.26 -0.64002 0.26 c-0.24 0 -0.44666 -0.08666 -0.62 -0.26 s-0.26 -0.38 -0.26 -0.62 c0 -0.36 -0.07 -0.70334 -0.21 -1.03 s-0.33 -0.61 -0.57 -0.85 s-0.52334 -0.43 -0.85 -0.57 s-0.67 -0.21 -1.03 -0.21 s-0.7 0.07 -1.02 0.21 s-0.6 0.33 -0.84 0.57 s-0.43 0.52334 -0.57 0.85 s-0.21 0.67 -0.21 1.03 c0 0.4 0.08334 0.73334 0.25 1 s0.40332 0.5 0.70998 0.7 c0.32 0.2 0.68 0.38 1.08 0.54 l0.64 0.24 l0.66 0.24 c0.44 0.16 0.88334 0.34334 1.33 0.55 s0.84666 0.46666 1.2 0.78 s0.64334 0.70334 0.87 1.17 s0.34 1.04 0.34 1.72 c0 0.61334 -0.11666 1.1867 -0.35 1.72 s-0.55 1 -0.95 1.4 s-0.87 0.71666 -1.41 0.95 s-1.1167 0.35 -1.73 0.35 z M499.8200000000001 22.52 c-0.18666 0.12 -0.37336 0.18 -0.56002 0.18 c-0.24 0 -0.44334 -0.08334 -0.61 -0.25 s-0.25 -0.37 -0.25 -0.61 c0 -0.16 0.03 -0.29334 0.09 -0.4 s0.13666 -0.2 0.23 -0.28 c0.18666 -0.17334 0.31332 -0.32334 0.37998 -0.45 s0.1 -0.29 0.1 -0.49 l0 -0.08 c-0.18666 -0.10666 -0.33332 -0.24666 -0.43998 -0.42 s-0.16 -0.37334 -0.16 -0.6 c0 -0.33334 0.11666 -0.61 0.35 -0.83 s0.51 -0.33 0.83 -0.33 c0.41334 0 0.71668 0.13334 0.91002 0.4 s0.29 0.56666 0.29 0.9 l0 0.96 c0 0.45334 -0.10334 0.88 -0.31 1.28 s-0.49 0.74 -0.85 1.02 z M549.0000000000001 20.3 c-0.25334 0 -0.46668 -0.08666 -0.64002 -0.26 s-0.26 -0.38 -0.26 -0.62 l0 -14.02 c0 -0.24 0.08666 -0.44666 0.26 -0.62 s0.38668 -0.26 0.64002 -0.26 c0.24 0 0.44666 0.08666 0.62 0.26 s0.26 0.38 0.26 0.62 l0 14.02 c0 0.24 -0.08666 0.44666 -0.26 0.62 s-0.38 0.26 -0.62 0.26 z M581.8600000000001 20.3 c-0.33334 0 -0.58668 -0.14 -0.76002 -0.42 l-7.22 -11.44 l0 10.98 c0 0.24 -0.08334 0.44666 -0.25 0.62 s-0.37666 0.26 -0.63 0.26 c-0.24 0 -0.44666 -0.08666 -0.62 -0.26 s-0.26 -0.38 -0.26 -0.62 l0 -14.02 c0 -0.24 0.08666 -0.44666 0.26 -0.62 s0.38 -0.26 0.62 -0.26 c0.33334 0 0.58668 0.13334 0.76002 0.4 l7.22 11.44 l0 -10.96 c0 -0.24 0.08334 -0.44666 0.25 -0.62 s0.37666 -0.26 0.63 -0.26 c0.24 0 0.44666 0.08666 0.62 0.26 s0.26 0.38 0.26 0.62 l0 14.02 c0 0.24 -0.08666 0.44666 -0.26 0.62 s-0.38 0.26 -0.62 0.26 z M612.7600000000002 6.279999999999999 l-6 0 l0 5.18 l5.06 0 c0.24 0 0.44666 0.08666 0.62 0.26 s0.26 0.38 0.26 0.62 c0 0.25334 -0.08666 0.46334 -0.26 0.63 s-0.38 0.25 -0.62 0.25 l-5.06 0 l0 6.2 c0 0.24 -0.08666 0.44666 -0.26 0.62 s-0.38 0.26 -0.62 0.26 c-0.25334 0 -0.46668 -0.08666 -0.64002 -0.26 s-0.26 -0.38 -0.26 -0.62 l0 -14.02 c0 -0.24 0.08666 -0.44666 0.26 -0.62 s0.38668 -0.26 0.64002 -0.26 l6.88 0 c0.25334 0 0.46668 0.08666 0.64002 0.26 s0.26 0.38 0.26 0.62 c0 0.25334 -0.08666 0.46334 -0.26 0.63 s-0.38668 0.25 -0.64002 0.25 z M635.0400000000001 20.3 c-0.25334 0 -0.46668 -0.08666 -0.64002 -0.26 s-0.26 -0.38 -0.26 -0.62 l0 -14.02 c0 -0.24 0.08666 -0.44666 0.26 -0.62 s0.38668 -0.26 0.64002 -0.26 c0.24 0 0.44666 0.08666 0.62 0.26 s0.26 0.38 0.26 0.62 l0 14.02 c0 0.24 -0.08666 0.44666 -0.26 0.62 s-0.38 0.26 -0.62 0.26 z M667.9000000000001 20.3 c-0.33334 0 -0.58668 -0.14 -0.76002 -0.42 l-7.22 -11.44 l0 10.98 c0 0.24 -0.08334 0.44666 -0.25 0.62 s-0.37666 0.26 -0.63 0.26 c-0.24 0 -0.44666 -0.08666 -0.62 -0.26 s-0.26 -0.38 -0.26 -0.62 l0 -14.02 c0 -0.24 0.08666 -0.44666 0.26 -0.62 s0.38 -0.26 0.62 -0.26 c0.33334 0 0.58668 0.13334 0.76002 0.4 l7.22 11.44 l0 -10.96 c0 -0.24 0.08334 -0.44666 0.25 -0.62 s0.37666 -0.26 0.63 -0.26 c0.24 0 0.44666 0.08666 0.62 0.26 s0.26 0.38 0.26 0.62 l0 14.02 c0 0.24 -0.08666 0.44666 -0.26 0.62 s-0.38 0.26 -0.62 0.26 z M691.9200000000001 20.3 c-0.25334 0 -0.46668 -0.08666 -0.64002 -0.26 s-0.26 -0.38 -0.26 -0.62 l0 -14.02 c0 -0.24 0.08666 -0.44666 0.26 -0.62 s0.38668 -0.26 0.64002 -0.26 c0.24 0 0.44666 0.08666 0.62 0.26 s0.26 0.38 0.26 0.62 l0 14.02 c0 0.24 -0.08666 0.44666 -0.26 0.62 s-0.38 0.26 -0.62 0.26 z M722.6400000000001 6.279999999999999 l-3.24 0 l0 13.14 c0 0.24 -0.08666 0.44666 -0.26 0.62 s-0.38 0.26 -0.62 0.26 c-0.25334 0 -0.46668 -0.08666 -0.64002 -0.26 s-0.26 -0.38 -0.26 -0.62 l0 -13.14 l-3.24 0 c-0.24 0 -0.44666 -0.08334 -0.62 -0.25 s-0.26 -0.37666 -0.26 -0.63 c0 -0.24 0.08666 -0.44666 0.26 -0.62 s0.38 -0.26 0.62 -0.26 l8.26 0 c0.24 0 0.44666 0.08666 0.62 0.26 s0.26 0.38 0.26 0.62 c0 0.25334 -0.08666 0.46334 -0.26 0.63 s-0.38 0.25 -0.62 0.25 z M752.0000000000001 20.3 l-6.88 -0.000019531 c-0.25334 0 -0.46668 -0.08666 -0.64002 -0.26 s-0.26 -0.38 -0.26 -0.62 l0 -0.04 l0 -0.04 l0 -13.94 c0 -0.24 0.08666 -0.44666 0.26 -0.62 s0.38668 -0.26 0.64002 -0.26 l6.88 0 c0.25334 0 0.46668 0.08666 0.64002 0.26 s0.26 0.38 0.26 0.62 c0 0.25334 -0.08666 0.46334 -0.26 0.63 s-0.38668 0.25 -0.64002 0.25 l-6 0 l0 5.1 l5.06 0 c0.24 0 0.44666 0.08334 0.62 0.25 s0.26 0.37666 0.26 0.63 c0 0.24 -0.08666 0.44666 -0.26 0.62 s-0.38 0.26 -0.62 0.26 l-5.06 0 l0 5.38 l6 0 c0.25334 0 0.46668 0.08666 0.64002 0.26 s0.26 0.38668 0.26 0.64002 c0 0.24 -0.08666 0.44666 -0.26 0.62 s-0.38668 0.26 -0.64002 0.26 z M814.6400000000001 20.3 c-0.24 0 -0.44666 -0.08666 -0.62 -0.26 s-0.26 -0.38 -0.26 -0.62 l0 -10.42 l-5.24 10.8 c-0.08 0.14666 -0.19334 0.26666 -0.34 0.36 s-0.3 0.14 -0.46 0.14 s-0.31334 -0.04666 -0.46 -0.14 s-0.26 -0.21334 -0.34 -0.36 l-5.24 -10.8 l0 10.42 c0 0.24 -0.08334 0.44666 -0.25 0.62 s-0.37666 0.26 -0.63 0.26 c-0.24 0 -0.44666 -0.08666 -0.62 -0.26 s-0.26 -0.38 -0.26 -0.62 l0 -14.02 c0 -0.24 0.08666 -0.44666 0.26 -0.62 s0.38 -0.26 0.62 -0.26 c0.36 0 0.62666 0.16 0.8 0.48 l6.12 12.42 l6.12 -12.42 c0.17334 -0.32 0.44 -0.48 0.8 -0.48 c0.24 0 0.44666 0.08666 0.62 0.26 s0.26 0.38 0.26 0.62 l0 14.02 c0 0.24 -0.08666 0.44666 -0.26 0.62 s-0.38 0.26 -0.62 0.26 z M845.5400000000002 20.3 l-6.88 -0.000019531 c-0.25334 0 -0.46668 -0.08666 -0.64002 -0.26 s-0.26 -0.38 -0.26 -0.62 l0 -0.04 l0 -0.04 l0 -13.94 c0 -0.24 0.08666 -0.44666 0.26 -0.62 s0.38668 -0.26 0.64002 -0.26 l6.88 0 c0.25334 0 0.46668 0.08666 0.64002 0.26 s0.26 0.38 0.26 0.62 c0 0.25334 -0.08666 0.46334 -0.26 0.63 s-0.38668 0.25 -0.64002 0.25 l-6 0 l0 5.1 l5.06 0 c0.24 0 0.44666 0.08334 0.62 0.25 s0.26 0.37666 0.26 0.63 c0 0.24 -0.08666 0.44666 -0.26 0.62 s-0.38 0.26 -0.62 0.26 l-5.06 0 l0 5.38 l6 0 c0.25334 0 0.46668 0.08666 0.64002 0.26 s0.26 0.38668 0.26 0.64002 c0 0.24 -0.08666 0.44666 -0.26 0.62 s-0.38668 0.26 -0.64002 0.26 z M882.2400000000001 20.3 c-0.24 0 -0.44666 -0.08666 -0.62 -0.26 s-0.26 -0.38 -0.26 -0.62 l0 -10.42 l-5.24 10.8 c-0.08 0.14666 -0.19334 0.26666 -0.34 0.36 s-0.3 0.14 -0.46 0.14 s-0.31334 -0.04666 -0.46 -0.14 s-0.26 -0.21334 -0.34 -0.36 l-5.24 -10.8 l0 10.42 c0 0.24 -0.08334 0.44666 -0.25 0.62 s-0.37666 0.26 -0.63 0.26 c-0.24 0 -0.44666 -0.08666 -0.62 -0.26 s-0.26 -0.38 -0.26 -0.62 l0 -14.02 c0 -0.24 0.08666 -0.44666 0.26 -0.62 s0.38 -0.26 0.62 -0.26 c0.36 0 0.62666 0.16 0.8 0.48 l6.12 12.42 l6.12 -12.42 c0.17334 -0.32 0.44 -0.48 0.8 -0.48 c0.24 0 0.44666 0.08666 0.62 0.26 s0.26 0.38 0.26 0.62 l0 14.02 c0 0.24 -0.08666 0.44666 -0.26 0.62 s-0.38 0.26 -0.62 0.26 z M912.8200000000002 20.3 c-1.0933 0 -2.12 -0.20666 -3.08 -0.62 s-1.7967 -0.97668 -2.51 -1.69 s-1.2767 -1.55 -1.69 -2.51 s-0.62 -1.9867 -0.62 -3.08 c0 -1.08 0.20666 -2.1 0.62 -3.06 s0.97668 -1.7967 1.69 -2.51 s1.55 -1.2767 2.51 -1.69 s1.9867 -0.62 3.08 -0.62 c1.08 0 2.1 0.20666 3.06 0.62 s1.7967 0.97668 2.51 1.69 s1.2767 1.55 1.69 2.51 s0.62 1.98 0.62 3.06 c0 1.0933 -0.20666 2.12 -0.62 3.08 s-0.97668 1.7967 -1.69 2.51 s-1.55 1.2767 -2.51 1.69 s-1.98 0.62 -3.06 0.62 z M912.8200000000002 6.279999999999999 c-0.84 0 -1.6333 0.16 -2.38 0.48 s-1.4 0.75666 -1.96 1.31 s-1 1.2033 -1.32 1.95 s-0.48 1.54 -0.48 2.38 s0.16 1.6333 0.48 2.38 s0.76 1.4 1.32 1.96 s1.2133 1 1.96 1.32 s1.54 0.48 2.38 0.48 s1.6333 -0.16 2.38 -0.48 s1.3967 -0.76 1.95 -1.32 s0.99 -1.2133 1.31 -1.96 s0.48 -1.54 0.48 -2.38 s-0.16 -1.6333 -0.48 -2.38 s-0.75666 -1.3967 -1.31 -1.95 s-1.2033 -0.99 -1.95 -1.31 s-1.54 -0.48 -2.38 -0.48 z M946.9400000000002 13.36 l-0.24 -0.000039062 l0.26 -0.46 l3.62 6.06 c0.08 0.14666 0.12 0.3 0.12 0.46 c0 0.24 -0.08666 0.44666 -0.26 0.62 s-0.38 0.26 -0.62 0.26 c-0.16 0 -0.31 -0.04 -0.45 -0.12 s-0.25 -0.18666 -0.33 -0.32 l-3.88 -6.5 l-0.86 0 l0 6.06 c0 0.24 -0.08666 0.44666 -0.26 0.62 s-0.38 0.26 -0.62 0.26 c-0.25334 0 -0.46668 -0.08666 -0.64002 -0.26 s-0.26 -0.38 -0.26 -0.62 l0 -14.02 c0 -0.24 0.08666 -0.44666 0.26 -0.62 s0.38668 -0.26 0.64002 -0.26 l3.52 0 c0.61334 0 1.19 0.11666 1.73 0.35 s1.01 0.55 1.41 0.95 s0.71666 0.86666 0.95 1.4 s0.35 1.1067 0.35 1.72 s-0.11666 1.1867 -0.35 1.72 s-0.55 1 -0.95 1.4 s-0.87 0.71666 -1.41 0.95 s-1.1167 0.35 -1.73 0.35 z M946.9400000000002 6.279999999999999 l-2.64 0 l0 5.3 l2.64 0 c0.36 0 0.70334 -0.07 1.03 -0.21 s0.61 -0.33 0.85 -0.57 s0.43 -0.52 0.57 -0.84 s0.21 -0.66 0.21 -1.02 s-0.07 -0.70334 -0.21 -1.03 s-0.33 -0.61 -0.57 -0.85 s-0.52334 -0.43 -0.85 -0.57 s-0.67 -0.21 -1.03 -0.21 z M973.2 20.3 c-0.25334 0 -0.46668 -0.08666 -0.64002 -0.26 s-0.26 -0.38 -0.26 -0.62 l0 -14.02 c0 -0.24 0.08666 -0.44666 0.26 -0.62 s0.38668 -0.26 0.64002 -0.26 c0.24 0 0.44666 0.08666 0.62 0.26 s0.26 0.38 0.26 0.62 l0 14.02 c0 0.24 -0.08666 0.44666 -0.26 0.62 s-0.38 0.26 -0.62 0.26 z M1004.1000000000001 20.3 l-6.88 -0.000019531 c-0.25334 0 -0.46668 -0.08666 -0.64002 -0.26 s-0.26 -0.38 -0.26 -0.62 l0 -0.04 l0 -0.04 l0 -13.94 c0 -0.24 0.08666 -0.44666 0.26 -0.62 s0.38668 -0.26 0.64002 -0.26 l6.88 0 c0.25334 0 0.46668 0.08666 0.64002 0.26 s0.26 0.38 0.26 0.62 c0 0.25334 -0.08666 0.46334 -0.26 0.63 s-0.38668 0.25 -0.64002 0.25 l-6 0 l0 5.1 l5.06 0 c0.24 0 0.44666 0.08334 0.62 0.25 s0.26 0.37666 0.26 0.63 c0 0.24 -0.08666 0.44666 -0.26 0.62 s-0.38 0.26 -0.62 0.26 l-5.06 0 l0 5.38 l6 0 c0.25334 0 0.46668 0.08666 0.64002 0.26 s0.26 0.38668 0.26 0.64002 c0 0.24 -0.08666 0.44666 -0.26 0.62 s-0.38668 0.26 -0.64002 0.26 z M1030.0600000000002 20.3 c-0.61334 0 -1.1867 -0.11668 -1.72 -0.35002 s-1 -0.55 -1.4 -0.95 s-0.71666 -0.86666 -0.95 -1.4 s-0.35 -1.1067 -0.35 -1.72 c0 -0.25334 0.08666 -0.46668 0.26 -0.64002 s0.38668 -0.26 0.64002 -0.26 c0.24 0 0.44666 0.08666 0.62 0.26 s0.26 0.38668 0.26 0.64002 c0 0.36 0.07 0.7 0.21 1.02 s0.33 0.6 0.57 0.84 s0.52 0.43 0.84 0.57 s0.66 0.21 1.02 0.21 s0.70334 -0.07 1.03 -0.21 s0.61 -0.33 0.85 -0.57 s0.43 -0.52 0.57 -0.84 s0.21 -0.66 0.21 -1.02 c0 -0.44 -0.08666 -0.80334 -0.26 -1.09 s-0.41334 -0.53666 -0.72 -0.75 c-0.14666 -0.10666 -0.31332 -0.20332 -0.49998 -0.28998 s-0.38 -0.17666 -0.58 -0.27 c-0.2 -0.08 -0.40666 -0.16 -0.62 -0.24 s-0.43334 -0.16 -0.66 -0.24 c-0.44 -0.16 -0.88334 -0.34 -1.33 -0.54 s-0.84666 -0.45 -1.2 -0.75 s-0.64334 -0.67334 -0.87 -1.12 s-0.34 -0.99666 -0.34 -1.65 c0 -0.61334 0.11666 -1.1867 0.35 -1.72 s0.55 -1 0.95 -1.4 s0.86666 -0.71666 1.4 -0.95 s1.1067 -0.35 1.72 -0.35 s1.19 0.11666 1.73 0.35 s1.01 0.55 1.41 0.95 s0.71666 0.86666 0.95 1.4 s0.35 1.1067 0.35 1.72 c0 0.24 -0.08666 0.44666 -0.26 0.62 s-0.38668 0.26 -0.64002 0.26 c-0.24 0 -0.44666 -0.08666 -0.62 -0.26 s-0.26 -0.38 -0.26 -0.62 c0 -0.36 -0.07 -0.70334 -0.21 -1.03 s-0.33 -0.61 -0.57 -0.85 s-0.52334 -0.43 -0.85 -0.57 s-0.67 -0.21 -1.03 -0.21 s-0.7 0.07 -1.02 0.21 s-0.6 0.33 -0.84 0.57 s-0.43 0.52334 -0.57 0.85 s-0.21 0.67 -0.21 1.03 c0 0.4 0.08334 0.73334 0.25 1 s0.40332 0.5 0.70998 0.7 c0.32 0.2 0.68 0.38 1.08 0.54 l0.64 0.24 l0.66 0.24 c0.44 0.16 0.88334 0.34334 1.33 0.55 s0.84666 0.46666 1.2 0.78 s0.64334 0.70334 0.87 1.17 s0.34 1.04 0.34 1.72 c0 0.61334 -0.11666 1.1867 -0.35 1.72 s-0.55 1 -0.95 1.4 s-0.87 0.71666 -1.41 0.95 s-1.1167 0.35 -1.73 0.35 z" fill="#3A4750"></path></g></svg>