<svg xmlns:xlink="http://www.w3.org/1999/xlink" xmlns="http://www.w3.org/2000/svg" id="T_IWTWb6f" viewBox="0 0 350 54.03837385669646" height="54.03837385669646" width="350" style="width: 350px; height: 54.0384px; position: absolute; top: 50%; left: 50%; transform: translate(-50%, -50%) scale(0.648143); z-index: 0; cursor: pointer; overflow: visible;"><defs id="SvgjsDefs1067"></defs><g id="SvgjsG1068" featurekey="hcEiZ9-0" transform="matrix(2.438956442740517,0,0,2.438956442740517,-0.8780234820373435,-16.194671617146273)" fill="#F4F7F7"><path d="M0.36 20 l0 -0.3 l1.6 0 l0 -12.62 l-1.6 0 l0 -0.3 l6.4 0 c4.52 0 5.78 1.38 5.78 3.36 c0 1.58 -1.1 3.02 -4.92 3.24 l0 0.04 c2.04 -0.06 3.76 0.7 4.34 2.44 c0.46 1.4 0.1 3.58 1.12 3.58 c0.52 0 0.86 -0.56 0.86 -1.44 l0.3 0 c0.02 1.46 -0.78 2.1 -2.54 2.1 c-2.08 0 -3.44 -1.14 -3.68 -4.02 c-0.08 -0.88 -0.04 -2.52 -1.08 -2.52 l-1.2 0 l0 6.14 l1.62 0 l0 0.3 l-7 0 z M5.74 13.26 l1.16 0 c1.34 0 1.74 -1.08 1.74 -3.2 c0 -1.94 -0.46 -2.98 -1.84 -2.98 l-1.06 0 l0 6.18 z M16.418 13.219999999999999 c0 -3.84 1.86 -6.58 6.92 -6.58 c4.82 0 6.92 2.32 6.92 6.58 c0 4.12 -1.78 6.92 -6.92 6.92 c-5.22 0 -6.92 -2.58 -6.92 -6.92 z M23.358 19.88 c2.52 0 2.94 -3.04 2.94 -6.44 c0 -3.72 -0.36 -6.54 -2.94 -6.54 c-2.62 0 -2.98 3 -2.98 6.54 c0 3.68 0.36 6.44 2.98 6.44 z M33.316 13.219999999999999 c0 -3.84 1.86 -6.58 6.92 -6.58 c4.82 0 6.92 2.32 6.92 6.58 c0 4.12 -1.78 6.92 -6.92 6.92 c-5.22 0 -6.92 -2.58 -6.92 -6.92 z M40.256 19.88 c2.52 0 2.94 -3.04 2.94 -6.44 c0 -3.72 -0.36 -6.54 -2.94 -6.54 c-2.62 0 -2.98 3 -2.98 6.54 c0 3.68 0.36 6.44 2.98 6.44 z M49.794 20 l0 -0.3 l0.6 0 c0.88 0 1.2 -0.44 1.2 -1.2 l0 -11.42 l-1.62 0 l0 -0.3 l5.26 0 l3.38 9.12 l3.3 -9.12 l5.08 0 l0 0.3 l-1.6 0 l0 12.62 l1.6 0 l0 0.3 l-7.16 0 l0 -0.3 l1.78 0 l0 -11.18 l-4.18 11.48 l-1.22 0 l-4.32 -11.42 l0 9.92 c0 0.76 0.3 1.2 1.18 1.2 l0.62 0 l0 0.3 l-3.9 0 z M69.492 20 l0 -0.3 l1.6 0 l0 -12.62 l-1.6 0 l0 -0.3 l6.4 0 c4.52 0 5.78 1.38 5.78 3.36 c0 1.58 -1.1 3.02 -4.92 3.24 l0 0.04 c2.04 -0.06 3.76 0.7 4.34 2.44 c0.46 1.4 0.1 3.58 1.12 3.58 c0.52 0 0.86 -0.56 0.86 -1.44 l0.3 0 c0.02 1.46 -0.78 2.1 -2.54 2.1 c-2.08 0 -3.44 -1.14 -3.68 -4.02 c-0.08 -0.88 -0.04 -2.52 -1.08 -2.52 l-1.2 0 l0 6.14 l1.62 0 l0 0.3 l-7 0 z M74.872 13.26 l1.16 0 c1.34 0 1.74 -1.08 1.74 -3.2 c0 -1.94 -0.46 -2.98 -1.84 -2.98 l-1.06 0 l0 6.18 z M85.27000000000001 20 l0 -0.3 l1.62 0 l0 -12.62 l-1.62 0 l0 -0.3 l10.8 0 s-0.42 1.58 -0.58 3.74 l-0.3 0 l0 -1.48 c0 -0.94 -0.5 -1.96 -1.74 -1.96 l-2.78 0 l0 6.24 l2.86 0 l0 -1.76 l0.3 0 l0 4 l-0.3 0 l0 -1.94 l-2.86 0 l0 6.08 l3.04 0 c1.34 0 1.92 -1.74 2.1 -3.66 l0.32 0 s-0.3 1.82 -0.3 3.96 l-10.56 0 z M98.14800000000001 20 l0 -0.3 l0.4 0 c0.62 0 0.96 -0.3 1.3 -1.18 l4.52 -11.78 l1.22 0 l5.3 12.96 l0.98 0 l0 0.3 l-6.28 0 l0 -0.3 l1.4 0 l-1.58 -3.84 l-4.22 0 l-1.02 2.66 c-0.28 0.72 0.16 1.18 1.08 1.18 l0.6 0 l0 0.3 l-3.7 0 z M101.308 15.559999999999999 l3.98 0 l-2.06 -5 z M113.78600000000002 20 l0 -0.3 l1.62 0 l0 -12.62 l-1.62 0 l0 -0.3 l6.6 0 c5.36 0 7.48 2.52 7.48 6.4 c0 3.78 -1.98 6.82 -7.48 6.82 l-6.6 0 z M119.18600000000002 19.7 l1.24 0 c2.4 0 3.48 -2.18 3.48 -6.3 c0 -4.3 -1.08 -6.32 -3.48 -6.32 l-1.24 0 l0 12.62 z M133.744 20 l0 -0.3 l1.62 0 l0 -5.24 l-4.16 -7.38 l-1.2 0 l0 -0.3 l6.5 0 l0 0.3 l-1.3 0 l3.72 6.66 l2.94 -5.54 c0.34 -0.64 0.12 -1.12 -0.8 -1.12 l-0.9 0 l0 -0.3 l3.7 0 l0 0.3 l-0.26 0 c-0.62 0 -0.96 0.28 -1.44 1.18 l-3.04 5.76 l0 5.68 l1.62 0 l0 0.3 l-7 0 z" fill="#F4F7F7"></path></g><g id="SvgjsG1069" featurekey="rPPfD9-0" transform="matrix(0.6329341921701243,0,0,0.6329341921701243,34.139209489594435,38.885928656313816)" fill="#F4F7F7"><path d="M1.36 20 l0 -13.22 l3.36 0 l0 13.22 l-3.36 0 z M9.206 20 l0 -13.22 l3.26 0 l3.66 5.38 c0.54 0.8 1.24 1.9 1.88 2.96 c-0.06 -1.18 -0.1 -2.46 -0.1 -3.42 l0 -4.92 l3.2 0 l0 13.22 l-3.28 0 l-4.08 -5.96 c-0.4 -0.58 -0.94 -1.48 -1.44 -2.38 c0.06 1.08 0.1 2.18 0.1 2.94 l0 5.4 l-3.2 0 z M24.772000000000002 16.34 l3.3 -0.68 c0.02 1.4 1.1 1.84 2.2 1.84 c1.04 0 1.64 -0.38 1.64 -1 c0 -2.1 -6.78 -1.14 -6.78 -5.94 c0 -2.64 2.04 -4.06 5.1 -4.06 c3.08 0 5.02 1.46 4.92 3.58 l-3.3 0.68 c-0.02 -0.54 -0.14 -1.48 -1.7 -1.48 c-1.08 0 -1.62 0.44 -1.62 1.04 c0 2.18 6.78 1.04 6.78 5.82 c0 2.4 -1.7 4.14 -5.08 4.14 c-3.6 0 -5.58 -1.96 -5.46 -3.94 z M37.998000000000005 9.66 l0 -2.88 l11.24 0 l0 2.88 l-3.94 0 l0 10.34 l-3.36 0 l0 -10.34 l-3.94 0 z M51.224 20 l4.94 -13.22 l2.68 0 l5.46 13.22 l-3.4 0 l-0.9 -2.22 l-4.8 0 l-0.78 2.22 l-3.2 0 z M56.924 13 l-0.72 1.98 l2.66 0 l-0.8 -2.02 c-0.14 -0.34 -0.38 -1.02 -0.6 -1.72 c-0.22 0.74 -0.42 1.42 -0.54 1.76 z M67.15 20 l0 -13.22 l3.26 0 l3.66 5.38 c0.54 0.8 1.24 1.9 1.88 2.96 c-0.06 -1.18 -0.1 -2.46 -0.1 -3.42 l0 -4.92 l3.2 0 l0 13.22 l-3.28 0 l-4.08 -5.96 c-0.4 -0.58 -0.94 -1.48 -1.44 -2.38 c0.06 1.08 0.1 2.18 0.1 2.94 l0 5.4 l-3.2 0 z M82.41600000000001 9.66 l0 -2.88 l11.24 0 l0 2.88 l-3.94 0 l0 10.34 l-3.36 0 l0 -10.34 l-3.94 0 z M102.74800000000002 20 l0 -13.22 l5.22 0 c2.74 0 4.72 0.88 4.72 3.38 c0 1.24 -0.5 2.46 -1.86 2.84 l0 0.08 c1.78 0.32 2.38 1.72 2.38 3.02 c0 2.2 -1.72 3.9 -5.28 3.9 l-5.18 0 z M106.00800000000002 17.18 l1.76 0 c1.48 0 1.94 -0.56 1.94 -1.32 c0 -0.86 -0.58 -1.2 -1.64 -1.2 l-2.06 0 l0 2.52 z M106.00800000000002 11.82 l2.08 0 c0.74 0 1.18 -0.36 1.18 -1.12 c0 -0.78 -0.46 -1.1 -1.48 -1.1 l-1.78 0 l0 2.22 z M122.91400000000002 20.28 c-4.3 0 -6.52 -2.92 -6.52 -6.92 c0 -4.1 2.32 -6.86 6.64 -6.86 c4.08 0 6.54 2.46 6.54 6.7 c0 4.1 -2.32 7.08 -6.66 7.08 z M122.97400000000002 17.5 c1.88 0 3.06 -1.24 3.06 -4.16 c0 -2.88 -1.14 -4.06 -3.02 -4.06 c-1.94 0 -3.08 1.26 -3.08 4.1 c0 2.88 1.16 4.12 3.04 4.12 z M139.26000000000002 20.28 c-4.3 0 -6.52 -2.92 -6.52 -6.92 c0 -4.1 2.32 -6.86 6.64 -6.86 c4.08 0 6.54 2.46 6.54 6.7 c0 4.1 -2.32 7.08 -6.66 7.08 z M139.32000000000002 17.5 c1.88 0 3.06 -1.24 3.06 -4.16 c0 -2.88 -1.14 -4.06 -3.02 -4.06 c-1.94 0 -3.08 1.26 -3.08 4.1 c0 2.88 1.16 4.12 3.04 4.12 z M149.74600000000004 20 l0 -13.22 l3.36 0 l0 4.94 l0.6 0 l3.42 -4.94 l3.92 0 l-4.5 6.34 l4.68 6.88 l-4.04 0 l-3.5 -5.26 l-0.58 0 l0 5.26 l-3.36 0 z M164.27200000000005 20 l0 -13.22 l3.36 0 l0 13.22 l-3.36 0 z M172.11800000000005 20 l0 -13.22 l3.26 0 l3.66 5.38 c0.54 0.8 1.24 1.9 1.88 2.96 c-0.06 -1.18 -0.1 -2.46 -0.1 -3.42 l0 -4.92 l3.2 0 l0 13.22 l-3.28 0 l-4.08 -5.96 c-0.4 -0.58 -0.94 -1.48 -1.44 -2.38 c0.06 1.08 0.1 2.18 0.1 2.94 l0 5.4 l-3.2 0 z M197.78400000000005 20 l-0.3 -1.02 c-0.72 0.82 -1.8 1.3 -3.44 1.3 c-4.02 0 -6.2 -2.8 -6.2 -6.96 c0 -4.18 2.22 -6.82 6.68 -6.82 c3.88 0 5.62 2.06 5.34 3.94 l-3.3 0.68 c0.1 -1.18 -0.6 -1.84 -2.1 -1.84 c-2.78 0 -3.08 2 -3.08 3.96 c0 2.66 0.68 4.26 3.14 4.26 c0.96 0 2.28 -0.28 2.28 -1.1 l0 -0.72 l-2.4 0 l0 -2.68 l5.66 0 l0 7 l-2.28 0 z M203.29000000000002 16.34 l3.3 -0.68 c0.02 1.4 1.1 1.84 2.2 1.84 c1.04 0 1.64 -0.38 1.64 -1 c0 -2.1 -6.78 -1.14 -6.78 -5.94 c0 -2.64 2.04 -4.06 5.1 -4.06 c3.08 0 5.02 1.46 4.92 3.58 l-3.3 0.68 c-0.02 -0.54 -0.14 -1.48 -1.7 -1.48 c-1.08 0 -1.62 0.44 -1.62 1.04 c0 2.18 6.78 1.04 6.78 5.82 c0 2.4 -1.7 4.14 -5.08 4.14 c-3.6 0 -5.58 -1.96 -5.46 -3.94 z M218.29600000000005 23.94 l-1.3 -1.48 c0.98 -0.7 1.32 -1.42 1.32 -2.02 c0 -0.84 -0.36 -1.08 -1.62 -2.12 l2.14 -1.78 c0.94 0.34 2.22 1.36 2.22 2.96 c0 2.08 -1.56 3.44 -2.76 4.44 z M230.50800000000004 20 l0 -13.22 l3.36 0 l0 13.22 l-3.36 0 z M238.35400000000004 20 l0 -13.22 l3.26 0 l3.66 5.38 c0.54 0.8 1.24 1.9 1.88 2.96 c-0.06 -1.18 -0.1 -2.46 -0.1 -3.42 l0 -4.92 l3.2 0 l0 13.22 l-3.28 0 l-4.08 -5.96 c-0.4 -0.58 -0.94 -1.48 -1.44 -2.38 c0.06 1.08 0.1 2.18 0.1 2.94 l0 5.4 l-3.2 0 z M254.74000000000004 20 l0 -13.22 l8.64 0 l0 2.86 l-5.28 0 l0 2.28 l4.44 0 l0 2.86 l-4.44 0 l0 5.22 l-3.36 0 z M267.00600000000003 20 l0 -13.22 l3.36 0 l0 13.22 l-3.36 0 z M274.85200000000003 20 l0 -13.22 l3.26 0 l3.66 5.38 c0.54 0.8 1.24 1.9 1.88 2.96 c-0.06 -1.18 -0.1 -2.46 -0.1 -3.42 l0 -4.92 l3.2 0 l0 13.22 l-3.28 0 l-4.08 -5.96 c-0.4 -0.58 -0.94 -1.48 -1.44 -2.38 c0.06 1.08 0.1 2.18 0.1 2.94 l0 5.4 l-3.2 0 z M291.23800000000006 20 l0 -13.22 l3.36 0 l0 13.22 l-3.36 0 z M297.96400000000006 9.66 l0 -2.88 l11.24 0 l0 2.88 l-3.94 0 l0 10.34 l-3.36 0 l0 -10.34 l-3.94 0 z M312.57000000000005 20 l0 -13.22 l8.76 0 l0 2.86 l-5.4 0 l0 2.28 l4.34 0 l0 2.86 l-4.34 0 l0 2.36 l5.52 0 l0 2.86 l-8.88 0 z M331.10200000000003 20 l0 -13.22 l4.4 0 l2.54 7.56 c0.1 0.32 0.32 1.04 0.54 1.84 c0.22 -0.82 0.42 -1.54 0.54 -1.88 l2.46 -7.52 l4.46 0 l0 13.22 l-3.26 0 l0 -5.06 c0 -0.98 0.06 -2.46 0.16 -3.86 c-0.44 1.36 -0.88 2.8 -1.2 3.72 l-1.78 5.2 l-2.8 0 l-1.86 -5.28 c-0.32 -0.9 -0.72 -2.16 -1.08 -3.38 c0.08 1.28 0.14 2.6 0.14 3.48 l0 5.18 l-3.26 0 z M350.528 20 l0 -13.22 l8.76 0 l0 2.86 l-5.4 0 l0 2.28 l4.34 0 l0 2.86 l-4.34 0 l0 2.36 l5.52 0 l0 2.86 l-8.88 0 z M363.334 20 l0 -13.22 l4.4 0 l2.54 7.56 c0.1 0.32 0.32 1.04 0.54 1.84 c0.22 -0.82 0.42 -1.54 0.54 -1.88 l2.46 -7.52 l4.46 0 l0 13.22 l-3.26 0 l0 -5.06 c0 -0.98 0.06 -2.46 0.16 -3.86 c-0.44 1.36 -0.88 2.8 -1.2 3.72 l-1.78 5.2 l-2.8 0 l-1.86 -5.28 c-0.32 -0.9 -0.72 -2.16 -1.08 -3.38 c0.08 1.28 0.14 2.6 0.14 3.48 l0 5.18 l-3.26 0 z M388.62 20.28 c-4.3 0 -6.52 -2.92 -6.52 -6.92 c0 -4.1 2.32 -6.86 6.64 -6.86 c4.08 0 6.54 2.46 6.54 6.7 c0 4.1 -2.32 7.08 -6.66 7.08 z M388.67999999999995 17.5 c1.88 0 3.06 -1.24 3.06 -4.16 c0 -2.88 -1.14 -4.06 -3.02 -4.06 c-1.94 0 -3.08 1.26 -3.08 4.1 c0 2.88 1.16 4.12 3.04 4.12 z M399.106 20 l0 -13.22 l5.08 0 c3.66 0 4.96 1.58 4.96 3.7 c0 1.98 -1.12 3.1 -2.34 3.68 c0.52 0.28 0.9 0.8 1.24 1.74 c0.28 0.8 0.42 1.56 1.86 1.5 l-0.58 2.72 c-3.16 0.4 -3.9 -1.64 -4.44 -3.1 c-0.56 -1.52 -0.78 -1.68 -1.9 -1.68 l-0.52 0 l0 4.66 l-3.36 0 z M404.106 9.6 l-1.64 0 l0 2.92 l1.64 0 c1.22 0 1.68 -0.76 1.68 -1.54 c0 -0.98 -0.56 -1.38 -1.68 -1.38 z M413.372 20 l0 -13.22 l3.36 0 l0 13.22 l-3.36 0 z M421.218 20 l0 -13.22 l8.76 0 l0 2.86 l-5.4 0 l0 2.28 l4.34 0 l0 2.86 l-4.34 0 l0 2.36 l5.52 0 l0 2.86 l-8.88 0 z M433.204 16.34 l3.3 -0.68 c0.02 1.4 1.1 1.84 2.2 1.84 c1.04 0 1.64 -0.38 1.64 -1 c0 -2.1 -6.78 -1.14 -6.78 -5.94 c0 -2.64 2.04 -4.06 5.1 -4.06 c3.08 0 5.02 1.46 4.92 3.58 l-3.3 0.68 c-0.02 -0.54 -0.14 -1.48 -1.7 -1.48 c-1.08 0 -1.62 0.44 -1.62 1.04 c0 2.18 6.78 1.04 6.78 5.82 c0 2.4 -1.7 4.14 -5.08 4.14 c-3.6 0 -5.58 -1.96 -5.46 -3.94 z" fill="#F4F7F7"></path></g></svg>