<svg xmlns:xlink="http://www.w3.org/1999/xlink" xmlns="http://www.w3.org/2000/svg" id="-NRzHwLw_" viewBox="0 0 350 78.18250364573723" height="78.18250364573723" width="350" style="width: 350px; height: 78.1825px; position: absolute; top: 50%; left: 50%; transform: translate(-50%, -50%) scale(0.648143); z-index: 0; cursor: pointer; overflow: visible;"><defs id="SvgjsDefs1062"></defs><g id="SvgjsG1063" featurekey="DhFEHj-0" transform="matrix(3.2649254660798674,0,0,3.2649254660798674,-1.6324642898777146,-20.177243490425322)" fill="#253B6E"><path d="M9.4 16.88 c0.98 1.5 1.98 2.44 3 2.52 l-0.48 0.76 c-1.46 0 -3.18 -0.22 -4.78 -2.44 l-1.86 -2.54 l-0.06 0 l-0.46 0.06 l0 3.28 c0 0.5 0.34 0.64 1.44 0.72 l0 0.76 c-1.9 -0.06 -3.8 -0.06 -5.7 0 l0 -0.76 c1.1 -0.08 1.44 -0.22 1.44 -0.72 l0 -9.34 c0 -0.5 -0.34 -0.76 -1.32 -0.84 l0 -0.76 c1.94 0.08 3.9 0 5.04 0 c4.32 0 5.66 1.48 5.66 3.56 c0 1.46 -1.02 2.72 -3.42 3.48 z M4.76 8.38 l0 6.02 l0.4 -0.06 c2.5 -0.38 3.48 -1.54 3.48 -3.28 c0 -1.56 -0.82 -2.68 -2.54 -2.68 l-1.34 0 z M17.540000000000003 9.82 c2.28 0 4.86 1.6 4.86 5.08 c0 3.56 -2.58 5.3 -4.84 5.3 c-2.28 0 -4.86 -1.74 -4.86 -5.14 c0 -3.64 2.58 -5.24 4.84 -5.24 z M19.5 15.6 c0 -3.02 -0.86 -4.98 -2.22 -4.98 c-1.12 0 -1.68 1.34 -1.68 3.78 c0 3 0.86 5 2.22 5 c1.14 0 1.68 -1.36 1.68 -3.8 z M28.44 9.82 c2.28 0 4.86 1.6 4.86 5.08 c0 3.56 -2.58 5.3 -4.84 5.3 c-2.28 0 -4.86 -1.74 -4.86 -5.14 c0 -3.64 2.58 -5.24 4.84 -5.24 z M30.4 15.6 c0 -3.02 -0.86 -4.98 -2.22 -4.98 c-1.12 0 -1.68 1.34 -1.68 3.78 c0 3 0.86 5 2.22 5 c1.14 0 1.68 -1.36 1.68 -3.8 z M50.3 18.5 c0 0.5 0.54 0.66 1.26 0.74 l0 0.76 c-1.74 -0.06 -3.46 -0.06 -5.2 0 l0 -0.76 c0.7 -0.04 1.24 -0.24 1.24 -0.74 l0 -5 c0 -1.44 -0.16 -2.5 -1.04 -2.5 c-1.1 0 -2.04 1.42 -2.34 2.1 l0 5.4 c0 0.5 0.54 0.7 1.26 0.74 l0 0.76 c-1.74 -0.06 -3.46 -0.06 -5.2 0 l0 -0.76 c0.7 -0.04 1.24 -0.24 1.24 -0.74 l0 -5 c0 -1.44 -0.16 -2.5 -1.04 -2.5 c-1.14 0 -2.04 1.42 -2.34 2.1 l0 5.4 c0 0.5 0.54 0.7 1.26 0.74 l0 0.76 c-1.74 -0.06 -3.46 -0.06 -5.2 0 l0 -0.76 c0.7 -0.08 1.24 -0.24 1.24 -0.74 l0 -5.94 c0 -0.74 -0.48 -0.9 -1.24 -0.78 l0 -0.76 c1.98 -0.4 2.86 -1.3 3.38 -1.3 c0.42 0 0.62 0.28 0.56 0.76 l-0.18 1.6 c0.42 -0.74 1.52 -2.28 3.68 -2.28 c1.32 0 2.14 0.86 2.44 2.28 c0.4 -0.74 1.48 -2.28 3.68 -2.28 c1.64 0 2.54 1.06 2.54 3.2 l0 5.5 z M61.26 16.88 c0.98 1.5 1.98 2.44 3 2.52 l-0.48 0.76 c-1.46 0 -3.18 -0.22 -4.78 -2.44 l-1.86 -2.54 l-0.06 0 l-0.46 0.06 l0 3.28 c0 0.5 0.34 0.64 1.44 0.72 l0 0.76 c-1.9 -0.06 -3.8 -0.06 -5.7 0 l0 -0.76 c1.1 -0.08 1.44 -0.22 1.44 -0.72 l0 -9.34 c0 -0.5 -0.34 -0.76 -1.32 -0.84 l0 -0.76 c1.94 0.08 3.9 0 5.04 0 c4.32 0 5.66 1.48 5.66 3.56 c0 1.46 -1.02 2.72 -3.42 3.48 z M56.62 8.38 l0 6.02 l0.4 -0.06 c2.5 -0.38 3.48 -1.54 3.48 -3.28 c0 -1.56 -0.82 -2.68 -2.54 -2.68 l-1.34 0 z M72.86 17.740000000000002 c0.26 0 0.32 0.26 0.14 0.58 c-0.64 1.14 -1.72 1.88 -3.42 1.88 c-2.76 0 -5.02 -1.82 -5.02 -5.24 c0 -3.36 2.36 -5.14 4.74 -5.14 c2.5 0 4.26 1.76 4.26 4.08 c0 0.86 -0.34 1.42 -1.24 1.42 l-5 0 c0.04 2.18 0.7 4.08 2.6 4.08 c1.06 0 1.74 -0.44 2.26 -1.36 c0.12 -0.2 0.18 -0.3 0.42 -0.3 l0.26 0 z M71 14.4 c0 -2.36 -0.46 -3.78 -1.72 -3.78 c-1.3 0 -1.94 1.42 -1.96 3.78 l3.68 0 z M83.32 17.5 c0 0.74 0.48 0.9 1.26 0.76 l0 0.84 c-1.94 0.48 -2.86 1.16 -3.36 1.16 c-0.44 0 -0.64 -0.24 -0.6 -0.74 l0.12 -1.48 c-0.42 1.04 -1.28 2.22 -3.08 2.22 c-1.52 0 -3 -0.76 -3 -2.56 c0 -1.92 1.4 -3.1 5.96 -4.04 l-0.02 -1.22 c-0.02 -1.44 -0.22 -1.94 -0.94 -1.94 c-2.7 0 -1.08 3.08 -3.26 3.08 c-0.78 0 -1.14 -0.44 -1.14 -1.06 c0 -1.5 1.98 -2.72 4.54 -2.72 c2.2 0 3.52 0.52 3.52 2.9 l0 4.8 z M78.67999999999999 19.08 c1.16 0 1.78 -1.52 1.94 -2.22 l0 -2.5 c-2.96 0.62 -3.22 2.28 -3.22 3.12 c0 0.94 0.48 1.6 1.28 1.6 z M95.11999999999999 17.48 c0 0.74 0.48 0.9 1.26 0.76 l0 0.86 c-1.94 0.48 -2.86 1.16 -3.36 1.16 c-0.44 0 -0.66 -0.28 -0.6 -0.78 l0.1 -0.9 c-0.26 0.78 -0.98 1.62 -2.54 1.62 c-2.1 0 -4.5 -1.68 -4.5 -5.24 c0 -3.4 2.38 -5.14 4.4 -5.14 c1.32 0 2.1 0.72 2.54 1.38 l0 -2.24 c0 -0.74 -0.48 -0.96 -1.24 -0.84 l0 -0.76 c1.98 -0.38 2.86 -1.18 3.38 -1.18 c0.42 0 0.56 0.22 0.56 0.68 l0 10.62 z M90.61999999999999 19.38 c1.02 0 1.66 -1.08 1.8 -2.08 l0 -5.22 c-0.42 -0.68 -1.2 -1.44 -2.12 -1.44 c-1.36 0 -1.96 1.42 -1.96 3.78 c0 2.86 0.88 4.96 2.28 4.96 z M107.69999999999999 9.98 l0 0.76 l-0.6 0.06 c-0.58 0.06 -0.86 0.44 -1 0.82 l-4.8 12.36 c-0.1 0.26 -0.2 0.4 -0.72 0.4 c-0.62 0 -0.8 -0.14 -0.66 -0.4 c0.32 -0.62 1.86 -3.44 1.86 -3.74 c0 -0.48 -2.48 -5.76 -3.76 -8.62 c-0.18 -0.42 -0.38 -0.78 -0.74 -0.82 l-0.6 -0.06 l0 -0.76 c1.66 0.06 3.54 0.06 5.12 0 l0 0.76 l-0.6 0.06 c-0.42 0.04 -0.64 0.42 -0.46 0.82 l2.38 5.4 l2.06 -5.4 c0.16 -0.42 -0.18 -0.78 -0.7 -0.82 l-0.66 -0.06 l0 -0.76 c1.24 0.06 2.32 0.06 3.88 0 z" fill="#253B6E"></path></g><g id="SvgjsG1064" featurekey="aJrulJ-0" transform="matrix(0.5351109398245146,0,0,0.5351109398245146,69.02609812524189,66.06759229471601)" fill="#253B6E"><path d="M3.74 5.84 l0 14.16 l-1.92 0 l0 -14.16 l1.92 0 z M13.524000000000001 5.84 l7.8 11.64 l0.04 0 l0 -11.64 l1.92 0 l0 14.16 l-2.44 0 l-7.88 -11.64 l-0.04 0 l0 11.64 l-1.92 0 l0 -14.16 l2.52 0 z M34.608000000000004 5.48 c1.84 0 3.2 0.54006 4.08 1.6201 l-1.56 1.42 c-0.24 -0.37334 -0.58 -0.67334 -1.02 -0.9 s-0.94666 -0.34 -1.52 -0.34 c-0.82666 0 -1.49 0.20334 -1.99 0.61 s-0.75 0.93 -0.75 1.57 c0 1.0667 0.70666 1.8133 2.12 2.24 l1.78 0.58 c1 0.32 1.7633 0.76666 2.29 1.34 s0.79 1.36 0.79 2.36 c0 1.3067 -0.46334 2.3634 -1.39 3.17 s-2.1034 1.21 -3.53 1.21 c-2.04 0 -3.5466 -0.65334 -4.52 -1.96 l1.58 -1.36 c0.30666 0.48 0.72666 0.85334 1.26 1.12 s1.1133 0.4 1.74 0.4 c0.78666 0 1.4533 -0.22666 2 -0.68 s0.82 -1.0133 0.82 -1.68 c0 -0.49334 -0.16666 -0.90668 -0.5 -1.24 s-0.93334 -0.63334 -1.8 -0.9 l-1.26 -0.42 c-1.2667 -0.42666 -2.1534 -0.97 -2.66 -1.63 s-0.76 -1.51 -0.76 -2.55 c0 -1.1067 0.44666 -2.0466 1.34 -2.82 s2.0466 -1.16 3.46 -1.16 z M54.732 5.84 l0 1.8 l-4.56 0 l0 12.36 l-1.92 0 l0 -12.36 l-4.56 0 l0 -1.8 l11.04 0 z M64.73599999999999 5.84 l6.06 14.16 l-2.24 0 l-1.42 -3.5 l-6.74 0 l-1.4 3.5 l-2.24 0 l6.24 -14.16 l1.74 0 z M61.07599999999999 14.82 l5.36 0 l-2.64 -6.5 l-0.04 0 z M78.78 5.84 l7.8 11.64 l0.04 0 l0 -11.64 l1.92 0 l0 14.16 l-2.44 0 l-7.88 -11.64 l-0.04 0 l0 11.64 l-1.92 0 l0 -14.16 l2.52 0 z M105.244 5.84 l0 1.8 l-4.56 0 l0 12.36 l-1.92 0 l0 -12.36 l-4.56 0 l0 -1.8 l11.04 0 z M125.09199999999998 5.84 c1.2933 0 2.32 0.32 3.08 0.96 s1.14 1.5 1.14 2.58 c0 1.5333 -0.81334 2.5734 -2.44 3.12 l0 0.04 l0.02 0 c0.92 0.10666 1.6567 0.49 2.21 1.15 s0.83 1.45 0.83 2.37 c0 1.1867 -0.45666 2.14 -1.37 2.86 s-2.09 1.08 -3.53 1.08 l-4.94 0 l0 -14.16 l5 0 z M124.692 11.72 c0.8 0 1.43 -0.18334 1.89 -0.55 s0.69 -0.89 0.69 -1.57 c0 -0.64 -0.2 -1.1467 -0.6 -1.52 s-0.92666 -0.56 -1.58 -0.56 l-3.08 0 l0 4.2 l2.68 0 z M124.91199999999999 18.32 c0.94666 0 1.68 -0.22 2.2 -0.66 s0.78 -1.02 0.78 -1.74 c0 -0.8 -0.26334 -1.42 -0.79 -1.86 s-1.27 -0.66 -2.23 -0.66 l-2.86 0 l0 4.92 l2.9 0 z M142.81599999999997 5.48 c2.1066 0 3.8634 0.69998 5.27 2.1 s2.11 3.18 2.11 5.34 c0 1.3733 -0.31334 2.63 -0.94 3.77 s-1.51 2.0366 -2.65 2.69 s-2.4034 0.98 -3.79 0.98 c-1.3733 0 -2.6266 -0.32334 -3.76 -0.97 s-2.02 -1.54 -2.66 -2.68 s-0.96 -2.4034 -0.96 -3.79 c0 -2.1066 0.69 -3.8734 2.07 -5.3 s3.15 -2.14 5.31 -2.14 z M137.47599999999997 12.92 c0 1.6 0.49998 2.94 1.5 4.02 s2.28 1.62 3.84 1.62 c1.5333 0 2.8066 -0.53334 3.82 -1.6 s1.52 -2.4134 1.52 -4.04 c0 -1.6133 -0.5 -2.9566 -1.5 -4.03 s-2.2866 -1.61 -3.86 -1.61 c-1.52 0 -2.7866 0.53334 -3.8 1.6 s-1.52 2.4134 -1.52 4.04 z M163.07999999999998 5.48 c2.1066 0 3.8634 0.69998 5.27 2.1 s2.11 3.18 2.11 5.34 c0 1.3733 -0.31334 2.63 -0.94 3.77 s-1.51 2.0366 -2.65 2.69 s-2.4034 0.98 -3.79 0.98 c-1.3733 0 -2.6266 -0.32334 -3.76 -0.97 s-2.02 -1.54 -2.66 -2.68 s-0.96 -2.4034 -0.96 -3.79 c0 -2.1066 0.69 -3.8734 2.07 -5.3 s3.15 -2.14 5.31 -2.14 z M157.73999999999998 12.92 c0 1.6 0.49998 2.94 1.5 4.02 s2.28 1.62 3.84 1.62 c1.5333 0 2.8066 -0.53334 3.82 -1.6 s1.52 -2.4134 1.52 -4.04 c0 -1.6133 -0.5 -2.9566 -1.5 -4.03 s-2.2866 -1.61 -3.86 -1.61 c-1.52 0 -2.7866 0.53334 -3.8 1.6 s-1.52 2.4134 -1.52 4.04 z M178.764 5.84 l0 6.12 l0.16 0 l6.26 -6.12 l2.68 0 l-6.84 6.54 l7.3 7.62 l-2.8 0 l-6.6 -7.08 l-0.16 0 l0 7.08 l-1.92 0 l0 -14.16 l1.92 0 z M195.348 5.84 l0 14.16 l-1.92 0 l0 -14.16 l1.92 0 z M205.132 5.84 l7.8 11.64 l0.04 0 l0 -11.64 l1.92 0 l0 14.16 l-2.44 0 l-7.88 -11.64 l-0.04 0 l0 11.64 l-1.92 0 l0 -14.16 l2.52 0 z M228.67600000000002 5.48 c2.36 0 4.1134 0.6133 5.26 1.84 l-1.36 1.46 c-1.0533 -1 -2.36 -1.5 -3.92 -1.5 s-2.84 0.53666 -3.84 1.61 s-1.5 2.4166 -1.5 4.03 c0 1.6267 0.53 2.9734 1.59 4.04 s2.3634 1.6 3.91 1.6 c1.4667 0 2.6266 -0.24666 3.48 -0.74 l0 -3.94 l-3.14 0 l0 -1.8 l5.06 0 l0 6.98 c-0.69334 0.41334 -1.53 0.73334 -2.51 0.96 s-1.93 0.34 -2.85 0.34 c-2.2266 0 -4.0466 -0.69334 -5.46 -2.08 s-2.12 -3.1734 -2.12 -5.36 c0 -2.1066 0.69666 -3.8734 2.09 -5.3 s3.1634 -2.14 5.31 -2.14 z M245.4 5.48 c1.84 0 3.2 0.54006 4.08 1.6201 l-1.56 1.42 c-0.24 -0.37334 -0.58 -0.67334 -1.02 -0.9 s-0.94666 -0.34 -1.52 -0.34 c-0.82666 0 -1.49 0.20334 -1.99 0.61 s-0.75 0.93 -0.75 1.57 c0 1.0667 0.70666 1.8133 2.12 2.24 l1.78 0.58 c1 0.32 1.7633 0.76666 2.29 1.34 s0.79 1.36 0.79 2.36 c0 1.3067 -0.46334 2.3634 -1.39 3.17 s-2.1034 1.21 -3.53 1.21 c-2.04 0 -3.5466 -0.65334 -4.52 -1.96 l1.58 -1.36 c0.30666 0.48 0.72666 0.85334 1.26 1.12 s1.1133 0.4 1.74 0.4 c0.78666 0 1.4533 -0.22666 2 -0.68 s0.82 -1.0133 0.82 -1.68 c0 -0.49334 -0.16666 -0.90668 -0.5 -1.24 s-0.93334 -0.63334 -1.8 -0.9 l-1.26 -0.42 c-1.2667 -0.42666 -2.1534 -0.97 -2.66 -1.63 s-0.76 -1.51 -0.76 -2.55 c0 -1.1067 0.44666 -2.0466 1.34 -2.82 s2.0466 -1.16 3.46 -1.16 z M258.544 17.72 l-1.68 4.92 l-1.64 0 l1.38 -4.92 l1.94 0 z M276.37200000000007 5.84 l0 14.16 l-1.92 0 l0 -14.16 l1.92 0 z M286.15600000000006 5.84 l7.8 11.64 l0.04 0 l0 -11.64 l1.92 0 l0 14.16 l-2.44 0 l-7.88 -11.64 l-0.04 0 l0 11.64 l-1.92 0 l0 -14.16 l2.52 0 z M312.0800000000001 5.84 l0 1.8 l-6.98 0 l0 4.44 l6.5 0 l0 1.8 l-6.5 0 l0 6.12 l-1.92 0 l0 -14.16 l8.9 0 z M320.20400000000006 5.84 l0 14.16 l-1.92 0 l0 -14.16 l1.92 0 z M329.98800000000006 5.84 l7.8 11.64 l0.04 0 l0 -11.64 l1.92 0 l0 14.16 l-2.44 0 l-7.88 -11.64 l-0.04 0 l0 11.64 l-1.92 0 l0 -14.16 l2.52 0 z M348.9320000000001 5.84 l0 14.16 l-1.92 0 l0 -14.16 l1.92 0 z M365.6360000000001 5.84 l0 1.8 l-4.56 0 l0 12.36 l-1.92 0 l0 -12.36 l-4.56 0 l0 -1.8 l11.04 0 z M380.44000000000005 5.84 l0 1.8 l-7.22 0 l0 4.22 l6.72 0 l0 1.8 l-6.72 0 l0 4.54 l7.58 0 l0 1.8 l-9.5 0 l0 -14.16 l9.14 0 z M399.0480000000001 5.84 l4.5 10.72 l0.08 0 l4.46 -10.72 l2.86 0 l0 14.16 l-1.92 0 l0 -11.64 l-0.04 0 l-4.78 11.64 l-1.28 0 l-4.78 -11.64 l-0.04 0 l0 11.64 l-1.92 0 l0 -14.16 l2.86 0 z M427.21200000000005 5.84 l0 1.8 l-7.22 0 l0 4.22 l6.72 0 l0 1.8 l-6.72 0 l0 4.54 l7.58 0 l0 1.8 l-9.5 0 l0 -14.16 l9.14 0 z M436.6360000000001 5.84 l4.5 10.72 l0.08 0 l4.46 -10.72 l2.86 0 l0 14.16 l-1.92 0 l0 -11.64 l-0.04 0 l-4.78 11.64 l-1.28 0 l-4.78 -11.64 l-0.04 0 l0 11.64 l-1.92 0 l0 -14.16 l2.86 0 z M462.16 5.48 c2.1066 0 3.8634 0.69998 5.27 2.1 s2.11 3.18 2.11 5.34 c0 1.3733 -0.31334 2.63 -0.94 3.77 s-1.51 2.0366 -2.65 2.69 s-2.4034 0.98 -3.79 0.98 c-1.3733 0 -2.6266 -0.32334 -3.76 -0.97 s-2.02 -1.54 -2.66 -2.68 s-0.96 -2.4034 -0.96 -3.79 c0 -2.1066 0.69 -3.8734 2.07 -5.3 s3.15 -2.14 5.31 -2.14 z M456.82000000000005 12.92 c0 1.6 0.49998 2.94 1.5 4.02 s2.28 1.62 3.84 1.62 c1.5333 0 2.8066 -0.53334 3.82 -1.6 s1.52 -2.4134 1.52 -4.04 c0 -1.6133 -0.5 -2.9566 -1.5 -4.03 s-2.2866 -1.61 -3.86 -1.61 c-1.52 0 -2.7866 0.53334 -3.8 1.6 s-1.52 2.4134 -1.52 4.04 z M481.004 5.84 c1.3867 0 2.4734 0.34666 3.26 1.04 s1.18 1.6667 1.18 2.92 c0 0.94666 -0.32334 1.7733 -0.97 2.48 s-1.4767 1.1267 -2.49 1.26 l-0.02 0 l4.02 6.46 l-2.4 0 l-3.6 -6.24 l-2.14 0 l0 6.24 l-1.92 0 l0 -14.16 l5.08 0 z M480.444 12.08 c1 0 1.7433 -0.18336 2.23 -0.55002 s0.73 -0.94332 0.73 -1.73 c0 -1.52 -0.98666 -2.28 -2.96 -2.28 l-2.6 0 l0 4.56 l2.6 0 z M493.68800000000005 5.84 l0 14.16 l-1.92 0 l0 -14.16 l1.92 0 z M510.09200000000004 5.84 l0 1.8 l-7.22 0 l0 4.22 l6.72 0 l0 1.8 l-6.72 0 l0 4.54 l7.58 0 l0 1.8 l-9.5 0 l0 -14.16 l9.14 0 z M520.8560000000001 5.48 c1.84 0 3.2 0.54006 4.08 1.6201 l-1.56 1.42 c-0.24 -0.37334 -0.58 -0.67334 -1.02 -0.9 s-0.94666 -0.34 -1.52 -0.34 c-0.82666 0 -1.49 0.20334 -1.99 0.61 s-0.75 0.93 -0.75 1.57 c0 1.0667 0.70666 1.8133 2.12 2.24 l1.78 0.58 c1 0.32 1.7633 0.76666 2.29 1.34 s0.79 1.36 0.79 2.36 c0 1.3067 -0.46334 2.3634 -1.39 3.17 s-2.1034 1.21 -3.53 1.21 c-2.04 0 -3.5466 -0.65334 -4.52 -1.96 l1.58 -1.36 c0.30666 0.48 0.72666 0.85334 1.26 1.12 s1.1133 0.4 1.74 0.4 c0.78666 0 1.4533 -0.22666 2 -0.68 s0.82 -1.0133 0.82 -1.68 c0 -0.49334 -0.16666 -0.90668 -0.5 -1.24 s-0.93334 -0.63334 -1.8 -0.9 l-1.26 -0.42 c-1.2667 -0.42666 -2.1534 -0.97 -2.66 -1.63 s-0.76 -1.51 -0.76 -2.55 c0 -1.1067 0.44666 -2.0466 1.34 -2.82 s2.0466 -1.16 3.46 -1.16 z" fill="#253B6E"></path></g></svg>