<svg xmlns:xlink="http://www.w3.org/1999/xlink" xmlns="http://www.w3.org/2000/svg" id="1mTV76gox" viewBox="0 0 350 240.57336746705013" height="240.57336746705013" width="350" style="width: 350px; height: 240.573px; position: absolute; top: 50%; left: 50%; transform: translate(-50%, -50%) scale(0.598286); z-index: 0; cursor: pointer; overflow: visible;"><defs id="SvgjsDefs1091"></defs><g id="SvgjsG1092" featurekey="JiLV9t-0" transform="matrix(1.4583333333333333,0,0,1.4583333333333333,103.54166666666667,-2.596854120492935)" fill="#111111"><g xmlns="http://www.w3.org/2000/svg" fill="#111111"><path d="M63.9595,6.3431l0.7563-1.8421c-0.626-0.2566-1.2579-0.5011-1.8946-0.7329l-0.6804,1.8712   C62.7522,5.8614,63.3587,6.0962,63.9595,6.3431z" fill="#111111"></path><path d="M13.7887,85.9864c-0.4812-0.4355-0.9546-0.8812-1.4192-1.3366l-1.3939,1.4212c0.4841,0.4749,0.9769,0.939,1.4785,1.392   L13.7887,85.9864z" fill="#111111"></path><path d="M21.6353,91.7449l-1.008,1.7167c0.5837,0.3427,1.1743,0.6741,1.7711,0.993l0.938-1.7565   C22.7629,92.3918,22.1957,92.074,21.6353,91.7449z" fill="#111111"></path><path d="M16.7856,88.4807c-0.5152-0.3947-1.0231-0.8-1.5232-1.2165l-1.2744,1.5291c0.5205,0.434,1.0498,0.8569,1.5864,1.2681   L16.7856,88.4807z" fill="#111111"></path><path d="M18.8974,92.3967l1.077-1.6739c-0.5458-0.3514-1.0848-0.714-1.6161-1.0882l-1.147,1.6272   C17.7659,91.6526,18.3283,92.0307,18.8974,92.3967z" fill="#111111"></path><path d="M82.3714,19.7688l1.5223-1.2831c-0.3499-0.4146-0.7057-0.8229-1.0673-1.2243l-1.4785,1.3327   C81.6948,18.979,82.036,19.3707,82.3714,19.7688z" fill="#111111"></path><path d="M78.6226,15.8057c0.4715,0.4447,0.9351,0.9006,1.3901,1.3662l1.4241-1.391c-0.4734-0.4851-0.9565-0.9594-1.4484-1.4236   L78.6226,15.8057z" fill="#111111"></path><path d="M77.1776,14.4968l1.3065-1.5028c-0.5118-0.4447-1.0314-0.8783-1.5592-1.3011l-1.2442,1.5543   C76.1871,13.6526,76.6863,14.0696,77.1776,14.4968z" fill="#111111"></path><path d="M26.848,94.3928c-0.5964-0.2586-1.1874-0.5288-1.7716-0.8117l-0.8671,1.7925c0.6095,0.2945,1.2258,0.5764,1.8474,0.8457   L26.848,94.3928z" fill="#111111"></path><path d="M69.2223,8.8899c0.5662,0.3179,1.1256,0.6479,1.6792,0.9896l1.0459-1.6943c-0.5769-0.3563-1.1606-0.6999-1.7512-1.0314   L69.2223,8.8899z" fill="#111111"></path><path d="M73.6534,9.2865l-1.113,1.6506c0.538,0.3631,1.0693,0.7373,1.5932,1.1227l1.1801-1.6029   C74.7684,10.0549,74.2148,9.6651,73.6534,9.2865z" fill="#111111"></path><path d="M67.5027,7.9699l0.904-1.774c-0.6032-0.3072-1.2127-0.6022-1.828-0.8851l-0.8311,1.809   C66.3386,7.391,66.9238,7.6744,67.5027,7.9699z" fill="#111111"></path><path d="M8.2397,83.1669c0.4297,0.4953,0.8685,0.9803,1.3157,1.4552l1.4493-1.3648c-0.4287-0.4554-0.8491-0.9201-1.2613-1.3949   L8.2397,83.1669z" fill="#111111"></path><path d="M12.2924,20.7757c3.3473,2.1308,7.2544,3.9048,11.6309,5.2961c3.0122-9.0641,7.4957-15.7963,12.7486-19.423   C27.009,8.6581,18.6052,13.6686,12.2924,20.7757z" fill="#111111"></path><path d="M23.2985,73.0119c-1.9449-6.5564-3.0104-13.9148-3.101-21.4268H1c0.2235,9.9067,3.6195,19.3502,9.9283,27.1311   C14.5007,76.4042,18.6525,74.4898,23.2985,73.0119z" fill="#111111"></path><path d="M20.1974,49.4988c0.0906-7.5189,1.156-14.8807,3.1009-21.4381c-4.6634-1.4819-8.8176-3.3942-12.3766-5.6975   C4.7147,30.0009,1.2263,39.471,1,49.4988H20.1974z" fill="#111111"></path><path d="M30.8665,29.99c-1.8984-0.3687-3.7578-0.817-5.5687-1.3302c-0.9984,3.3663-1.7707,6.9445-2.2788,10.6618   C23.2167,39.0143,25.3692,34.0069,30.8665,29.99z" fill="#111111"></path><path d="M65.7126,26.6808C61.5994,14.3396,54.4715,6.4137,46.8663,5.7494v19.3885c4.1162,0.1701,8.0936,1.3774,11.3415,3.1932   C60.7656,27.9262,63.2801,27.3671,65.7126,26.6808z" fill="#111111"></path><path d="M90.6458,49.4988c-0.2215-9.7821-3.5312-19.1693-9.9298-27.129c-3.5435,2.2972-7.6986,4.2109-12.38,5.7018   c1.945,6.5565,3.0106,13.9149,3.1011,21.4271H90.6458z" fill="#111111"></path><path d="M68.608,39.2763c-0.5078-3.6966-1.2775-7.2554-2.271-10.6053c-1.8131,0.5134-3.6688,0.9591-5.5563,1.3225   C64.3037,32.5617,66.7062,35.6189,68.608,39.2763z" fill="#111111"></path><path d="M44.7801,25.1378V5.7498c-7.6078,0.6692-14.7364,8.5899-18.857,20.9196c2.4206,0.6837,4.9343,1.2464,7.5038,1.6607   C36.7871,26.4472,40.6537,25.3065,44.7801,25.1378z" fill="#111111"></path><path d="M30.8503,71.0875c-3.398-2.4718-6.0684-5.7276-7.8196-9.2494c0.5077,3.686,1.2762,7.2341,2.267,10.5747   C27.1004,71.9021,28.9543,71.4557,30.8503,71.0875z" fill="#111111"></path><path d="M67.7121,26.083c4.3969-1.4011,8.3079-3.1784,11.6419-5.3061C72.8073,13.4163,64.315,8.5974,54.9801,6.6522   C60.2286,10.2809,64.7071,17.0158,67.7121,26.083z" fill="#111111"></path><path d="M23.9275,75.0156c-4.3589,1.3875-8.2758,3.1524-11.6344,5.2924C18.6004,87.4,26.9958,92.4235,36.6683,94.437   C31.4152,90.8114,26.934,84.0794,23.9275,75.0156z" fill="#111111"></path><path d="M60.7989,71.0904c1.8797,0.365,3.729,0.8074,5.5373,1.314c0.9884-3.3315,1.7551-6.8682,2.2633-10.5413   c-0.0212,0.0425-0.0478,0.0826-0.0692,0.125C66.7893,65.4286,64.1299,68.6788,60.7989,71.0904z" fill="#111111"></path><path d="M79.354,80.3067c-3.348-2.1382-7.2585-3.9189-11.641-5.3164c-2.9954,9.0674-7.4689,15.8038-12.7202,19.4357   C64.55,92.4301,72.9844,87.4722,79.354,80.3067z" fill="#111111"></path><path d="M71.4372,51.5851c-0.0907,7.5053-1.1563,14.8598-3.1012,21.4162c4.6671,1.4876,8.8206,3.4039,12.3774,5.7108   c6.4929-8.1004,9.7137-17.4627,9.9324-27.127H71.4372z" fill="#111111"></path><path d="M65.7125,74.3951c-2.4365-0.6801-4.9553-1.2399-7.5153-1.652c-3.3542,1.8891-7.1941,3.0228-11.3308,3.1918v19.3999   C54.4866,94.6664,61.6118,86.7384,65.7125,74.3951z" fill="#111111"></path><path d="M69.1632,50.542c0-12.8089-10.4069-23.3513-23.34-23.3513c-13.0512,0-23.34,10.6569-23.34,23.3513   c0,13.0307,10.578,23.34,23.34,23.34C58.5716,73.882,69.1632,63.5604,69.1632,50.542z M37.9635,68.3088v-1.3559   c0-2.2437,1.3319-3.3994,2.8742-4.7374c0.5134-0.4457,1.0839-0.9408,1.6732-1.5301c-0.3733-2.6486-0.6682-5.7474-0.8496-8.9099   L28.4898,57.961l0.2389-1.882c0.3652-2.8722,1.9269-5.4764,4.2851-7.146l8.4892-6.0199c0.2277-6.9698,1.4919-9.8252,4.3202-9.8252   c2.8284,0,4.0926,2.8554,4.3197,9.8252c5.784,4.7978,11.9026,6.3094,12.7743,13.1659l0.2389,1.882L49.985,51.7756   c-0.1803,3.1452-0.4737,6.2313-0.845,8.8768l3.0194,2.8039c1.982,1.8518,1.4292,4.1632,1.5229,4.8266   c-1.3536-0.3449-1.189-0.2598-3.4116-0.8878C43.4802,65.4743,43.7268,67.3715,37.9635,68.3088z" fill="#111111"></path><path d="M46.9172,61.4352c0.0131-0.1103,0.7851-5.1372,1.063-11.311l0.0703-1.5621l12.2766,5.7657   c-1.4761-3.71-4.2351-4.2417-12.242-10.3162c-0.112-1.7315-0.1163-8.8376-2.262-8.8376c-2.1574,0-2.1491,7.0871-2.2625,8.8376   l-9.3408,6.624c-1.3116,0.928-2.3144,2.2187-2.9012,3.6917l12.2766-5.7647c0.1984,2.283-0.2514,1.2357,1.1277,12.8308   c-3.2945,3.2342-3.6345,3.25-4.2154,4.0824c3.8132-0.9043,4.4634-1.7613,10.6447,0.0005   C50.8379,64.9951,50.7723,65.0504,46.9172,61.4352z" fill="#111111"></path><path d="M44.7801,75.9349c-4.0502-0.1645-7.9757-1.2961-11.3425-3.1918c-2.5796,0.4153-5.097,0.9777-7.5153,1.6604   c4.1135,12.3407,11.2458,20.267,18.8579,20.9315V75.9349z" fill="#111111"></path><rect x="81.9456" y="91.114" width="1.9908" height="1.9908" fill="#111111"></rect><rect x="77.9641" y="91.114" width="1.9908" height="1.9908" fill="#111111"></rect><rect x="73.9825" y="91.114" width="1.9908" height="1.9908" fill="#111111"></rect><rect x="95.0092" y="76.7863" width="1.9908" height="1.9908" fill="#111111"></rect><rect x="87.0461" y="76.7863" width="1.9908" height="1.9908" fill="#111111"></rect><rect x="91.0276" y="76.7863" width="1.9908" height="1.9908" fill="#111111"></rect><rect x="9.9996" y="16.1085" width="1.9908" height="1.9908" fill="#111111"></rect><rect x="6.018" y="16.1085" width="1.9908" height="1.9908" fill="#111111"></rect><rect x="2.0365" y="16.1085" width="1.9908" height="1.9908" fill="#111111"></rect><rect x="23.0632" y="1.7807" width="1.9908" height="1.9908" fill="#111111"></rect><rect x="15.1001" y="1.7807" width="1.9908" height="1.9908" fill="#111111"></rect><rect x="19.0816" y="1.7807" width="1.9908" height="1.9908" fill="#111111"></rect></g></g><g id="SvgjsG1093" featurekey="Yxc9Rz-0" transform="matrix(3.495106871712043,0,0,3.495106871712043,-5.312567378128917,139.54583831725148)" fill="#111111"><path d="M11.32 10.56 q0 0.66 -0.2 1.25 t-0.53 1.06 t-0.78 0.82 t-0.93 0.53 q1.04 0.38 1.54 1.84 l0.6 1.7 q0.34 1 1 1.48 q-0.3 0.4 -0.9 0.67 t-1.32 0.27 t-1.12 -0.41 t-0.74 -1.43 l-0.72 -2.1 q-0.22 -0.6 -0.59 -0.92 t-1.11 -0.32 l-0.82 0 l0 5 q-0.64 0.12 -1.6 0.12 t-1.58 -0.12 l0 -13.56 l0.14 -0.14 q1.74 -0.04 2.93 -0.06 t1.87 -0.02 q1.1 0 2 0.27 t1.53 0.81 t0.98 1.36 t0.35 1.9 z M4.7 8.62 l0 3.92 q0.9 0 1.54 -0.03 t1.03 -0.24 t0.59 -0.59 t0.2 -1.1 q0 -1.94 -1.88 -1.94 l-0.83 0 t-0.65 -0.02 z M20.380000000000003 10.9 q1.44 1.44 1.44 4.12 q0 1.2 -0.31 2.18 t-0.9 1.67 t-1.45 1.06 t-1.98 0.37 t-1.97 -0.38 t-1.44 -1.07 t-0.89 -1.67 t-0.3 -2.16 q0 -1.2 0.3 -2.17 t0.88 -1.67 t1.44 -1.08 t1.98 -0.38 q1.98 0 3.2 1.18 z M17.2 12.059999999999999 q-0.44 0 -0.71 0.21 t-0.43 0.57 t-0.22 0.83 t-0.06 1.01 q0 0.84 0.05 1.45 t0.2 1.02 t0.42 0.61 t0.71 0.2 q0.88 0 1.16 -0.77 t0.28 -2.19 q0 -1.44 -0.28 -2.19 t-1.12 -0.75 z M30.82 10.9 q1.44 1.44 1.44 4.12 q0 1.2 -0.31 2.18 t-0.9 1.67 t-1.45 1.06 t-1.98 0.37 t-1.97 -0.38 t-1.44 -1.07 t-0.89 -1.67 t-0.3 -2.16 q0 -1.2 0.3 -2.17 t0.88 -1.67 t1.44 -1.08 t1.98 -0.38 q1.98 0 3.2 1.18 z M27.64 12.059999999999999 q-0.44 0 -0.71 0.21 t-0.43 0.57 t-0.22 0.83 t-0.06 1.01 q0 0.84 0.05 1.45 t0.2 1.02 t0.42 0.61 t0.71 0.2 q0.88 0 1.16 -0.77 t0.28 -2.19 q0 -1.44 -0.28 -2.19 t-1.12 -0.75 z M39.4 13.98 q0 -1.34 -0.9 -1.34 q-0.32 0 -0.65 0.19 t-0.67 0.49 l0 6.68 q-0.34 0.06 -0.74 0.09 t-0.82 0.03 t-0.82 -0.03 t-0.74 -0.09 l0 -9.98 l0.14 -0.14 l1.16 0 q1.28 0 1.68 1.26 q1.42 -1.3 2.76 -1.3 q1.62 0 2.34 1.38 q1.56 -1.38 2.96 -1.38 t2.09 0.87 t0.69 2.31 l0 4.48 q0 1.3 0.5 1.98 q-0.76 0.68 -1.82 0.68 q-1.04 0 -1.42 -0.48 t-0.38 -1.46 l0 -4.26 q0 -1.32 -0.94 -1.32 q-0.58 0 -1.28 0.7 l0 6.66 q-0.34 0.06 -0.74 0.09 t-0.82 0.03 t-0.83 -0.03 t-0.75 -0.09 l0 -6.02 z M60.339999999999996 10.56 q0 0.66 -0.2 1.25 t-0.53 1.06 t-0.78 0.82 t-0.93 0.53 q1.04 0.38 1.54 1.84 l0.6 1.7 q0.34 1 1 1.48 q-0.3 0.4 -0.9 0.67 t-1.32 0.27 t-1.12 -0.41 t-0.74 -1.43 l-0.72 -2.1 q-0.22 -0.6 -0.59 -0.92 t-1.11 -0.32 l-0.82 0 l0 5 q-0.64 0.12 -1.6 0.12 t-1.58 -0.12 l0 -13.56 l0.14 -0.14 q1.74 -0.04 2.93 -0.06 t1.87 -0.02 q1.1 0 2 0.27 t1.53 0.81 t0.98 1.36 t0.35 1.9 z M53.72 8.62 l0 3.92 q0.9 0 1.54 -0.03 t1.03 -0.24 t0.59 -0.59 t0.2 -1.1 q0 -1.94 -1.88 -1.94 l-0.83 0 t-0.65 -0.02 z M69.97999999999999 16.02 l-5.22 0 q0.04 0.9 0.46 1.4 t1.38 0.5 q0.48 0 1.11 -0.14 t1.45 -0.46 q0.66 0.68 0.82 1.84 q-1.6 1.14 -3.92 1.14 q-1.26 0 -2.11 -0.4 t-1.38 -1.12 t-0.75 -1.7 t-0.22 -2.14 q0 -1.12 0.27 -2.07 t0.82 -1.65 t1.4 -1.1 t1.99 -0.4 q0.96 0 1.73 0.32 t1.31 0.88 t0.83 1.34 t0.29 1.7 q0 1.22 -0.26 2.06 z M64.74 13.86 l2.64 0 l0 -0.22 q0 -0.74 -0.33 -1.22 t-0.99 -0.48 q-0.64 0 -0.95 0.45 t-0.37 1.47 z M80.62 18.56 q-0.1 0.42 -0.38 0.9 t-0.58 0.7 q-1.4 -0.04 -2.16 -1.06 q-1.3 1.2 -2.82 1.2 q-0.78 0 -1.36 -0.25 t-0.98 -0.67 t-0.6 -0.97 t-0.2 -1.15 q0 -0.86 0.31 -1.51 t0.85 -1.08 t1.26 -0.65 t1.54 -0.22 q0.46 0 0.81 0.01 t0.61 0.03 l0 -0.38 q0 -1.26 -1.3 -1.26 q-0.84 0 -2.94 0.64 q-0.6 -0.7 -0.76 -2.18 q0.48 -0.18 1.07 -0.34 t1.21 -0.28 t1.22 -0.19 t1.08 -0.07 q0.7 0 1.35 0.2 t1.14 0.61 t0.78 1.06 t0.29 1.55 l0 4.06 q0 0.92 0.56 1.3 z M74.58 17.06 q0 0.94 1.08 0.94 q0.56 0 1.26 -0.58 l0 -1.6 q-0.4 -0.02 -0.67 -0.03 t-0.41 -0.01 q-1.26 0 -1.26 1.28 z M85.68 9.82 q0.96 0 1.86 0.44 l0 -4.84 l0.12 -0.14 l1.22 0 q0.96 0 1.33 0.42 t0.37 1.46 l0 9.96 q0 1.06 0.56 1.44 q-0.1 0.42 -0.38 0.9 t-0.58 0.7 q-1.46 -0.04 -2.14 -1.12 q-1.2 1.26 -2.88 1.26 t-2.58 -1.4 t-0.9 -3.84 q0 -1.2 0.31 -2.17 t0.85 -1.65 t1.27 -1.05 t1.57 -0.37 z M86.08000000000001 17.78 q0.82 0 1.46 -0.78 l0 -4.38 q-0.82 -0.48 -1.3 -0.48 q-1.36 0 -1.36 3 q0 2.64 1.2 2.64 z M101.66000000000001 10.34 l-2.46 9.4 q-0.58 2.16 -1.54 3.32 q-1.1 1.32 -3.38 1.32 q-1.22 0 -2.42 -0.4 q-0.06 -0.54 0.12 -1.21 t0.5 -1.03 q0.9 0.3 1.8 0.3 q1.48 0 1.96 -1.62 l0.08 -0.28 q-1.74 0 -2.08 -1.26 l-2.32 -8.62 q0.92 -0.42 1.72 -0.42 t1.17 0.3 t0.55 1.04 l0.92 3.84 q0.14 0.54 0.46 2.64 q0.02 0.14 0.16 0.14 l1.74 -7.76 q0.48 -0.14 1.3 -0.14 q0.92 0 1.6 0.22 z" fill="#111111"></path></g><g id="SvgjsG1094" featurekey="zc75Em-0" transform="matrix(0.3247883168187012,0,0,0.3247883168187012,34.408885285071925,233.2201601725098)" fill="#111111"><path d="M3.74 5.84 l0 14.16 l-1.92 0 l0 -14.16 l1.92 0 z M23.49 5.84 l7.8 11.64 l0.04 0 l0 -11.64 l1.92 0 l0 14.16 l-2.44 0 l-7.88 -11.64 l-0.04 0 l0 11.64 l-1.92 0 l0 -14.16 l2.52 0 z M54.54 5.48 c1.84 0 3.2 0.54006 4.08 1.6201 l-1.56 1.42 c-0.24 -0.37334 -0.58 -0.67334 -1.02 -0.9 s-0.94666 -0.34 -1.52 -0.34 c-0.82666 0 -1.49 0.20334 -1.99 0.61 s-0.75 0.93 -0.75 1.57 c0 1.0667 0.70666 1.8133 2.12 2.24 l1.78 0.58 c1 0.32 1.7633 0.76666 2.29 1.34 s0.79 1.36 0.79 2.36 c0 1.3067 -0.46334 2.3634 -1.39 3.17 s-2.1034 1.21 -3.53 1.21 c-2.04 0 -3.5466 -0.65334 -4.52 -1.96 l1.58 -1.36 c0.30666 0.48 0.72666 0.85334 1.26 1.12 s1.1133 0.4 1.74 0.4 c0.78666 0 1.4533 -0.22666 2 -0.68 s0.82 -1.0133 0.82 -1.68 c0 -0.49334 -0.16666 -0.90668 -0.5 -1.24 s-0.93334 -0.63334 -1.8 -0.9 l-1.26 -0.42 c-1.2667 -0.42666 -2.1534 -0.97 -2.66 -1.63 s-0.76 -1.51 -0.76 -2.55 c0 -1.1067 0.44666 -2.0466 1.34 -2.82 s2.0466 -1.16 3.46 -1.16 z M84.63000000000001 5.84 l0 1.8 l-4.56 0 l0 12.36 l-1.92 0 l0 -12.36 l-4.56 0 l0 -1.8 l11.04 0 z M104.6 5.84 l6.06 14.16 l-2.24 0 l-1.42 -3.5 l-6.74 0 l-1.4 3.5 l-2.24 0 l6.24 -14.16 l1.74 0 z M100.94 14.82 l5.36 0 l-2.64 -6.5 l-0.04 0 z M128.60999999999999 5.84 l7.8 11.64 l0.04 0 l0 -11.64 l1.92 0 l0 14.16 l-2.44 0 l-7.88 -11.64 l-0.04 0 l0 11.64 l-1.92 0 l0 -14.16 l2.52 0 z M165.04 5.84 l0 1.8 l-4.56 0 l0 12.36 l-1.92 0 l0 -12.36 l-4.56 0 l0 -1.8 l11.04 0 z M204.82 5.84 c1.2933 0 2.32 0.32 3.08 0.96 s1.14 1.5 1.14 2.58 c0 1.5333 -0.81334 2.5734 -2.44 3.12 l0 0.04 l0.02 0 c0.92 0.10666 1.6567 0.49 2.21 1.15 s0.83 1.45 0.83 2.37 c0 1.1867 -0.45666 2.14 -1.37 2.86 s-2.09 1.08 -3.53 1.08 l-4.94 0 l0 -14.16 l5 0 z M204.42 11.72 c0.8 0 1.43 -0.18334 1.89 -0.55 s0.69 -0.89 0.69 -1.57 c0 -0.64 -0.2 -1.1467 -0.6 -1.52 s-0.92666 -0.56 -1.58 -0.56 l-3.08 0 l0 4.2 l2.68 0 z M204.64 18.32 c0.94666 0 1.68 -0.22 2.2 -0.66 s0.78 -1.02 0.78 -1.74 c0 -0.8 -0.26334 -1.42 -0.79 -1.86 s-1.27 -0.66 -2.23 -0.66 l-2.86 0 l0 4.92 l2.9 0 z M232.51 5.48 c2.1066 0 3.8634 0.69998 5.27 2.1 s2.11 3.18 2.11 5.34 c0 1.3733 -0.31334 2.63 -0.94 3.77 s-1.51 2.0366 -2.65 2.69 s-2.4034 0.98 -3.79 0.98 c-1.3733 0 -2.6266 -0.32334 -3.76 -0.97 s-2.02 -1.54 -2.66 -2.68 s-0.96 -2.4034 -0.96 -3.79 c0 -2.1066 0.69 -3.8734 2.07 -5.3 s3.15 -2.14 5.31 -2.14 z M227.17 12.92 c0 1.6 0.49998 2.94 1.5 4.02 s2.28 1.62 3.84 1.62 c1.5333 0 2.8066 -0.53334 3.82 -1.6 s1.52 -2.4134 1.52 -4.04 c0 -1.6133 -0.5 -2.9566 -1.5 -4.03 s-2.2866 -1.61 -3.86 -1.61 c-1.52 0 -2.7866 0.53334 -3.8 1.6 s-1.52 2.4134 -1.52 4.04 z M262.74 5.48 c2.1066 0 3.8634 0.69998 5.27 2.1 s2.11 3.18 2.11 5.34 c0 1.3733 -0.31334 2.63 -0.94 3.77 s-1.51 2.0366 -2.65 2.69 s-2.4034 0.98 -3.79 0.98 c-1.3733 0 -2.6266 -0.32334 -3.76 -0.97 s-2.02 -1.54 -2.66 -2.68 s-0.96 -2.4034 -0.96 -3.79 c0 -2.1066 0.69 -3.8734 2.07 -5.3 s3.15 -2.14 5.31 -2.14 z M257.4 12.92 c0 1.6 0.49998 2.94 1.5 4.02 s2.28 1.62 3.84 1.62 c1.5333 0 2.8066 -0.53334 3.82 -1.6 s1.52 -2.4134 1.52 -4.04 c0 -1.6133 -0.5 -2.9566 -1.5 -4.03 s-2.2866 -1.61 -3.86 -1.61 c-1.52 0 -2.7866 0.53334 -3.8 1.6 s-1.52 2.4134 -1.52 4.04 z M288.39 5.84 l0 6.12 l0.16 0 l6.26 -6.12 l2.68 0 l-6.84 6.54 l7.3 7.62 l-2.8 0 l-6.6 -7.08 l-0.16 0 l0 7.08 l-1.92 0 l0 -14.16 l1.92 0 z M314.94 5.84 l0 14.16 l-1.92 0 l0 -14.16 l1.92 0 z M334.68999999999994 5.84 l7.8 11.64 l0.04 0 l0 -11.64 l1.92 0 l0 14.16 l-2.44 0 l-7.88 -11.64 l-0.04 0 l0 11.64 l-1.92 0 l0 -14.16 l2.52 0 z M368.19999999999993 5.48 c2.36 0 4.1134 0.6133 5.26 1.84 l-1.36 1.46 c-1.0533 -1 -2.36 -1.5 -3.92 -1.5 s-2.84 0.53666 -3.84 1.61 s-1.5 2.4166 -1.5 4.03 c0 1.6267 0.53 2.9734 1.59 4.04 s2.3634 1.6 3.91 1.6 c1.4667 0 2.6266 -0.24666 3.48 -0.74 l0 -3.94 l-3.14 0 l0 -1.8 l5.06 0 l0 6.98 c-0.69334 0.41334 -1.53 0.73334 -2.51 0.96 s-1.93 0.34 -2.85 0.34 c-2.2266 0 -4.0466 -0.69334 -5.46 -2.08 s-2.12 -3.1734 -2.12 -5.36 c0 -2.1066 0.69666 -3.8734 2.09 -5.3 s3.1634 -2.14 5.31 -2.14 z M394.88999999999993 5.48 c1.84 0 3.2 0.54006 4.08 1.6201 l-1.56 1.42 c-0.24 -0.37334 -0.58 -0.67334 -1.02 -0.9 s-0.94666 -0.34 -1.52 -0.34 c-0.82666 0 -1.49 0.20334 -1.99 0.61 s-0.75 0.93 -0.75 1.57 c0 1.0667 0.70666 1.8133 2.12 2.24 l1.78 0.58 c1 0.32 1.7633 0.76666 2.29 1.34 s0.79 1.36 0.79 2.36 c0 1.3067 -0.46334 2.3634 -1.39 3.17 s-2.1034 1.21 -3.53 1.21 c-2.04 0 -3.5466 -0.65334 -4.52 -1.96 l1.58 -1.36 c0.30666 0.48 0.72666 0.85334 1.26 1.12 s1.1133 0.4 1.74 0.4 c0.78666 0 1.4533 -0.22666 2 -0.68 s0.82 -1.0133 0.82 -1.68 c0 -0.49334 -0.16666 -0.90668 -0.5 -1.24 s-0.93334 -0.63334 -1.8 -0.9 l-1.26 -0.42 c-1.2667 -0.42666 -2.1534 -0.97 -2.66 -1.63 s-0.76 -1.51 -0.76 -2.55 c0 -1.1067 0.44666 -2.0466 1.34 -2.82 s2.0466 -1.16 3.46 -1.16 z M417.9999999999999 17.72 l-1.68 4.92 l-1.64 0 l1.38 -4.92 l1.94 0 z M455.7599999999999 5.84 l0 14.16 l-1.92 0 l0 -14.16 l1.92 0 z M475.5099999999998 5.84 l7.8 11.64 l0.04 0 l0 -11.64 l1.92 0 l0 14.16 l-2.44 0 l-7.88 -11.64 l-0.04 0 l0 11.64 l-1.92 0 l0 -14.16 l2.52 0 z M511.39999999999986 5.84 l0 1.8 l-6.98 0 l0 4.44 l6.5 0 l0 1.8 l-6.5 0 l0 6.12 l-1.92 0 l0 -14.16 l8.9 0 z M529.4899999999999 5.84 l0 14.16 l-1.92 0 l0 -14.16 l1.92 0 z M549.2399999999999 5.84 l7.8 11.64 l0.04 0 l0 -11.64 l1.92 0 l0 14.16 l-2.44 0 l-7.88 -11.64 l-0.04 0 l0 11.64 l-1.92 0 l0 -14.16 l2.52 0 z M578.1499999999999 5.84 l0 14.16 l-1.92 0 l0 -14.16 l1.92 0 z M604.8199999999998 5.84 l0 1.8 l-4.56 0 l0 12.36 l-1.92 0 l0 -12.36 l-4.56 0 l0 -1.8 l11.04 0 z M629.5899999999999 5.84 l0 1.8 l-7.22 0 l0 4.22 l6.72 0 l0 1.8 l-6.72 0 l0 4.54 l7.58 0 l0 1.8 l-9.5 0 l0 -14.16 l9.14 0 z M668.1299999999998 5.84 l4.5 10.72 l0.08 0 l4.46 -10.72 l2.86 0 l0 14.16 l-1.92 0 l0 -11.64 l-0.04 0 l-4.78 11.64 l-1.28 0 l-4.78 -11.64 l-0.04 0 l0 11.64 l-1.92 0 l0 -14.16 l2.86 0 z M706.2599999999999 5.84 l0 1.8 l-7.22 0 l0 4.22 l6.72 0 l0 1.8 l-6.72 0 l0 4.54 l7.58 0 l0 1.8 l-9.5 0 l0 -14.16 l9.14 0 z M725.6499999999999 5.84 l4.5 10.72 l0.08 0 l4.46 -10.72 l2.86 0 l0 14.16 l-1.92 0 l0 -11.64 l-0.04 0 l-4.78 11.64 l-1.28 0 l-4.78 -11.64 l-0.04 0 l0 11.64 l-1.92 0 l0 -14.16 l2.86 0 z M761.14 5.48 c2.1066 0 3.8634 0.69998 5.27 2.1 s2.11 3.18 2.11 5.34 c0 1.3733 -0.31334 2.63 -0.94 3.77 s-1.51 2.0366 -2.65 2.69 s-2.4034 0.98 -3.79 0.98 c-1.3733 0 -2.6266 -0.32334 -3.76 -0.97 s-2.02 -1.54 -2.66 -2.68 s-0.96 -2.4034 -0.96 -3.79 c0 -2.1066 0.69 -3.8734 2.07 -5.3 s3.15 -2.14 5.31 -2.14 z M755.8 12.92 c0 1.6 0.49998 2.94 1.5 4.02 s2.28 1.62 3.84 1.62 c1.5333 0 2.8066 -0.53334 3.82 -1.6 s1.52 -2.4134 1.52 -4.04 c0 -1.6133 -0.5 -2.9566 -1.5 -4.03 s-2.2866 -1.61 -3.86 -1.61 c-1.52 0 -2.7866 0.53334 -3.8 1.6 s-1.52 2.4134 -1.52 4.04 z M789.9499999999999 5.84 c1.3867 0 2.4734 0.34666 3.26 1.04 s1.18 1.6667 1.18 2.92 c0 0.94666 -0.32334 1.7733 -0.97 2.48 s-1.4767 1.1267 -2.49 1.26 l-0.02 0 l4.02 6.46 l-2.4 0 l-3.6 -6.24 l-2.14 0 l0 6.24 l-1.92 0 l0 -14.16 l5.08 0 z M789.39 12.08 c1 0 1.7433 -0.18336 2.23 -0.55002 s0.73 -0.94332 0.73 -1.73 c0 -1.52 -0.98666 -2.28 -2.96 -2.28 l-2.6 0 l0 4.56 l2.6 0 z M812.5999999999999 5.84 l0 14.16 l-1.92 0 l0 -14.16 l1.92 0 z M838.9699999999999 5.84 l0 1.8 l-7.22 0 l0 4.22 l6.72 0 l0 1.8 l-6.72 0 l0 4.54 l7.58 0 l0 1.8 l-9.5 0 l0 -14.16 l9.14 0 z M859.6999999999999 5.48 c1.84 0 3.2 0.54006 4.08 1.6201 l-1.56 1.42 c-0.24 -0.37334 -0.58 -0.67334 -1.02 -0.9 s-0.94666 -0.34 -1.52 -0.34 c-0.82666 0 -1.49 0.20334 -1.99 0.61 s-0.75 0.93 -0.75 1.57 c0 1.0667 0.70666 1.8133 2.12 2.24 l1.78 0.58 c1 0.32 1.7633 0.76666 2.29 1.34 s0.79 1.36 0.79 2.36 c0 1.3067 -0.46334 2.3634 -1.39 3.17 s-2.1034 1.21 -3.53 1.21 c-2.04 0 -3.5466 -0.65334 -4.52 -1.96 l1.58 -1.36 c0.30666 0.48 0.72666 0.85334 1.26 1.12 s1.1133 0.4 1.74 0.4 c0.78666 0 1.4533 -0.22666 2 -0.68 s0.82 -1.0133 0.82 -1.68 c0 -0.49334 -0.16666 -0.90668 -0.5 -1.24 s-0.93334 -0.63334 -1.8 -0.9 l-1.26 -0.42 c-1.2667 -0.42666 -2.1534 -0.97 -2.66 -1.63 s-0.76 -1.51 -0.76 -2.55 c0 -1.1067 0.44666 -2.0466 1.34 -2.82 s2.0466 -1.16 3.46 -1.16 z" fill="#111111"></path></g></svg>