<svg xmlns:xlink="http://www.w3.org/1999/xlink" xmlns="http://www.w3.org/2000/svg" id="i-j9sjFlg" viewBox="0 0 350 186.40386981526643" height="186.40386981526643" width="350" style="width: 350px; height: 186.404px; position: absolute; top: 50%; left: 50%; transform: translate(-50%, -50%) scale(0.598286); z-index: 0; cursor: pointer; overflow: visible;"><defs id="SvgjsDefs1020"></defs><g id="SvgjsG1021" featurekey="mugSzh-0" transform="matrix(2.1875,0,0,2.1875,63.4375,-58.25721621513367)" fill="#E3E3E3"><g xmlns="http://www.w3.org/2000/svg" display="none" fill="#E3E3E3"><g display="inline" fill="#E3E3E3"><path fill="none" stroke="#E3E3E3" stroke-width="2px" stroke-miterlimit="10" d="M52,70c0-13.333,0-26.667,0-40    c9.099-2.956,18.854-3.154,28.041-0.591C81.128,29.711,82,30.896,82,32c0,12,0,24,0,36c0,1.105-0.872,1.711-1.959,1.409    C70.854,66.846,61.099,67.044,52,70z"></path></g><g display="inline" fill="#E3E3E3"><path fill="none" stroke="#E3E3E3" stroke-width="2px" stroke-miterlimit="10" d="M50,70c0-13.333,0-26.667,0-40    c-9.099-2.956-18.854-3.154-28.041-0.591C20.872,29.711,20,30.896,20,32c0,12,0,24,0,36c0,1.105,0.872,1.711,1.959,1.409    C31.146,66.846,40.901,67.044,50,70z"></path></g><g display="inline" fill="#E3E3E3"><path fill="none" stroke="#E3E3E3" stroke-miterlimit="10" d="M24,48.142c7.148-2.322,14.848-2.322,21.996,0    c0,5.619,0,11.238,0,16.858C38.848,62.678,31.148,62.678,24,65C24,59.381,24,53.762,24,48.142z"></path></g><path display="inline" d="M30.687,54.589c1.759,0,3.206,1.055,3.206,2.144c0,1.071-1.447,2.142-3.206,2.142   c-1.627,0-2.687-0.526-2.687-2.142C28,55.139,29.06,54.589,30.687,54.589z" fill="#E3E3E3"></path><g display="inline" fill="#E3E3E3"><g fill="#E3E3E3"><path d="M45.604,52.781l-7.917-1.072c-0.295,0-2.677,0.645-2.677,0.939v6.697c0,0.295,2.382,0.936,2.677,0.936l7.917-1.072     c0.295,0,0.536-0.241,0.536-0.536v-5.358C46.139,53.022,45.898,52.781,45.604,52.781z" fill="#E3E3E3"></path></g></g><g display="inline" fill="#E3E3E3"><path d="M45.972,61.988l-0.297,0.992c-0.107,0.275-0.508,0.377-0.893,0.228l-8.199-2.165C35.43,60.596,35,60.553,35,59.142    l0.89-0.091c0.071-0.184,0.983-0.472,1.693-0.597c0.402-0.071,0.864,0.013,1.261,0.233l6.713,2.524    C45.941,61.36,46.078,61.714,45.972,61.988z" fill="#E3E3E3"></path></g><g display="inline" fill="#E3E3E3"><path d="M45.972,50.296l-0.297-0.992c-0.107-0.275-0.508-0.377-0.893-0.228l-8.199,2.165C35.43,51.688,35,51.732,35,53.142    l0.89,0.091c0.071,0.184,0.983,0.472,1.693,0.597c0.402,0.071,0.864-0.013,1.261-0.233l6.713-2.524    C45.941,50.925,46.078,50.571,45.972,50.296z" fill="#E3E3E3"></path></g><g display="inline" fill="#E3E3E3"><path fill="none" stroke="#E3E3E3" stroke-width="2px" stroke-miterlimit="10" d="M26,44.23c0-4,0-8,0-12"></path></g><g display="inline" fill="#E3E3E3"><path fill="none" stroke="#E3E3E3" stroke-miterlimit="10" d="M30,44.23c0-3,0-6,0-9"></path></g><g display="inline" fill="#E3E3E3"><path fill="none" stroke="#E3E3E3" stroke-miterlimit="10" d="M34,44.23c0-4,0-8,0-12"></path></g><g display="inline" fill="#E3E3E3"><path fill="none" stroke="#E3E3E3" stroke-miterlimit="10" d="M38,44.23c0-2,0-4,0-6"></path></g><g display="inline" fill="#E3E3E3"><path fill="none" stroke="#E3E3E3" stroke-width="0.5px" stroke-miterlimit="10" d="M78.25,58c0,0.227-0.511,0.424-0.536,0.645    c-0.025,0.225,0.429,0.53,0.38,0.747c-0.05,0.221-0.592,0.298-0.666,0.509c-0.075,0.213,0.3,0.612,0.203,0.813    c-0.098,0.203-0.644,0.157-0.763,0.347c-0.12,0.19,0.157,0.662,0.017,0.838c-0.14,0.175-0.662,0.01-0.821,0.168    c-0.159,0.159,0.007,0.681-0.169,0.82c-0.175,0.14-0.647-0.137-0.837-0.017c-0.189,0.119-0.144,0.665-0.347,0.763    c-0.201,0.097-0.6-0.278-0.813-0.203c-0.21,0.074-0.288,0.616-0.508,0.666c-0.217,0.049-0.522-0.405-0.747-0.38    C72.424,63.739,72.227,64.25,72,64.25c-0.227,0-0.424-0.511-0.645-0.536c-0.225-0.025-0.53,0.43-0.747,0.38    c-0.221-0.05-0.298-0.592-0.509-0.666c-0.213-0.074-0.612,0.3-0.813,0.203c-0.203-0.098-0.157-0.644-0.347-0.763    c-0.19-0.12-0.662,0.157-0.838,0.017c-0.175-0.14-0.01-0.662-0.169-0.821c-0.159-0.159-0.681,0.007-0.821-0.169    c-0.14-0.175,0.137-0.647,0.017-0.837c-0.119-0.189-0.665-0.144-0.763-0.347c-0.097-0.201,0.278-0.6,0.204-0.813    c-0.074-0.21-0.616-0.288-0.666-0.508c-0.049-0.217,0.405-0.522,0.38-0.747C66.261,58.424,65.75,58.227,65.75,58    s0.511-0.424,0.536-0.645c0.025-0.225-0.43-0.53-0.38-0.747c0.05-0.221,0.592-0.298,0.666-0.509    c0.075-0.213-0.3-0.612-0.203-0.813c0.098-0.203,0.644-0.157,0.763-0.347c0.12-0.19-0.157-0.662-0.017-0.838    c0.14-0.175,0.662-0.01,0.821-0.168c0.159-0.159-0.007-0.681,0.169-0.82c0.175-0.14,0.647,0.137,0.837,0.017    c0.189-0.119,0.144-0.665,0.347-0.763c0.201-0.097,0.6,0.278,0.813,0.203c0.21-0.074,0.288-0.615,0.508-0.666    c0.217-0.049,0.522,0.405,0.747,0.38c0.221-0.025,0.417-0.536,0.645-0.536c0.227,0,0.424,0.511,0.645,0.536    c0.225,0.025,0.53-0.43,0.747-0.38c0.221,0.05,0.298,0.592,0.509,0.666c0.213,0.074,0.612-0.3,0.813-0.203    c0.203,0.098,0.157,0.644,0.347,0.763c0.19,0.12,0.663-0.157,0.838-0.017c0.175,0.14,0.01,0.662,0.169,0.821    c0.159,0.159,0.68-0.007,0.82,0.169c0.14,0.175-0.137,0.647-0.017,0.837c0.119,0.189,0.665,0.144,0.763,0.347    c0.097,0.201-0.278,0.6-0.203,0.813c0.074,0.21,0.616,0.288,0.666,0.508c0.049,0.217-0.405,0.522-0.38,0.747    C77.739,57.576,78.25,57.773,78.25,58z"></path></g><circle display="inline" fill="none" stroke="#E3E3E3" stroke-miterlimit="10" cx="72" cy="58" r="3.429"></circle><g display="inline" fill="#E3E3E3"><path fill="none" stroke="#E3E3E3" stroke-width="0.5px" stroke-miterlimit="10" d="M67.898,40.242    c-0.073,0.275-0.602-0.181-0.863-0.068c-0.261,0.113-0.062,0.572-0.323,0.684c-0.261,0.113-0.46-0.346-0.721-0.233    c-0.262,0.113-0.064,0.572-0.326,0.686c-0.262,0.113-0.46-0.346-0.722-0.232c-0.262,0.113-0.063,0.572-0.325,0.685    c-0.259,0.112-0.458-0.347-0.717-0.234c-0.261,0.113-0.063,0.572-0.324,0.685c-0.263,0.114-0.461-0.345-0.724-0.232    c-0.262,0.113-0.064,0.572-0.326,0.686c-0.264,0.114-0.462-0.345-0.726-0.231c-0.264,0.114-0.065,0.573-0.329,0.687    c-0.265,0.115-0.463-0.344-0.728-0.23c-0.265,0.114-0.29,0.814-0.546,0.68c-0.315-0.164,0.204-0.647,0.063-0.973    c-0.141-0.326-0.6-0.127-0.741-0.453c-0.141-0.326,0.318-0.525,0.176-0.851c-0.142-0.328-0.601-0.129-0.743-0.457    c-0.142-0.327,0.317-0.526,0.176-0.853c-0.142-0.327-0.6-0.128-0.742-0.456c-0.142-0.328,0.317-0.527,0.175-0.855    c-0.142-0.328-0.601-0.129-0.743-0.457c-0.142-0.327,0.317-0.526,0.175-0.854c-0.141-0.327-0.6-0.128-0.742-0.455    c-0.142-0.329,0.317-0.527,0.174-0.856c-0.142-0.329-0.601-0.131-0.744-0.46c-0.143-0.33,0.316-0.529,0.173-0.859    c-0.143-0.33-0.849-0.278-0.757-0.625c0.073-0.275,0.602,0.181,0.863,0.068c0.261-0.113,0.062-0.572,0.323-0.685    c0.261-0.113,0.46,0.346,0.721,0.233c0.262-0.114,0.064-0.572,0.326-0.686c0.262-0.113,0.46,0.346,0.722,0.232    c0.262-0.113,0.063-0.572,0.325-0.685c0.259-0.112,0.458,0.347,0.717,0.234c0.261-0.113,0.063-0.572,0.324-0.685    c0.263-0.114,0.461,0.345,0.724,0.231c0.262-0.113,0.064-0.572,0.326-0.686c0.264-0.114,0.462,0.345,0.726,0.231    c0.264-0.114,0.065-0.573,0.329-0.687c0.265-0.115,0.463,0.344,0.728,0.23c0.265-0.115,0.29-0.814,0.546-0.68    c0.315,0.164-0.204,0.647-0.063,0.974c0.141,0.326,0.6,0.127,0.741,0.453c0.141,0.326-0.318,0.525-0.176,0.851    c0.142,0.328,0.601,0.129,0.743,0.457c0.142,0.327-0.317,0.526-0.176,0.853c0.142,0.327,0.601,0.129,0.742,0.456    c0.142,0.328-0.317,0.527-0.175,0.855c0.142,0.328,0.601,0.129,0.743,0.457c0.142,0.327-0.317,0.526-0.175,0.853    c0.141,0.327,0.6,0.128,0.742,0.455c0.142,0.329-0.317,0.527-0.174,0.856c0.142,0.329,0.601,0.131,0.744,0.46    c0.143,0.33-0.369,0.653-0.132,0.924C67.495,40.039,67.991,39.894,67.898,40.242z"></path></g><rect x="60" y="34.177" transform="matrix(0.9177 -0.3972 0.3972 0.9177 -9.666 27.6828)" display="inline" fill="none" stroke="#E3E3E3" stroke-miterlimit="10" width="4" height="6"></rect></g><g xmlns="http://www.w3.org/2000/svg" fill="#E3E3E3"><g fill="#E3E3E3"><path d="M80.309,28.445c-9.348-2.608-19.39-2.396-28.618,0.604L51,29.273l-0.691-0.225c-9.229-3-19.271-3.212-28.618-0.604    C20.182,28.865,19,30.427,19,32v36c0,1.44,1.016,2.485,2.417,2.486c0.266,0,0.539-0.039,0.812-0.115    c8.971-2.5,18.608-2.297,27.463,0.58L51,71.376l1.309-0.425c8.855-2.878,18.49-3.082,27.463-0.58    c0.272,0.076,0.545,0.115,0.811,0.115C81.984,70.486,83,69.44,83,68V32C83,30.427,81.818,28.865,80.309,28.445z M49,68.644    c-4.547-1.341-9.25-2.02-14-2.02c-4.499,0-8.977,0.612-13.309,1.821c-0.098,0.026-0.19,0.041-0.275,0.041    C21.223,68.486,21,68.431,21,68V32c0-0.674,0.585-1.449,1.228-1.629C30.966,27.935,40.34,28.062,49,30.732V68.644z M81,68    c0,0.431-0.223,0.486-0.417,0.486c-0.084,0-0.177-0.015-0.274-0.041C71.401,65.96,61.854,66.033,53,68.644V30.732    c8.659-2.67,18.032-2.798,26.772-0.361C80.415,30.551,81,31.326,81,32V68z" fill="#E3E3E3"></path><path d="M23.846,47.667L23.5,47.779v17.909l0.654-0.213c7.015-2.278,14.672-2.278,21.687,0l0.654,0.213c0,0-0.179-6.5-0.179-7.014    v-5.358c0-0.514,0.179-5.537,0.179-5.537l-0.346-0.112C38.936,45.322,31.059,45.324,23.846,47.667z M45.496,61.188l-4.865-1.201    l4.865,0.248V61.188z M45.496,51.757l-4.291,0.325l4.291-0.986V51.757z M45.496,48.508v0.601    c-0.179-0.112-0.447-0.136-0.714-0.033c0,0-10.772,2.053-10.772,3.573v6.697c0,1.193,10.772,3.863,10.772,3.863    c0.266,0.103,0.534,0.079,0.714-0.033v1.142c-3.406-1.035-6.934-1.56-10.498-1.56c-3.564,0-7.092,0.524-10.498,1.56V48.508    C31.303,46.376,38.693,46.375,45.496,48.508z" fill="#E3E3E3"></path><path d="M30.687,58.875c1.759,0,3.206-1.072,3.206-2.142c0-1.089-1.447-2.144-3.206-2.144c-1.627,0-2.687,0.551-2.687,2.144    C28,58.348,29.06,58.875,30.687,58.875z" fill="#E3E3E3"></path><rect x="25" y="32.229" width="2" height="12" fill="#E3E3E3"></rect><rect x="29.5" y="35.229" width="1" height="9" fill="#E3E3E3"></rect><rect x="33.5" y="32.229" width="1" height="12" fill="#E3E3E3"></rect><rect x="37.5" y="38.229" width="1" height="6" fill="#E3E3E3"></rect><path d="M78.136,58.529C78.307,58.393,78.5,58.237,78.5,58s-0.193-0.393-0.364-0.529c-0.06-0.049-0.145-0.133-0.173-0.124    c0.01-0.04,0.092-0.143,0.141-0.205c0.135-0.169,0.287-0.361,0.235-0.589c-0.053-0.23-0.275-0.338-0.472-0.434    c-0.07-0.034-0.186-0.091-0.198-0.081c0-0.041,0.057-0.159,0.091-0.229c0.093-0.196,0.2-0.418,0.098-0.629    c-0.102-0.213-0.343-0.268-0.556-0.316c-0.076-0.019-0.202-0.048-0.212-0.036c-0.008-0.04,0.02-0.167,0.037-0.243    c0.048-0.212,0.102-0.452-0.045-0.637c-0.146-0.183-0.392-0.184-0.609-0.185c-0.078,0-0.208,0-0.216,0.012    c-0.017-0.037-0.017-0.167-0.018-0.244c0-0.218-0.001-0.464-0.185-0.611c-0.151-0.121-0.405-0.097-0.635-0.045    c-0.083,0.019-0.17,0.038-0.209,0.059c-0.025-0.032-0.054-0.158-0.071-0.234c-0.049-0.212-0.104-0.452-0.316-0.556    c-0.183-0.086-0.422,0.001-0.628,0.098c-0.071,0.034-0.189,0.091-0.192,0.104c-0.031-0.025-0.087-0.142-0.121-0.211    c-0.095-0.196-0.204-0.419-0.435-0.473l-0.089-0.01c-0.191,0-0.348,0.125-0.5,0.246c-0.062,0.049-0.166,0.131-0.164,0.146    c-0.036-0.019-0.116-0.118-0.165-0.179C72.393,51.693,72.237,51.5,72,51.5c-0.237,0-0.393,0.193-0.529,0.364    c-0.048,0.061-0.129,0.16-0.123,0.174c-0.041-0.01-0.144-0.092-0.205-0.141c-0.152-0.121-0.31-0.246-0.5-0.246l-0.09,0.011    c-0.23,0.053-0.338,0.275-0.433,0.472c-0.034,0.069-0.09,0.186-0.081,0.197c-0.041,0-0.16-0.057-0.23-0.091    c-0.206-0.099-0.442-0.187-0.63-0.098c-0.211,0.103-0.267,0.344-0.315,0.556c-0.018,0.075-0.046,0.201-0.054,0.213    c-0.055,0-0.142-0.02-0.226-0.039c-0.232-0.052-0.485-0.077-0.636,0.045c-0.184,0.147-0.184,0.394-0.185,0.611    c0,0.078,0,0.208,0.012,0.216c-0.038,0.017-0.167,0.017-0.246,0.018c-0.217,0-0.464,0-0.611,0.184    c-0.146,0.184-0.092,0.424-0.045,0.636c0.017,0.076,0.046,0.204,0.06,0.209c-0.033,0.024-0.159,0.054-0.234,0.071    c-0.212,0.049-0.454,0.104-0.556,0.316c-0.102,0.211,0.004,0.433,0.098,0.629c0.034,0.07,0.09,0.188,0.104,0.19    c-0.026,0.031-0.143,0.088-0.212,0.121c-0.197,0.096-0.42,0.204-0.472,0.435c-0.052,0.228,0.101,0.42,0.235,0.589    c0.049,0.062,0.131,0.165,0.146,0.165c-0.018,0.035-0.118,0.116-0.178,0.164C65.693,57.607,65.5,57.763,65.5,58    s0.193,0.393,0.364,0.529c0.06,0.049,0.159,0.145,0.173,0.124c-0.01,0.04-0.092,0.143-0.141,0.205    c-0.135,0.169-0.287,0.361-0.235,0.589c0.053,0.23,0.275,0.338,0.472,0.434c0.07,0.033,0.187,0.094,0.198,0.081    c0,0.041-0.057,0.159-0.091,0.229c-0.093,0.196-0.2,0.418-0.098,0.629c0.102,0.213,0.343,0.268,0.556,0.316    c0.077,0.019,0.201,0.049,0.212,0.036c0.008,0.04-0.02,0.167-0.037,0.243c-0.048,0.212-0.102,0.452,0.045,0.637    c0.146,0.183,0.392,0.184,0.609,0.185c0.077,0,0.208-0.001,0.216-0.012c0.017,0.037,0.017,0.167,0.018,0.244    c0,0.218,0.001,0.464,0.185,0.611c0.151,0.121,0.405,0.097,0.635,0.045c0.083-0.019,0.17-0.038,0.209-0.059    c0.025,0.032,0.054,0.158,0.071,0.234c0.049,0.212,0.104,0.452,0.316,0.556c0.184,0.087,0.423,0,0.628-0.098    c0.071-0.034,0.189-0.091,0.192-0.104c0.031,0.025,0.087,0.142,0.121,0.211c0.095,0.196,0.204,0.419,0.435,0.473l0.089,0.01    c0.191,0,0.348-0.125,0.5-0.246c0.062-0.049,0.166-0.131,0.164-0.146c0.036,0.019,0.116,0.118,0.165,0.179    C71.607,64.307,71.763,64.5,72,64.5c0.237,0,0.393-0.193,0.529-0.364c0.048-0.061,0.129-0.16,0.123-0.174    c0.041,0.01,0.144,0.092,0.205,0.141c0.152,0.121,0.31,0.246,0.501,0.246l0.09-0.011c0.23-0.053,0.338-0.275,0.433-0.472    c0.034-0.069,0.09-0.186,0.081-0.197c0.041,0,0.16,0.057,0.23,0.091c0.206,0.098,0.442,0.187,0.63,0.098    c0.211-0.103,0.267-0.344,0.315-0.556c0.018-0.075,0.046-0.201,0.054-0.213c0.055,0,0.142,0.02,0.226,0.039    c0.23,0.051,0.485,0.075,0.636-0.045c0.184-0.147,0.184-0.394,0.185-0.611c0-0.078,0-0.208-0.012-0.216    c0.038-0.017,0.167-0.017,0.246-0.018c0.217,0,0.464,0,0.611-0.184c0.146-0.184,0.092-0.424,0.045-0.636    c-0.017-0.076-0.046-0.204-0.06-0.209c0.033-0.024,0.159-0.054,0.234-0.071c0.212-0.049,0.454-0.104,0.556-0.316    c0.102-0.211-0.004-0.433-0.098-0.629c-0.034-0.07-0.09-0.188-0.104-0.19c0.026-0.031,0.143-0.088,0.212-0.121    c0.197-0.096,0.42-0.204,0.472-0.435c0.052-0.228-0.101-0.42-0.235-0.589c-0.049-0.062-0.131-0.165-0.146-0.165    C77.976,58.658,78.076,58.577,78.136,58.529z M77.823,58.14c-0.156,0.125-0.333,0.268-0.357,0.477    c-0.024,0.214,0.119,0.394,0.246,0.553c0.037,0.046,0.092,0.116,0.121,0.164c-0.047,0.032-0.13,0.072-0.184,0.099    c-0.181,0.088-0.386,0.188-0.456,0.388c-0.07,0.201,0.028,0.407,0.115,0.59c0.026,0.054,0.064,0.135,0.082,0.188    c-0.053,0.021-0.142,0.041-0.2,0.054c-0.196,0.045-0.419,0.097-0.532,0.276c-0.113,0.18-0.063,0.403-0.019,0.601    c0.013,0.058,0.033,0.146,0.038,0.202c-0.245,0.035-0.592-0.035-0.788,0.159c-0.15,0.15-0.15,0.379-0.151,0.581    c0,0.077,0,0.207,0.014,0.207c-0.055,0-0.141-0.02-0.224-0.038c-0.214-0.047-0.45-0.077-0.602,0.019    c-0.179,0.113-0.23,0.336-0.275,0.532c-0.013,0.059-0.034,0.147-0.054,0.2c-0.054-0.018-0.135-0.057-0.188-0.082    c-0.191-0.091-0.404-0.182-0.592-0.115c-0.199,0.07-0.298,0.274-0.385,0.455c-0.026,0.054-0.066,0.137-0.098,0.184    c-0.048-0.028-0.119-0.084-0.165-0.121c-0.152-0.121-0.309-0.245-0.545-0.245c-0.002,0-0.005,0-0.007,0    c-0.208,0.023-0.351,0.201-0.476,0.356c-0.039,0.049-0.098,0.122-0.14,0.161c-0.042-0.039-0.101-0.112-0.14-0.161    c-0.125-0.156-0.268-0.333-0.523-0.359c-0.193,0-0.353,0.126-0.506,0.248c-0.046,0.037-0.117,0.093-0.165,0.121    c-0.031-0.047-0.071-0.129-0.098-0.184c-0.088-0.181-0.188-0.387-0.386-0.455c-0.182-0.065-0.4,0.022-0.592,0.114    c-0.054,0.026-0.134,0.064-0.188,0.082c-0.021-0.053-0.041-0.142-0.054-0.2c-0.045-0.196-0.097-0.419-0.276-0.532    c-0.152-0.096-0.388-0.068-0.601-0.019c-0.068,0.015-0.139,0.03-0.203,0.035c-0.008-0.056-0.008-0.146-0.008-0.205    c0-0.202-0.001-0.431-0.151-0.579c-0.195-0.196-0.543-0.127-0.788-0.161c0.005-0.056,0.025-0.145,0.038-0.202    c0.044-0.197,0.094-0.421-0.019-0.601c-0.113-0.18-0.335-0.231-0.532-0.276c-0.059-0.013-0.147-0.033-0.2-0.054    c0.017-0.054,0.056-0.135,0.082-0.188c0.087-0.183,0.186-0.389,0.116-0.591c-0.07-0.199-0.275-0.298-0.456-0.386    c-0.054-0.026-0.137-0.066-0.184-0.098c0.028-0.048,0.084-0.118,0.121-0.164c0.126-0.159,0.27-0.339,0.246-0.552    c-0.023-0.21-0.201-0.353-0.357-0.478c-0.062-0.05-0.159-0.128-0.183-0.11c0.019-0.037,0.121-0.119,0.183-0.169    c0.156-0.125,0.333-0.268,0.357-0.477c0.024-0.214-0.119-0.394-0.246-0.553c-0.037-0.046-0.092-0.116-0.121-0.164    c0.047-0.032,0.13-0.072,0.184-0.099c0.181-0.088,0.386-0.188,0.456-0.388c0.07-0.201-0.028-0.407-0.115-0.59    c-0.026-0.054-0.064-0.135-0.082-0.188c0.053-0.021,0.142-0.041,0.2-0.054c0.196-0.045,0.419-0.097,0.532-0.276    c0.113-0.18,0.063-0.403,0.019-0.601c-0.013-0.058-0.033-0.146-0.038-0.202c0.245-0.032,0.592,0.036,0.788-0.159    c0.15-0.15,0.15-0.379,0.151-0.581c0-0.077,0-0.207-0.014-0.207c0.055,0,0.141,0.02,0.224,0.038    c0.214,0.047,0.449,0.077,0.602-0.019c0.179-0.113,0.23-0.336,0.275-0.532c0.013-0.059,0.034-0.147,0.054-0.2    c0.054,0.018,0.135,0.057,0.188,0.082c0.191,0.091,0.406,0.184,0.592,0.115c0.199-0.07,0.298-0.274,0.385-0.455    c0.026-0.054,0.066-0.137,0.098-0.184c0.048,0.028,0.119,0.084,0.165,0.121c0.153,0.123,0.342,0.247,0.552,0.245    c0.208-0.023,0.351-0.201,0.476-0.356c0.049-0.062,0.132-0.165,0.11-0.183c0.037,0.018,0.12,0.121,0.169,0.183    c0.125,0.156,0.268,0.333,0.523,0.359c0.193,0,0.353-0.126,0.506-0.248c0.046-0.037,0.117-0.093,0.165-0.121    c0.031,0.047,0.071,0.129,0.098,0.184c0.088,0.181,0.188,0.387,0.386,0.455c0.183,0.065,0.4-0.022,0.592-0.114    c0.053-0.026,0.134-0.064,0.188-0.082c0.021,0.053,0.041,0.142,0.054,0.2c0.045,0.196,0.097,0.419,0.276,0.532    c0.151,0.095,0.387,0.066,0.601,0.019c0.068-0.015,0.139-0.03,0.203-0.035c0.008,0.056,0.008,0.146,0.008,0.205    c0,0.202,0.001,0.431,0.151,0.579c0.194,0.195,0.542,0.126,0.788,0.161c-0.005,0.056-0.025,0.145-0.038,0.202    c-0.044,0.197-0.094,0.421,0.019,0.601c0.113,0.18,0.335,0.231,0.532,0.276c0.059,0.013,0.147,0.033,0.2,0.054    c-0.017,0.054-0.056,0.135-0.082,0.188c-0.087,0.183-0.186,0.389-0.116,0.591c0.07,0.199,0.275,0.298,0.456,0.386    c0.054,0.026,0.137,0.066,0.184,0.098c-0.028,0.048-0.084,0.118-0.121,0.164c-0.126,0.159-0.27,0.339-0.246,0.552    c0.023,0.21,0.201,0.353,0.357,0.478c0.061,0.049,0.158,0.13,0.183,0.11C77.987,58.008,77.884,58.09,77.823,58.14z" fill="#E3E3E3"></path><path d="M72,54.071c-2.167,0-3.929,1.763-3.929,3.929s1.762,3.929,3.929,3.929s3.929-1.763,3.929-3.929S74.167,54.071,72,54.071z     M72,60.929c-1.615,0-2.929-1.313-2.929-2.929s1.314-2.929,2.929-2.929s2.929,1.313,2.929,2.929S73.615,60.929,72,60.929z" fill="#E3E3E3"></path><path d="M65.765,41.541c0.264-0.114,0.294-0.384,0.312-0.544c0.006-0.05,0.015-0.132-0.005-0.14    c0.025,0.006,0.091,0.055,0.13,0.085c0.147,0.11,0.38,0.243,0.61,0.146c0.264-0.114,0.293-0.384,0.311-0.545    c0.005-0.049,0.014-0.131,0.012-0.138c0.061,0,0.175,0.044,0.267,0.079c0.321,0.123,0.662,0.11,0.738-0.178    c0.111-0.419-0.258-0.541-0.416-0.594c-0.126-0.042-0.258-0.086-0.355-0.193c-0.001-0.031,0.048-0.127,0.077-0.184    c0.09-0.174,0.213-0.411,0.098-0.678c-0.123-0.282-0.378-0.338-0.548-0.374c-0.146-0.032-0.179-0.046-0.196-0.086    c-0.017-0.038-0.004-0.071,0.072-0.199c0.089-0.148,0.225-0.373,0.103-0.656c-0.122-0.281-0.378-0.336-0.548-0.372    c-0.145-0.031-0.177-0.045-0.193-0.083c-0.017-0.037-0.004-0.071,0.072-0.198c0.09-0.148,0.225-0.373,0.103-0.655    c-0.122-0.281-0.378-0.336-0.547-0.373c-0.146-0.031-0.178-0.045-0.195-0.084c-0.017-0.038-0.004-0.071,0.072-0.199    c0.089-0.148,0.224-0.373,0.103-0.655c-0.122-0.281-0.378-0.337-0.548-0.373c-0.145-0.031-0.178-0.045-0.194-0.083    c-0.017-0.037-0.004-0.07,0.072-0.197c0.09-0.148,0.226-0.373,0.104-0.655s-0.379-0.337-0.549-0.374    c-0.145-0.031-0.178-0.045-0.194-0.083c-0.017-0.037-0.004-0.07,0.073-0.197c0.089-0.148,0.225-0.373,0.104-0.654    c-0.122-0.281-0.378-0.336-0.548-0.371c-0.144-0.031-0.176-0.045-0.192-0.082c-0.023-0.054,0.039-0.207,0.08-0.309    c0.078-0.192,0.24-0.594-0.131-0.787c-0.058-0.03-0.117-0.045-0.177-0.045c-0.269,0-0.374,0.258-0.458,0.466    c-0.033,0.079-0.093,0.227-0.108,0.25c-0.025-0.005-0.092-0.055-0.132-0.084c-0.148-0.111-0.381-0.242-0.613-0.145    c-0.264,0.114-0.295,0.384-0.313,0.545c-0.005,0.05-0.015,0.132,0.002,0.141c-0.025-0.005-0.092-0.055-0.131-0.084    c-0.148-0.111-0.382-0.241-0.612-0.145c-0.265,0.114-0.294,0.384-0.312,0.545c-0.006,0.049-0.015,0.131,0.004,0.139    c-0.025-0.005-0.092-0.055-0.131-0.084c-0.147-0.111-0.38-0.245-0.611-0.146c-0.264,0.114-0.293,0.384-0.311,0.545    c-0.005,0.049-0.015,0.131,0.009,0.138c-0.025-0.005-0.091-0.055-0.13-0.085c-0.147-0.11-0.378-0.245-0.609-0.147    c-0.264,0.114-0.294,0.384-0.312,0.545c-0.005,0.049-0.015,0.131,0.006,0.139c-0.025-0.006-0.091-0.055-0.131-0.085    c-0.148-0.111-0.381-0.243-0.611-0.146c-0.263,0.115-0.293,0.385-0.311,0.545c-0.006,0.05-0.015,0.132,0.005,0.14    c-0.025-0.006-0.091-0.055-0.13-0.085c-0.147-0.11-0.378-0.245-0.61-0.146c-0.264,0.114-0.293,0.384-0.31,0.545    c-0.005,0.049-0.014,0.131-0.012,0.138c-0.061,0-0.175-0.044-0.267-0.079c-0.131-0.05-0.254-0.097-0.376-0.097    c-0.178,0-0.317,0.105-0.362,0.275c-0.108,0.404,0.279,0.554,0.487,0.634c0.103,0.04,0.258,0.1,0.282,0.155    c0.017,0.039,0.005,0.073-0.072,0.201c-0.089,0.149-0.224,0.374-0.102,0.657c0.123,0.282,0.378,0.338,0.548,0.375    c0.146,0.031,0.179,0.046,0.195,0.085c0.017,0.038,0.004,0.072-0.072,0.199c-0.089,0.149-0.224,0.374-0.102,0.656    c0.122,0.281,0.378,0.337,0.548,0.373c0.145,0.03,0.177,0.045,0.193,0.081c0.017,0.039,0.004,0.072-0.072,0.199    c-0.09,0.148-0.225,0.373-0.103,0.654c0.122,0.283,0.378,0.338,0.548,0.374c0.145,0.031,0.177,0.045,0.194,0.084    c0.017,0.038,0.004,0.071-0.072,0.199c-0.089,0.148-0.225,0.373-0.103,0.656c0.122,0.281,0.379,0.336,0.548,0.372    c0.145,0.031,0.178,0.045,0.194,0.083c0.017,0.037,0.004,0.071-0.072,0.198c-0.09,0.148-0.226,0.373-0.104,0.655    c0.123,0.281,0.378,0.336,0.548,0.373c0.146,0.031,0.178,0.045,0.195,0.084c0.016,0.037,0.004,0.07-0.072,0.196    c-0.09,0.148-0.226,0.372-0.104,0.654c0.122,0.281,0.378,0.336,0.548,0.372c0.143,0.03,0.177,0.045,0.192,0.081    c0.023,0.054-0.039,0.207-0.08,0.31c-0.078,0.192-0.24,0.593,0.131,0.786c0.058,0.03,0.117,0.045,0.177,0.045    c0.269,0,0.374-0.258,0.458-0.465c0.032-0.079,0.092-0.227,0.109-0.25c0.025,0.005,0.092,0.054,0.132,0.084    c0.148,0.109,0.379,0.242,0.612,0.144c0.264-0.114,0.295-0.384,0.313-0.545c0.005-0.05,0.015-0.132-0.002-0.141    c0.025,0.005,0.092,0.055,0.131,0.084c0.149,0.11,0.383,0.242,0.612,0.145c0.265-0.114,0.294-0.384,0.312-0.545    c0.006-0.049,0.015-0.131-0.005-0.139c0.025,0.005,0.092,0.055,0.131,0.085c0.149,0.11,0.385,0.241,0.611,0.145    c0.264-0.114,0.293-0.384,0.311-0.544c0.005-0.05,0.014-0.131-0.008-0.139c0.025,0.006,0.09,0.056,0.129,0.085    c0.147,0.111,0.382,0.245,0.609,0.147c0.264-0.114,0.294-0.384,0.312-0.545c0.005-0.049,0.015-0.131-0.006-0.139    c0.025,0.006,0.091,0.055,0.131,0.085C65.302,41.506,65.538,41.638,65.765,41.541z M64.845,40.85    c-0.264,0.114-0.294,0.384-0.312,0.545c-0.005,0.049-0.015,0.131,0.008,0.139c-0.025-0.006-0.09-0.056-0.13-0.085    c-0.147-0.112-0.382-0.246-0.609-0.147c-0.264,0.114-0.293,0.384-0.311,0.544c-0.005,0.05-0.014,0.131,0.005,0.139    c-0.025-0.005-0.092-0.055-0.131-0.084c-0.147-0.111-0.382-0.245-0.61-0.146c-0.265,0.114-0.294,0.384-0.312,0.545    c-0.006,0.049-0.015,0.131,0.003,0.139c-0.025-0.005-0.092-0.055-0.131-0.084c-0.149-0.111-0.381-0.242-0.612-0.145    c-0.264,0.114-0.295,0.384-0.313,0.545c-0.005,0.05-0.015,0.132,0.001,0.141c-0.025-0.005-0.092-0.055-0.132-0.084    c-0.109-0.081-0.246-0.183-0.426-0.183c-0.064,0-0.127,0.013-0.187,0.039c-0.04,0.018-0.076,0.04-0.109,0.066    c0-0.076-0.013-0.153-0.046-0.23c-0.122-0.28-0.378-0.335-0.547-0.371c-0.143-0.03-0.177-0.045-0.193-0.082    s-0.004-0.069,0.073-0.196c0.09-0.148,0.226-0.373,0.104-0.653c-0.122-0.283-0.378-0.338-0.548-0.375    c-0.146-0.031-0.178-0.045-0.194-0.083c-0.017-0.037-0.004-0.071,0.072-0.198c0.09-0.148,0.226-0.373,0.104-0.655    c-0.122-0.281-0.379-0.336-0.548-0.372c-0.145-0.031-0.178-0.045-0.194-0.082c-0.017-0.039-0.004-0.073,0.072-0.201    c0.089-0.148,0.225-0.373,0.103-0.654c-0.122-0.283-0.378-0.338-0.548-0.374c-0.145-0.031-0.177-0.045-0.194-0.084    c-0.017-0.038-0.004-0.071,0.072-0.197c0.089-0.149,0.225-0.374,0.103-0.656c-0.122-0.281-0.378-0.336-0.548-0.372    c-0.145-0.031-0.178-0.045-0.194-0.083c-0.017-0.038-0.004-0.071,0.072-0.199c0.089-0.149,0.224-0.374,0.102-0.656    c-0.123-0.282-0.378-0.338-0.548-0.375c-0.146-0.031-0.179-0.046-0.195-0.085c-0.017-0.039-0.005-0.073,0.072-0.201    c0.089-0.149,0.224-0.374,0.102-0.657c-0.035-0.079-0.083-0.143-0.141-0.195c0.042-0.007,0.081-0.018,0.117-0.033    c0.264-0.113,0.293-0.384,0.311-0.545c0.005-0.049,0.014-0.131-0.008-0.138c0.025,0.006,0.091,0.056,0.131,0.085    c0.147,0.111,0.384,0.243,0.61,0.146c0.265-0.114,0.295-0.384,0.312-0.545c0.006-0.05,0.015-0.132-0.005-0.14    c0.025,0.006,0.091,0.055,0.131,0.085c0.148,0.111,0.384,0.243,0.61,0.146c0.264-0.114,0.294-0.384,0.312-0.545    c0.005-0.049,0.015-0.131-0.008-0.138c0.025,0.005,0.091,0.055,0.13,0.085c0.148,0.111,0.378,0.246,0.609,0.147    c0.264-0.114,0.293-0.384,0.311-0.545c0.005-0.049,0.015-0.131-0.006-0.139c0.025,0.005,0.092,0.055,0.131,0.085    c0.148,0.11,0.386,0.243,0.611,0.145c0.265-0.114,0.294-0.384,0.312-0.545c0.006-0.049,0.015-0.131-0.003-0.139    c0.025,0.005,0.092,0.055,0.131,0.084c0.148,0.111,0.382,0.243,0.612,0.145c0.264-0.114,0.295-0.384,0.313-0.545    c0.005-0.05,0.015-0.132-0.001-0.141c0.025,0.005,0.092,0.055,0.132,0.084c0.148,0.111,0.38,0.242,0.613,0.145    c0.04-0.018,0.076-0.04,0.108-0.066c0,0.076,0.013,0.152,0.046,0.229c0.122,0.282,0.378,0.337,0.548,0.372    c0.145,0.031,0.177,0.045,0.193,0.082s0.004,0.069-0.073,0.196c-0.09,0.148-0.226,0.373-0.104,0.655    c0.122,0.281,0.378,0.336,0.548,0.373c0.146,0.031,0.178,0.045,0.195,0.084c0.017,0.037,0.004,0.07-0.072,0.197    c-0.09,0.148-0.226,0.373-0.104,0.655c0.122,0.281,0.378,0.337,0.548,0.373c0.145,0.031,0.178,0.045,0.194,0.082    c0.017,0.039,0.004,0.072-0.072,0.199c-0.089,0.149-0.225,0.374-0.103,0.655c0.122,0.283,0.378,0.338,0.548,0.375    c0.145,0.031,0.178,0.045,0.194,0.083c0.017,0.038,0.004,0.071-0.072,0.198c-0.089,0.148-0.225,0.373-0.103,0.655    c0.122,0.281,0.378,0.336,0.548,0.372c0.145,0.031,0.177,0.045,0.193,0.082c0.017,0.039,0.005,0.073-0.072,0.201    c-0.089,0.148-0.224,0.373-0.102,0.655s0.379,0.338,0.549,0.375c0.146,0.031,0.178,0.046,0.195,0.085    c0.021,0.048-0.032,0.15-0.083,0.248c-0.091,0.177-0.244,0.471-0.008,0.74c0.02,0.023,0.041,0.045,0.062,0.065    c-0.042,0.006-0.083,0.017-0.121,0.033c-0.264,0.114-0.293,0.384-0.311,0.545c-0.005,0.049-0.014,0.131,0.007,0.138    c-0.025-0.006-0.091-0.055-0.13-0.085c-0.148-0.111-0.384-0.245-0.609-0.146c-0.265,0.114-0.295,0.384-0.312,0.545    c-0.005,0.049-0.015,0.131,0.005,0.139c-0.025-0.006-0.091-0.055-0.131-0.085C65.307,40.885,65.071,40.753,64.845,40.85z" fill="#E3E3E3"></path><path d="M62.904,32.973l-4.588,1.985l2.78,6.424l4.589-1.984L62.904,32.973z M59.63,35.479l2.753-1.192l1.986,4.589l-2.753,1.191    L59.63,35.479z" fill="#E3E3E3"></path></g></g></g><g id="SvgjsG1022" featurekey="PPkF4s-0" transform="matrix(2.69770298428453,0,0,2.69770298428453,-4.208413285207502,104.83520912796389)" fill="#F6F5F5"><path d="M1.56 20 l0 -14.62 l6.5 0 q1.56 0 2.76 0.64 t1.86 1.8 t0.66 2.64 q0 1.58 -0.8 2.82 t-2.18 1.82 q1.42 1.8 3.78 4.9 l-3.78 0 q-1.28 -1.6 -3.5 -4.56 l-2.16 0 l0 4.56 l-3.14 0 z M8.06 12.7 q0.82 0 1.48 -0.59 t0.66 -1.65 q0 -0.86 -0.46 -1.6 t-1.68 -0.74 l-3.36 0 l0 4.58 l3.36 0 z M17.990000000000002 19.49 q-1.37 -0.77 -2.17 -2.09 t-0.8 -2.88 q0 -1.54 0.8 -2.86 t2.17 -2.09 t2.99 -0.77 t3 0.77 t2.19 2.09 t0.81 2.86 q0 1.56 -0.81 2.88 t-2.19 2.09 t-3 0.77 t-2.99 -0.77 z M19.46 11.83 q-0.7 0.41 -1.1 1.12 t-0.4 1.57 q0 0.9 0.39 1.61 t1.08 1.12 t1.55 0.41 q0.84 0 1.53 -0.41 t1.09 -1.13 t0.4 -1.6 q0 -0.86 -0.4 -1.57 t-1.09 -1.12 t-1.53 -0.41 q-0.82 0 -1.52 0.41 z M31.869999999999997 19.49 q-1.37 -0.77 -2.17 -2.09 t-0.8 -2.88 q0 -1.54 0.8 -2.86 t2.17 -2.09 t2.99 -0.77 t3 0.77 t2.19 2.09 t0.81 2.86 q0 1.56 -0.81 2.88 t-2.19 2.09 t-3 0.77 t-2.99 -0.77 z M33.339999999999996 11.83 q-0.7 0.41 -1.1 1.12 t-0.4 1.57 q0 0.9 0.39 1.61 t1.08 1.12 t1.55 0.41 q0.84 0 1.53 -0.41 t1.09 -1.13 t0.4 -1.6 q0 -0.86 -0.4 -1.57 t-1.09 -1.12 t-1.53 -0.41 q-0.82 0 -1.52 0.41 z M59.71 10.04 q1.13 1.24 1.13 3.46 l0 6.5 l-3.02 0 l0 -6.5 q0 -1.18 -0.59 -1.7 t-1.55 -0.52 q-0.8 0 -1.44 0.6 t-0.66 2 l0 6.12 l-3.02 0 l0 -6.5 q0 -1.18 -0.59 -1.7 t-1.53 -0.52 q-0.86 0 -1.49 0.64 t-0.63 2.26 l-0.02 5.82 l-2.98 0 l0 -11 l2.98 0 l0 1 q0.58 -0.52 1.4 -0.86 t1.5 -0.34 q2.32 0 3.54 1.5 q0.62 -0.7 1.54 -1.1 t2 -0.4 q2.3 0 3.43 1.24 z M64.12 20 l0 -14.62 l6.5 0 q1.56 0 2.76 0.64 t1.86 1.8 t0.66 2.64 q0 1.58 -0.8 2.82 t-2.18 1.82 q1.42 1.8 3.78 4.9 l-3.78 0 q-1.28 -1.6 -3.5 -4.56 l-2.16 0 l0 4.56 l-3.14 0 z M70.62 12.7 q0.82 0 1.48 -0.59 t0.66 -1.65 q0 -0.86 -0.46 -1.6 t-1.68 -0.74 l-3.36 0 l0 4.58 l3.36 0 z M80.91 19.74 q-1.37 -0.54 -2.35 -1.83 t-0.98 -3.37 t0.99 -3.36 t2.37 -1.82 t2.62 -0.54 q1.44 0 2.74 0.64 t2.13 1.88 t0.87 2.94 q0 0.52 -0.02 0.9 t-0.04 0.48 l-8.68 0 q0.24 1.16 1.2 1.58 t1.8 0.42 q1.08 0 1.72 -0.39 t1.1 -0.89 l2.32 1.34 q-1.88 2.56 -5.14 2.56 q-1.28 0 -2.65 -0.54 z M81.52 12.05 q-0.78 0.61 -0.88 1.49 l5.5 0 q-0.06 -0.52 -0.4 -1 t-0.91 -0.79 t-1.29 -0.31 q-1.24 0 -2.02 0.61 z M100.06 18.9 q-0.38 0.52 -1.31 0.93 t-2.03 0.41 q-1.7 0 -2.95 -0.76 t-1.91 -2.07 t-0.66 -2.91 t0.66 -2.91 t1.91 -2.07 t2.95 -0.76 q1.14 0 2.01 0.39 t1.33 0.99 l0 -1.14 l2.96 0 l0 11 l-2.96 0 l0 -1.1 z M99.36 12.25 q-0.82 -0.87 -2.2 -0.87 q-1.4 0 -2.21 0.87 t-0.81 2.25 q0 1.34 0.83 2.22 t2.19 0.88 q1.4 0 2.21 -0.83 t0.81 -2.27 q0 -1.38 -0.82 -2.25 z M114.32000000000001 18.9 q-0.38 0.52 -1.31 0.93 t-2.03 0.41 q-1.7 0 -2.95 -0.76 t-1.91 -2.07 t-0.66 -2.91 t0.66 -2.91 t1.91 -2.07 t2.95 -0.76 q1.14 0 2.01 0.39 t1.33 0.99 l0 -5.26 l2.96 0 l0 15.12 l-2.96 0 l0 -1.1 z M113.62 12.25 q-0.82 -0.87 -2.2 -0.87 q-1.4 0 -2.21 0.87 t-0.81 2.25 q0 1.34 0.83 2.22 t2.19 0.88 q1.4 0 2.21 -0.83 t0.81 -2.27 q0 -1.38 -0.82 -2.25 z M121.86000000000001 24.12 l1.9 -4.52 l-4.72 -10.56 l3.46 0 l2.78 7 l2.56 -7 l3.46 0 l-6.14 15.08 l-3.3 0 z" fill="#F6F5F5"></path></g><g id="SvgjsG1023" featurekey="uwAHB0-0" transform="matrix(0.37059000822605254,0,0,0.37059000822605254,34.2810554070139,177.969240789798)" fill="#E3E3E3"><path d="M3.26 5.84 l0 14.16 l-1.32 0 l0 -14.16 l1.32 0 z M19.508 5.84 l8.62 12.4 l0.04 0 l0 -12.4 l1.32 0 l0 14.16 l-1.7 0 l-8.62 -12.4 l-0.04 0 l0 12.4 l-1.32 0 l0 -14.16 l1.7 0 z M48.07600000000001 5.48 q2.46 0 3.86 1.78 l-1.14 0.82 q-1.04 -1.4 -2.76 -1.4 q-1.4 0 -2.27 0.72 t-0.91 1.96 q0 1.08 0.66 1.75 t2.3 1.13 q2.16 0.64 2.88 1.13 t1.09 1.21 t0.37 1.8 q0 1.72 -1.23 2.83 t-3.17 1.15 q-3.06 0 -4.6 -2.14 l1.26 -0.84 q1.06 1.76 3.24 1.78 q1.42 0 2.3 -0.79 t0.88 -1.99 q0 -0.7 -0.25 -1.15 t-0.76 -0.78 t-1.3 -0.6 t-1.85 -0.63 q-1.6 -0.52 -2.37 -1.46 t-0.77 -2.4 q0 -1.72 1.29 -2.8 t3.25 -1.08 z M75.124 5.84 l0 1.2 l-4.84 0 l0 12.96 l-1.32 0 l0 -12.96 l-4.84 0 l0 -1.2 l11 0 z M89.63199999999999 15.04 l6.5 0 l-3.2 -7.76 z M93.672 5.84 l5.96 14.16 l-1.48 0 l-1.54 -3.76 l-7.5 0 l-1.6 3.76 l-1.38 0 l6.18 -14.16 l1.36 0 z M114.04 5.84 l8.62 12.4 l0.04 0 l0 -12.4 l1.32 0 l0 14.16 l-1.7 0 l-8.62 -12.4 l-0.04 0 l0 12.4 l-1.32 0 l0 -14.16 l1.7 0 z M147.86800000000002 5.84 l0 1.2 l-4.84 0 l0 12.96 l-1.32 0 l0 -12.96 l-4.84 0 l0 -1.2 l11 0 z M181.024 18.8 q1.7 0 2.6 -0.73 t0.9 -1.99 q0 -1.36 -0.93 -2.14 t-2.43 -0.78 l-3.26 0 l0 5.64 l3.12 0 z M180.72400000000002 11.96 q1.44 0 2.31 -0.62 t0.87 -1.76 q0 -2.48 -3 -2.54 l-3 0 l0 4.92 l2.82 0 z M180.764 5.84 q2.22 0 3.33 0.9 t1.13 2.84 q0 1.12 -0.66 1.91 t-1.88 1.03 l0 0.04 q1.38 0.08 2.26 1.04 t0.9 2.44 q0 1.88 -1.25 2.91 t-3.45 1.05 l-4.56 0 l0 -14.16 l4.18 0 z M200.252 12.92 q0 2.7 1.66 4.45 t4.34 1.79 q2.7 0 4.34 -1.77 t1.66 -4.47 q0 -2.74 -1.64 -4.47 t-4.38 -1.77 q-2.68 0 -4.32 1.76 t-1.66 4.48 z M206.252 5.48 q2.16 0 3.82 0.95 t2.57 2.66 t0.93 3.83 q0 3.26 -2.06 5.33 t-5.26 2.11 q-3.22 0 -5.24 -2.09 t-2.08 -5.35 q0.02 -3.26 2.04 -5.32 t5.28 -2.12 z M227.6 12.92 q0 2.7 1.66 4.45 t4.34 1.79 q2.7 0 4.34 -1.77 t1.66 -4.47 q0 -2.74 -1.64 -4.47 t-4.38 -1.77 q-2.68 0 -4.32 1.76 t-1.66 4.48 z M233.6 5.48 q2.16 0 3.82 0.95 t2.57 2.66 t0.93 3.83 q0 3.26 -2.06 5.33 t-5.26 2.11 q-3.22 0 -5.24 -2.09 t-2.08 -5.35 q0.02 -3.26 2.04 -5.32 t5.28 -2.12 z M255.868 5.84 l0 6.24 l0.12 0 l6.86 -6.24 l1.82 0 l-7.16 6.48 l7.56 7.68 l-1.9 0 l-7.18 -7.32 l-0.12 0 l0 7.32 l-1.32 0 l0 -14.16 l1.32 0 z M278.756 5.84 l0 14.16 l-1.32 0 l0 -14.16 l1.32 0 z M295.00399999999996 5.84 l8.62 12.4 l0.04 0 l0 -12.4 l1.32 0 l0 14.16 l-1.7 0 l-8.62 -12.4 l-0.04 0 l0 12.4 l-1.32 0 l0 -14.16 l1.7 0 z M325.93199999999996 5.48 q3.2 -0.02 5.1 1.96 l-0.96 1 q-0.6 -0.74 -1.77 -1.25 t-2.37 -0.51 q-2.66 0 -4.32 1.76 t-1.68 4.48 q0 2.7 1.64 4.44 t4.38 1.8 q2.6 0 3.94 -0.84 l0 -4.76 l-3.4 0 l0 -1.2 l4.72 0 l0 6.72 q-2.3 1.28 -5.28 1.28 q-3.2 0 -5.23 -2.09 t-2.09 -5.35 q0.02 -3.28 2.06 -5.34 t5.26 -2.1 z M349.8 5.48 q2.46 0 3.86 1.78 l-1.14 0.82 q-1.04 -1.4 -2.76 -1.4 q-1.4 0 -2.27 0.72 t-0.91 1.96 q0 1.08 0.66 1.75 t2.3 1.13 q2.16 0.64 2.88 1.13 t1.09 1.21 t0.37 1.8 q0 1.72 -1.23 2.83 t-3.17 1.15 q-3.06 0 -4.6 -2.14 l1.26 -0.84 q1.06 1.76 3.24 1.78 q1.42 0 2.3 -0.79 t0.88 -1.99 q0 -0.7 -0.25 -1.15 t-0.76 -0.78 t-1.3 -0.6 t-1.85 -0.63 q-1.6 -0.52 -2.37 -1.46 t-0.77 -2.4 q0 -1.72 1.29 -2.8 t3.25 -1.08 z M369.32800000000003 18.2 l-1.54 4.56 l-1.18 0 l1.32 -4.56 l1.4 0 z M400.604 5.84 l0 14.16 l-1.32 0 l0 -14.16 l1.32 0 z M416.852 5.84 l8.62 12.4 l0.04 0 l0 -12.4 l1.32 0 l0 14.16 l-1.7 0 l-8.62 -12.4 l-0.04 0 l0 12.4 l-1.32 0 l0 -14.16 l1.7 0 z M449.86 5.84 l0 1.2 l-7.16 0 l0 5.04 l6.66 0 l0 1.2 l-6.66 0 l0 6.72 l-1.32 0 l0 -14.16 l8.48 0 z M464.488 5.84 l0 14.16 l-1.32 0 l0 -14.16 l1.32 0 z M480.736 5.84 l8.62 12.4 l0.04 0 l0 -12.4 l1.32 0 l0 14.16 l-1.7 0 l-8.62 -12.4 l-0.04 0 l0 12.4 l-1.32 0 l0 -14.16 l1.7 0 z M506.584 5.84 l0 14.16 l-1.32 0 l0 -14.16 l1.32 0 z M530.432 5.84 l0 1.2 l-4.84 0 l0 12.96 l-1.32 0 l0 -12.96 l-4.84 0 l0 -1.2 l11 0 z M551.94 5.84 l0 1.2 l-7.34 0 l0 5.04 l6.88 0 l0 1.2 l-6.88 0 l0 5.52 l7.66 0 l0 1.2 l-8.98 0 l0 -14.16 l8.66 0 z M583.5160000000001 5.84 l5.16 11.88 l5.16 -11.88 l1.88 0 l0 14.16 l-1.32 0 l0 -12.48 l-0.04 0 l-5.4 12.48 l-0.58 0 l-5.48 -12.48 l-0.04 0 l0 12.48 l-1.32 0 l0 -14.16 l1.98 0 z M618.7840000000001 5.84 l0 1.2 l-7.34 0 l0 5.04 l6.88 0 l0 1.2 l-6.88 0 l0 5.52 l7.66 0 l0 1.2 l-8.98 0 l0 -14.16 l8.66 0 z M634.4920000000001 5.84 l5.16 11.88 l5.16 -11.88 l1.88 0 l0 14.16 l-1.32 0 l0 -12.48 l-0.04 0 l-5.4 12.48 l-0.58 0 l-5.48 -12.48 l-0.04 0 l0 12.48 l-1.32 0 l0 -14.16 l1.98 0 z M661.5000000000001 12.92 q0 2.7 1.66 4.45 t4.34 1.79 q2.7 0 4.34 -1.77 t1.66 -4.47 q0 -2.74 -1.64 -4.47 t-4.38 -1.77 q-2.68 0 -4.32 1.76 t-1.66 4.48 z M667.5000000000001 5.48 q2.16 0 3.82 0.95 t2.57 2.66 t0.93 3.83 q0 3.26 -2.06 5.33 t-5.26 2.11 q-3.22 0 -5.24 -2.09 t-2.08 -5.35 q0.02 -3.26 2.04 -5.32 t5.28 -2.12 z M692.668 12.08 q1.54 0 2.38 -0.69 t0.84 -1.83 t-0.82 -1.82 t-2.44 -0.7 l-2.86 0 l0 5.04 l2.9 0 z M692.268 5.84 q4.9 0 4.94 3.72 q0 3.14 -3.62 3.64 l4.12 6.8 l-1.5 0 l-3.98 -6.72 l-2.46 0 l0 6.72 l-1.32 0 l0 -14.16 l3.82 0 z M712.296 5.84 l0 14.16 l-1.32 0 l0 -14.16 l1.32 0 z M735.5040000000001 5.84 l0 1.2 l-7.34 0 l0 5.04 l6.88 0 l0 1.2 l-6.88 0 l0 5.52 l7.66 0 l0 1.2 l-8.98 0 l0 -14.16 l8.66 0 z M753.4120000000001 5.48 q2.46 0 3.86 1.78 l-1.14 0.82 q-1.04 -1.4 -2.76 -1.4 q-1.4 0 -2.27 0.72 t-0.91 1.96 q0 1.08 0.66 1.75 t2.3 1.13 q2.16 0.64 2.88 1.13 t1.09 1.21 t0.37 1.8 q0 1.72 -1.23 2.83 t-3.17 1.15 q-3.06 0 -4.6 -2.14 l1.26 -0.84 q1.06 1.76 3.24 1.78 q1.42 0 2.3 -0.79 t0.88 -1.99 q0 -0.7 -0.25 -1.15 t-0.76 -0.78 t-1.3 -0.6 t-1.85 -0.63 q-1.6 -0.52 -2.37 -1.46 t-0.77 -2.4 q0 -1.72 1.29 -2.8 t3.25 -1.08 z" fill="#E3E3E3"></path></g></svg>