<svg xmlns:xlink="http://www.w3.org/1999/xlink" xmlns="http://www.w3.org/2000/svg" id="dlPiaN1DU" viewBox="0 0 350.00000000000006 55.77591230366447" height="55.77591230366447" width="350.00000000000006" style="width: 350px; height: 55.7759px; position: absolute; top: 50%; left: 50%; transform: translate(-50%, -50%) scale(0.648143); z-index: 0; cursor: pointer; overflow: visible;"><defs id="SvgjsDefs1027"></defs><g id="SvgjsG1028" featurekey="bQt9oe-0" transform="matrix(2.814409764250729,0,0,2.814409764250729,-2.3641046314154615,-16.94274941113909)" fill="#EEEEEE"><path d="M6.22 9.14 l-2.28 0 l0 3.66 l2.18 0 c1.34 0 2.16 -0.76 2.16 -1.82 s-0.68 -1.84 -2.06 -1.84 z M3.94 15.34 l0 4.66 l-3.1 0 l0 -13.7 l5.84 0 c2.92 0 4.72 1.88 4.72 4.56 c0 2.14 -1.42 3.92 -3.74 4.38 l4.36 4.76 l-4.04 0 z M20.080000000000002 20.28 c-4 0 -7.26 -3.06 -7.26 -7.12 c0 -4.08 3.26 -7.14 7.26 -7.14 c4.1 0 7.26 3.06 7.26 7.12 c0 4.08 -3.16 7.14 -7.26 7.14 z M20.080000000000002 17.4 c2.32 0 4.1 -1.84 4.1 -4.26 c0 -2.38 -1.78 -4.24 -4.1 -4.24 s-4.1 1.86 -4.1 4.26 s1.78 4.24 4.1 4.24 z M35.64 20.28 c-4 0 -7.26 -3.06 -7.26 -7.12 c0 -4.08 3.26 -7.14 7.26 -7.14 c4.1 0 7.26 3.06 7.26 7.12 c0 4.08 -3.16 7.14 -7.26 7.14 z M35.64 17.4 c2.32 0 4.1 -1.84 4.1 -4.26 c0 -2.38 -1.78 -4.24 -4.1 -4.24 s-4.1 1.86 -4.1 4.26 s1.78 4.24 4.1 4.24 z M50.94 20 l-3.7 -8.18 l0 8.18 l-2.98 0 l0 -13.7 l3.72 0 l4.02 9.06 l4.02 -9.06 l3.72 0 l0 13.7 l-3.04 0 l0 -8.22 l-3.72 8.22 l-2.04 0 z M66.8 9.14 l-2.28 0 l0 3.66 l2.18 0 c1.34 0 2.16 -0.76 2.16 -1.82 s-0.68 -1.84 -2.06 -1.84 z M64.52 15.34 l0 4.66 l-3.1 0 l0 -13.7 l5.84 0 c2.92 0 4.72 1.88 4.72 4.56 c0 2.14 -1.42 3.92 -3.74 4.38 l4.36 4.76 l-4.04 0 z M73.72 20 l0 -13.7 l10.02 0 l0 2.8 l-6.92 0 l0 2.58 l6.4 0 l0 2.72 l-6.4 0 l0 2.8 l6.94 0 l0 2.8 l-10.04 0 z M92.84 14.9 l-1.78 -5.36 l-1.78 5.36 l3.56 0 z M94.53999999999999 20 l-0.78 -2.36 l-5.38 0 l-0.78 2.36 l-3.18 0 l4.84 -13.7 l3.8 0 l4.82 13.7 l-3.34 0 z M98.84 20 l0 -13.7 l5.6 0 c4.22 0 6.98 3 6.98 6.78 c0 3.86 -2.88 6.92 -7.14 6.92 l-5.44 0 z M104.28 9.14 l-2.34 0 l0 8.02 l2.44 0 c2.22 0 3.92 -1.72 3.92 -4.04 c0 -2.28 -1.7 -3.98 -4.02 -3.98 z M120.22 20 l-3.12 0 l0 -5.12 l-4.98 -8.58 l3.42 0 l3.16 5.76 l3.18 -5.76 l3.32 0 l-4.98 8.6 l0 5.1 z" fill="#EEEEEE"></path></g><g id="SvgjsG1029" featurekey="WvMr3I-0" transform="matrix(0.31527906112882126,0,0,0.31527906112882126,34.47664312077833,48.61907767617494)" fill="#222831"><path d="M2.56 20.3 c-0.25334 0 -0.46668 -0.08666 -0.64002 -0.26 s-0.26 -0.38 -0.26 -0.62 l0 -14.02 c0 -0.24 0.08666 -0.44666 0.26 -0.62 s0.38668 -0.26 0.64002 -0.26 c0.24 0 0.44666 0.08666 0.62 0.26 s0.26 0.38 0.26 0.62 l0 14.02 c0 0.24 -0.08666 0.44666 -0.26 0.62 s-0.38 0.26 -0.62 0.26 z M31.163000000000004 20.3 c-0.33334 0 -0.58668 -0.14 -0.76002 -0.42 l-7.22 -11.44 l0 10.98 c0 0.24 -0.08334 0.44666 -0.25 0.62 s-0.37666 0.26 -0.63 0.26 c-0.24 0 -0.44666 -0.08666 -0.62 -0.26 s-0.26 -0.38 -0.26 -0.62 l0 -14.02 c0 -0.24 0.08666 -0.44666 0.26 -0.62 s0.38 -0.26 0.62 -0.26 c0.33334 0 0.58668 0.13334 0.76002 0.4 l7.22 11.44 l0 -10.96 c0 -0.24 0.08334 -0.44666 0.25 -0.62 s0.37666 -0.26 0.63 -0.26 c0.24 0 0.44666 0.08666 0.62 0.26 s0.26 0.38 0.26 0.62 l0 14.02 c0 0.24 -0.08666 0.44666 -0.26 0.62 s-0.38 0.26 -0.62 0.26 z M54.006 20.3 c-0.61334 0 -1.1867 -0.11668 -1.72 -0.35002 s-1 -0.55 -1.4 -0.95 s-0.71666 -0.86666 -0.95 -1.4 s-0.35 -1.1067 -0.35 -1.72 c0 -0.25334 0.08666 -0.46668 0.26 -0.64002 s0.38668 -0.26 0.64002 -0.26 c0.24 0 0.44666 0.08666 0.62 0.26 s0.26 0.38668 0.26 0.64002 c0 0.36 0.07 0.7 0.21 1.02 s0.33 0.6 0.57 0.84 s0.52 0.43 0.84 0.57 s0.66 0.21 1.02 0.21 s0.70334 -0.07 1.03 -0.21 s0.61 -0.33 0.85 -0.57 s0.43 -0.52 0.57 -0.84 s0.21 -0.66 0.21 -1.02 c0 -0.44 -0.08666 -0.80334 -0.26 -1.09 s-0.41334 -0.53666 -0.72 -0.75 c-0.14666 -0.10666 -0.31332 -0.20332 -0.49998 -0.28998 s-0.38 -0.17666 -0.58 -0.27 c-0.2 -0.08 -0.40666 -0.16 -0.62 -0.24 s-0.43334 -0.16 -0.66 -0.24 c-0.44 -0.16 -0.88334 -0.34 -1.33 -0.54 s-0.84666 -0.45 -1.2 -0.75 s-0.64334 -0.67334 -0.87 -1.12 s-0.34 -0.99666 -0.34 -1.65 c0 -0.61334 0.11666 -1.1867 0.35 -1.72 s0.55 -1 0.95 -1.4 s0.86666 -0.71666 1.4 -0.95 s1.1067 -0.35 1.72 -0.35 s1.19 0.11666 1.73 0.35 s1.01 0.55 1.41 0.95 s0.71666 0.86666 0.95 1.4 s0.35 1.1067 0.35 1.72 c0 0.24 -0.08666 0.44666 -0.26 0.62 s-0.38668 0.26 -0.64002 0.26 c-0.24 0 -0.44666 -0.08666 -0.62 -0.26 s-0.26 -0.38 -0.26 -0.62 c0 -0.36 -0.07 -0.70334 -0.21 -1.03 s-0.33 -0.61 -0.57 -0.85 s-0.52334 -0.43 -0.85 -0.57 s-0.67 -0.21 -1.03 -0.21 s-0.7 0.07 -1.02 0.21 s-0.6 0.33 -0.84 0.57 s-0.43 0.52334 -0.57 0.85 s-0.21 0.67 -0.21 1.03 c0 0.4 0.08334 0.73334 0.25 1 s0.40332 0.5 0.70998 0.7 c0.32 0.2 0.68 0.38 1.08 0.54 l0.64 0.24 l0.66 0.24 c0.44 0.16 0.88334 0.34334 1.33 0.55 s0.84666 0.46666 1.2 0.78 s0.64334 0.70334 0.87 1.17 s0.34 1.04 0.34 1.72 c0 0.61334 -0.11666 1.1867 -0.35 1.72 s-0.55 1 -0.95 1.4 s-0.87 0.71666 -1.41 0.95 s-1.1167 0.35 -1.73 0.35 z M83.58900000000001 6.279999999999999 l-3.24 0 l0 13.14 c0 0.24 -0.08666 0.44666 -0.26 0.62 s-0.38 0.26 -0.62 0.26 c-0.25334 0 -0.46668 -0.08666 -0.64002 -0.26 s-0.26 -0.38 -0.26 -0.62 l0 -13.14 l-3.24 0 c-0.24 0 -0.44666 -0.08334 -0.62 -0.25 s-0.26 -0.37666 -0.26 -0.63 c0 -0.24 0.08666 -0.44666 0.26 -0.62 s0.38 -0.26 0.62 -0.26 l8.26 0 c0.24 0 0.44666 0.08666 0.62 0.26 s0.26 0.38 0.26 0.62 c0 0.25334 -0.08666 0.46334 -0.26 0.63 s-0.38 0.25 -0.62 0.25 z M112.87200000000001 20.22 c-0.10666 0.05334 -0.21992 0.08 -0.33992 0.08 c-0.17334 0 -0.33668 -0.04666 -0.49002 -0.14 s-0.26334 -0.22668 -0.33 -0.40002 l-1.58 -3.72 l-7.26 0 l-1.58 3.72 c-0.09334 0.22666 -0.25334 0.38666 -0.48 0.48 s-0.45332 0.08668 -0.67998 -0.01998 c-0.22666 -0.09334 -0.38666 -0.25334 -0.48 -0.48 s-0.08668 -0.45332 0.01998 -0.67998 l1.8 -4.26 l4.22 -9.88 c0.06666 -0.17334 0.17332 -0.30668 0.31998 -0.40002 s0.31332 -0.14 0.49998 -0.14 c0.17334 0 0.33334 0.04666 0.48 0.14 s0.25332 0.22668 0.31998 0.40002 c1.0133 2.3734 2.02 4.73 3.02 7.07 s2.0066 4.6966 3.02 7.07 c0.09334 0.22666 0.09334 0.45332 0 0.67998 s-0.25334 0.38666 -0.48 0.48 z M106.51200000000001 7.539999999999999 l-2.88 6.72 l5.74 0 z M139.81500000000003 20.3 c-0.33334 0 -0.58668 -0.14 -0.76002 -0.42 l-7.22 -11.44 l0 10.98 c0 0.24 -0.08334 0.44666 -0.25 0.62 s-0.37666 0.26 -0.63 0.26 c-0.24 0 -0.44666 -0.08666 -0.62 -0.26 s-0.26 -0.38 -0.26 -0.62 l0 -14.02 c0 -0.24 0.08666 -0.44666 0.26 -0.62 s0.38 -0.26 0.62 -0.26 c0.33334 0 0.58668 0.13334 0.76002 0.4 l7.22 11.44 l0 -10.96 c0 -0.24 0.08334 -0.44666 0.25 -0.62 s0.37666 -0.26 0.63 -0.26 c0.24 0 0.44666 0.08666 0.62 0.26 s0.26 0.38 0.26 0.62 l0 14.02 c0 0.24 -0.08666 0.44666 -0.26 0.62 s-0.38 0.26 -0.62 0.26 z M166.27800000000002 6.279999999999999 l-3.24 0 l0 13.14 c0 0.24 -0.08666 0.44666 -0.26 0.62 s-0.38 0.26 -0.62 0.26 c-0.25334 0 -0.46668 -0.08666 -0.64002 -0.26 s-0.26 -0.38 -0.26 -0.62 l0 -13.14 l-3.24 0 c-0.24 0 -0.44666 -0.08334 -0.62 -0.25 s-0.26 -0.37666 -0.26 -0.63 c0 -0.24 0.08666 -0.44666 0.26 -0.62 s0.38 -0.26 0.62 -0.26 l8.26 0 c0.24 0 0.44666 0.08666 0.62 0.26 s0.26 0.38 0.26 0.62 c0 0.25334 -0.08666 0.46334 -0.26 0.63 s-0.38 0.25 -0.62 0.25 z M210.44400000000002 20.3 l-4.26 0.000019531 c-0.25334 0 -0.46668 -0.08666 -0.64002 -0.26 s-0.26 -0.38 -0.26 -0.62 l0 -14.02 c0 -0.24 0.08666 -0.44666 0.26 -0.62 s0.38668 -0.26 0.64002 -0.26 l2.92 0 c0.50666 0 0.98666 0.09666 1.44 0.29 s0.84668 0.45668 1.18 0.79002 s0.59668 0.72668 0.79002 1.18 s0.29 0.93334 0.29 1.44 c0 0.8 -0.24 1.5333 -0.72 2.2 c0.52 0.17334 0.99334 0.41 1.42 0.71 s0.79332 0.65666 1.1 1.07 s0.54666 0.87 0.72 1.37 s0.26 1.03 0.26 1.59 c0 0.70666 -0.13334 1.3733 -0.4 2 s-0.63332 1.1733 -1.1 1.64 s-1.0133 0.83332 -1.64 1.1 s-1.2933 0.4 -2 0.4 z M209.104 6.279999999999999 l-2.04 0 l0 3.86 l2.24 0 c0.21334 0 0.42334 -0.05666 0.63 -0.17 s0.39 -0.26 0.55 -0.44 s0.29 -0.38334 0.39 -0.61 s0.15 -0.46 0.15 -0.7 c0 -0.26666 -0.05 -0.51666 -0.15 -0.75 s-0.23666 -0.44 -0.41 -0.62 s-0.37668 -0.32 -0.61002 -0.42 s-0.48334 -0.15 -0.75 -0.15 z M210.44400000000002 11.92 l-3.38 -0.000039062 l0 6.6 l3.38 0 c0.46666 0 0.90332 -0.08666 1.31 -0.26 s0.76332 -0.41334 1.07 -0.72 s0.54666 -0.66332 0.72 -1.07 s0.26 -0.84332 0.26 -1.31 s-0.09 -0.9 -0.27 -1.3 s-0.42 -0.74334 -0.72 -1.03 s-0.65666 -0.51 -1.07 -0.67 s-0.84668 -0.24 -1.3 -0.24 z M240.14700000000002 20.3 c-1.0933 0 -2.12 -0.20666 -3.08 -0.62 s-1.7967 -0.97668 -2.51 -1.69 s-1.2767 -1.55 -1.69 -2.51 s-0.62 -1.9867 -0.62 -3.08 c0 -1.08 0.20666 -2.1 0.62 -3.06 s0.97668 -1.7967 1.69 -2.51 s1.55 -1.2767 2.51 -1.69 s1.9867 -0.62 3.08 -0.62 c1.08 0 2.1 0.20666 3.06 0.62 s1.7967 0.97668 2.51 1.69 s1.2767 1.55 1.69 2.51 s0.62 1.98 0.62 3.06 c0 1.0933 -0.20666 2.12 -0.62 3.08 s-0.97668 1.7967 -1.69 2.51 s-1.55 1.2767 -2.51 1.69 s-1.98 0.62 -3.06 0.62 z M240.14700000000002 6.279999999999999 c-0.84 0 -1.6333 0.16 -2.38 0.48 s-1.4 0.75666 -1.96 1.31 s-1 1.2033 -1.32 1.95 s-0.48 1.54 -0.48 2.38 s0.16 1.6333 0.48 2.38 s0.76 1.4 1.32 1.96 s1.2133 1 1.96 1.32 s1.54 0.48 2.38 0.48 s1.6333 -0.16 2.38 -0.48 s1.3967 -0.76 1.95 -1.32 s0.99 -1.2133 1.31 -1.96 s0.48 -1.54 0.48 -2.38 s-0.16 -1.6333 -0.48 -2.38 s-0.75666 -1.3967 -1.31 -1.95 s-1.2033 -0.99 -1.95 -1.31 s-1.54 -0.48 -2.38 -0.48 z M273.05 20.3 c-1.0933 0 -2.12 -0.20666 -3.08 -0.62 s-1.7967 -0.97668 -2.51 -1.69 s-1.2767 -1.55 -1.69 -2.51 s-0.62 -1.9867 -0.62 -3.08 c0 -1.08 0.20666 -2.1 0.62 -3.06 s0.97668 -1.7967 1.69 -2.51 s1.55 -1.2767 2.51 -1.69 s1.9867 -0.62 3.08 -0.62 c1.08 0 2.1 0.20666 3.06 0.62 s1.7967 0.97668 2.51 1.69 s1.2767 1.55 1.69 2.51 s0.62 1.98 0.62 3.06 c0 1.0933 -0.20666 2.12 -0.62 3.08 s-0.97668 1.7967 -1.69 2.51 s-1.55 1.2767 -2.51 1.69 s-1.98 0.62 -3.06 0.62 z M273.05 6.279999999999999 c-0.84 0 -1.6333 0.16 -2.38 0.48 s-1.4 0.75666 -1.96 1.31 s-1 1.2033 -1.32 1.95 s-0.48 1.54 -0.48 2.38 s0.16 1.6333 0.48 2.38 s0.76 1.4 1.32 1.96 s1.2133 1 1.96 1.32 s1.54 0.48 2.38 0.48 s1.6333 -0.16 2.38 -0.48 s1.3967 -0.76 1.95 -1.32 s0.99 -1.2133 1.31 -1.96 s0.48 -1.54 0.48 -2.38 s-0.16 -1.6333 -0.48 -2.38 s-0.75666 -1.3967 -1.31 -1.95 s-1.2033 -0.99 -1.95 -1.31 s-1.54 -0.48 -2.38 -0.48 z M307.57300000000004 20.3 c-0.24 0 -0.44 -0.07998 -0.6 -0.23998 l-6.72 -6.44 l0 5.8 c0 0.24 -0.08334 0.44666 -0.25 0.62 s-0.37666 0.26 -0.63 0.26 c-0.24 0 -0.44666 -0.08666 -0.62 -0.26 s-0.26 -0.38 -0.26 -0.62 l0 -14.02 c0 -0.25334 0.08666 -0.46334 0.26 -0.63 s0.38 -0.25 0.62 -0.25 c0.25334 0 0.46334 0.08334 0.63 0.25 s0.25 0.37666 0.25 0.63 l0 5.8 l6.72 -6.44 c0.17334 -0.17334 0.38 -0.25668 0.62 -0.25002 s0.44666 0.09666 0.62 0.27 c0.17334 0.18666 0.25668 0.4 0.25002 0.64 s-0.09666 0.44666 -0.27 0.62 l-6.64 6.36 l6.64 6.38 c0.17334 0.17334 0.26334 0.38 0.27 0.62 s-0.07668 0.44666 -0.25002 0.62 c-0.16 0.18666 -0.37334 0.28 -0.64 0.28 z M326.47600000000006 20.3 c-0.25334 0 -0.46668 -0.08666 -0.64002 -0.26 s-0.26 -0.38 -0.26 -0.62 l0 -14.02 c0 -0.24 0.08666 -0.44666 0.26 -0.62 s0.38668 -0.26 0.64002 -0.26 c0.24 0 0.44666 0.08666 0.62 0.26 s0.26 0.38 0.26 0.62 l0 14.02 c0 0.24 -0.08666 0.44666 -0.26 0.62 s-0.38 0.26 -0.62 0.26 z M355.079 20.3 c-0.33334 0 -0.58668 -0.14 -0.76002 -0.42 l-7.22 -11.44 l0 10.98 c0 0.24 -0.08334 0.44666 -0.25 0.62 s-0.37666 0.26 -0.63 0.26 c-0.24 0 -0.44666 -0.08666 -0.62 -0.26 s-0.26 -0.38 -0.26 -0.62 l0 -14.02 c0 -0.24 0.08666 -0.44666 0.26 -0.62 s0.38 -0.26 0.62 -0.26 c0.33334 0 0.58668 0.13334 0.76002 0.4 l7.22 11.44 l0 -10.96 c0 -0.24 0.08334 -0.44666 0.25 -0.62 s0.37666 -0.26 0.63 -0.26 c0.24 0 0.44666 0.08666 0.62 0.26 s0.26 0.38 0.26 0.62 l0 14.02 c0 0.24 -0.08666 0.44666 -0.26 0.62 s-0.38 0.26 -0.62 0.26 z M387.14200000000005 17.96 c-0.76 0.76 -1.6234 1.3399 -2.59 1.7399 s-1.99 0.6 -3.07 0.6 c-1.1067 0 -2.1434 -0.21 -3.11 -0.63 s-1.81 -0.99 -2.53 -1.71 s-1.29 -1.5633 -1.71 -2.53 s-0.63 -2.0034 -0.63 -3.11 s0.21 -2.1334 0.63 -3.08 s0.99334 -1.77 1.72 -2.47 s1.5733 -1.25 2.54 -1.65 s1.9967 -0.6 3.09 -0.6 c1.08 0 2.1034 0.2 3.07 0.6 s1.83 0.98 2.59 1.74 c0.17334 0.17334 0.26 0.38 0.26 0.62 s-0.08666 0.44666 -0.26 0.62 c-0.18666 0.18666 -0.4 0.28 -0.64 0.28 s-0.44666 -0.09334 -0.62 -0.28 c-0.6 -0.58666 -1.2733 -1.0367 -2.02 -1.35 s-1.54 -0.47 -2.38 -0.47 c-0.85334 0 -1.6567 0.15334 -2.41 0.46 s-1.41 0.73 -1.97 1.27 s-1.0033 1.18 -1.33 1.92 s-0.49 1.5367 -0.49 2.39 s0.16334 1.6567 0.49 2.41 s0.77 1.41 1.33 1.97 s1.2167 1.0033 1.97 1.33 s1.5567 0.49 2.41 0.49 c0.77334 0 1.5133 -0.13334 2.22 -0.4 s1.3467 -0.65332 1.92 -1.16 l0 -3.76 l-4.04 0 c-0.25334 0 -0.46668 -0.08666 -0.64002 -0.26 s-0.26 -0.38 -0.26 -0.62 c0 -0.25334 0.08666 -0.46668 0.26 -0.64002 s0.38668 -0.26 0.64002 -0.26 l4.92 0 c0.25334 0 0.46668 0.08666 0.64002 0.26 s0.26 0.38668 0.26 0.64002 l0 5.02 c0 0.24 -0.08666 0.44666 -0.26 0.62 z M409.365 20.3 c-0.61334 0 -1.1867 -0.11668 -1.72 -0.35002 s-1 -0.55 -1.4 -0.95 s-0.71666 -0.86666 -0.95 -1.4 s-0.35 -1.1067 -0.35 -1.72 c0 -0.25334 0.08666 -0.46668 0.26 -0.64002 s0.38668 -0.26 0.64002 -0.26 c0.24 0 0.44666 0.08666 0.62 0.26 s0.26 0.38668 0.26 0.64002 c0 0.36 0.07 0.7 0.21 1.02 s0.33 0.6 0.57 0.84 s0.52 0.43 0.84 0.57 s0.66 0.21 1.02 0.21 s0.70334 -0.07 1.03 -0.21 s0.61 -0.33 0.85 -0.57 s0.43 -0.52 0.57 -0.84 s0.21 -0.66 0.21 -1.02 c0 -0.44 -0.08666 -0.80334 -0.26 -1.09 s-0.41334 -0.53666 -0.72 -0.75 c-0.14666 -0.10666 -0.31332 -0.20332 -0.49998 -0.28998 s-0.38 -0.17666 -0.58 -0.27 c-0.2 -0.08 -0.40666 -0.16 -0.62 -0.24 s-0.43334 -0.16 -0.66 -0.24 c-0.44 -0.16 -0.88334 -0.34 -1.33 -0.54 s-0.84666 -0.45 -1.2 -0.75 s-0.64334 -0.67334 -0.87 -1.12 s-0.34 -0.99666 -0.34 -1.65 c0 -0.61334 0.11666 -1.1867 0.35 -1.72 s0.55 -1 0.95 -1.4 s0.86666 -0.71666 1.4 -0.95 s1.1067 -0.35 1.72 -0.35 s1.19 0.11666 1.73 0.35 s1.01 0.55 1.41 0.95 s0.71666 0.86666 0.95 1.4 s0.35 1.1067 0.35 1.72 c0 0.24 -0.08666 0.44666 -0.26 0.62 s-0.38668 0.26 -0.64002 0.26 c-0.24 0 -0.44666 -0.08666 -0.62 -0.26 s-0.26 -0.38 -0.26 -0.62 c0 -0.36 -0.07 -0.70334 -0.21 -1.03 s-0.33 -0.61 -0.57 -0.85 s-0.52334 -0.43 -0.85 -0.57 s-0.67 -0.21 -1.03 -0.21 s-0.7 0.07 -1.02 0.21 s-0.6 0.33 -0.84 0.57 s-0.43 0.52334 -0.57 0.85 s-0.21 0.67 -0.21 1.03 c0 0.4 0.08334 0.73334 0.25 1 s0.40332 0.5 0.70998 0.7 c0.32 0.2 0.68 0.38 1.08 0.54 l0.64 0.24 l0.66 0.24 c0.44 0.16 0.88334 0.34334 1.33 0.55 s0.84666 0.46666 1.2 0.78 s0.64334 0.70334 0.87 1.17 s0.34 1.04 0.34 1.72 c0 0.61334 -0.11666 1.1867 -0.35 1.72 s-0.55 1 -0.95 1.4 s-0.87 0.71666 -1.41 0.95 s-1.1167 0.35 -1.73 0.35 z M431.708 22.52 c-0.18666 0.12 -0.37336 0.18 -0.56002 0.18 c-0.24 0 -0.44334 -0.08334 -0.61 -0.25 s-0.25 -0.37 -0.25 -0.61 c0 -0.16 0.03 -0.29334 0.09 -0.4 s0.13666 -0.2 0.23 -0.28 c0.18666 -0.17334 0.31332 -0.32334 0.37998 -0.45 s0.1 -0.29 0.1 -0.49 l0 -0.08 c-0.18666 -0.10666 -0.33332 -0.24666 -0.43998 -0.42 s-0.16 -0.37334 -0.16 -0.6 c0 -0.33334 0.11666 -0.61 0.35 -0.83 s0.51 -0.33 0.83 -0.33 c0.41334 0 0.71668 0.13334 0.91002 0.4 s0.29 0.56666 0.29 0.9 l0 0.96 c0 0.45334 -0.10334 0.88 -0.31 1.28 s-0.49 0.74 -0.85 1.02 z M472.374 20.3 c-0.25334 0 -0.46668 -0.08666 -0.64002 -0.26 s-0.26 -0.38 -0.26 -0.62 l0 -14.02 c0 -0.24 0.08666 -0.44666 0.26 -0.62 s0.38668 -0.26 0.64002 -0.26 c0.24 0 0.44666 0.08666 0.62 0.26 s0.26 0.38 0.26 0.62 l0 14.02 c0 0.24 -0.08666 0.44666 -0.26 0.62 s-0.38 0.26 -0.62 0.26 z M500.977 20.3 c-0.33334 0 -0.58668 -0.14 -0.76002 -0.42 l-7.22 -11.44 l0 10.98 c0 0.24 -0.08334 0.44666 -0.25 0.62 s-0.37666 0.26 -0.63 0.26 c-0.24 0 -0.44666 -0.08666 -0.62 -0.26 s-0.26 -0.38 -0.26 -0.62 l0 -14.02 c0 -0.24 0.08666 -0.44666 0.26 -0.62 s0.38 -0.26 0.62 -0.26 c0.33334 0 0.58668 0.13334 0.76002 0.4 l7.22 11.44 l0 -10.96 c0 -0.24 0.08334 -0.44666 0.25 -0.62 s0.37666 -0.26 0.63 -0.26 c0.24 0 0.44666 0.08666 0.62 0.26 s0.26 0.38 0.26 0.62 l0 14.02 c0 0.24 -0.08666 0.44666 -0.26 0.62 s-0.38 0.26 -0.62 0.26 z M527.62 6.279999999999999 l-6 0 l0 5.18 l5.06 0 c0.24 0 0.44666 0.08666 0.62 0.26 s0.26 0.38 0.26 0.62 c0 0.25334 -0.08666 0.46334 -0.26 0.63 s-0.38 0.25 -0.62 0.25 l-5.06 0 l0 6.2 c0 0.24 -0.08666 0.44666 -0.26 0.62 s-0.38 0.26 -0.62 0.26 c-0.25334 0 -0.46668 -0.08666 -0.64002 -0.26 s-0.26 -0.38 -0.26 -0.62 l0 -14.02 c0 -0.24 0.08666 -0.44666 0.26 -0.62 s0.38668 -0.26 0.64002 -0.26 l6.88 0 c0.25334 0 0.46668 0.08666 0.64002 0.26 s0.26 0.38 0.26 0.62 c0 0.25334 -0.08666 0.46334 -0.26 0.63 s-0.38668 0.25 -0.64002 0.25 z M545.6429999999999 20.3 c-0.25334 0 -0.46668 -0.08666 -0.64002 -0.26 s-0.26 -0.38 -0.26 -0.62 l0 -14.02 c0 -0.24 0.08666 -0.44666 0.26 -0.62 s0.38668 -0.26 0.64002 -0.26 c0.24 0 0.44666 0.08666 0.62 0.26 s0.26 0.38 0.26 0.62 l0 14.02 c0 0.24 -0.08666 0.44666 -0.26 0.62 s-0.38 0.26 -0.62 0.26 z M574.246 20.3 c-0.33334 0 -0.58668 -0.14 -0.76002 -0.42 l-7.22 -11.44 l0 10.98 c0 0.24 -0.08334 0.44666 -0.25 0.62 s-0.37666 0.26 -0.63 0.26 c-0.24 0 -0.44666 -0.08666 -0.62 -0.26 s-0.26 -0.38 -0.26 -0.62 l0 -14.02 c0 -0.24 0.08666 -0.44666 0.26 -0.62 s0.38 -0.26 0.62 -0.26 c0.33334 0 0.58668 0.13334 0.76002 0.4 l7.22 11.44 l0 -10.96 c0 -0.24 0.08334 -0.44666 0.25 -0.62 s0.37666 -0.26 0.63 -0.26 c0.24 0 0.44666 0.08666 0.62 0.26 s0.26 0.38 0.26 0.62 l0 14.02 c0 0.24 -0.08666 0.44666 -0.26 0.62 s-0.38 0.26 -0.62 0.26 z M594.0089999999999 20.3 c-0.25334 0 -0.46668 -0.08666 -0.64002 -0.26 s-0.26 -0.38 -0.26 -0.62 l0 -14.02 c0 -0.24 0.08666 -0.44666 0.26 -0.62 s0.38668 -0.26 0.64002 -0.26 c0.24 0 0.44666 0.08666 0.62 0.26 s0.26 0.38 0.26 0.62 l0 14.02 c0 0.24 -0.08666 0.44666 -0.26 0.62 s-0.38 0.26 -0.62 0.26 z M620.472 6.279999999999999 l-3.24 0 l0 13.14 c0 0.24 -0.08666 0.44666 -0.26 0.62 s-0.38 0.26 -0.62 0.26 c-0.25334 0 -0.46668 -0.08666 -0.64002 -0.26 s-0.26 -0.38 -0.26 -0.62 l0 -13.14 l-3.24 0 c-0.24 0 -0.44666 -0.08334 -0.62 -0.25 s-0.26 -0.37666 -0.26 -0.63 c0 -0.24 0.08666 -0.44666 0.26 -0.62 s0.38 -0.26 0.62 -0.26 l8.26 0 c0.24 0 0.44666 0.08666 0.62 0.26 s0.26 0.38 0.26 0.62 c0 0.25334 -0.08666 0.46334 -0.26 0.63 s-0.38 0.25 -0.62 0.25 z M645.575 20.3 l-6.88 -0.000019531 c-0.25334 0 -0.46668 -0.08666 -0.64002 -0.26 s-0.26 -0.38 -0.26 -0.62 l0 -0.04 l0 -0.04 l0 -13.94 c0 -0.24 0.08666 -0.44666 0.26 -0.62 s0.38668 -0.26 0.64002 -0.26 l6.88 0 c0.25334 0 0.46668 0.08666 0.64002 0.26 s0.26 0.38 0.26 0.62 c0 0.25334 -0.08666 0.46334 -0.26 0.63 s-0.38668 0.25 -0.64002 0.25 l-6 0 l0 5.1 l5.06 0 c0.24 0 0.44666 0.08334 0.62 0.25 s0.26 0.37666 0.26 0.63 c0 0.24 -0.08666 0.44666 -0.26 0.62 s-0.38 0.26 -0.62 0.26 l-5.06 0 l0 5.38 l6 0 c0.25334 0 0.46668 0.08666 0.64002 0.26 s0.26 0.38668 0.26 0.64002 c0 0.24 -0.08666 0.44666 -0.26 0.62 s-0.38668 0.26 -0.64002 0.26 z M699.701 20.3 c-0.24 0 -0.44666 -0.08666 -0.62 -0.26 s-0.26 -0.38 -0.26 -0.62 l0 -10.42 l-5.24 10.8 c-0.08 0.14666 -0.19334 0.26666 -0.34 0.36 s-0.3 0.14 -0.46 0.14 s-0.31334 -0.04666 -0.46 -0.14 s-0.26 -0.21334 -0.34 -0.36 l-5.24 -10.8 l0 10.42 c0 0.24 -0.08334 0.44666 -0.25 0.62 s-0.37666 0.26 -0.63 0.26 c-0.24 0 -0.44666 -0.08666 -0.62 -0.26 s-0.26 -0.38 -0.26 -0.62 l0 -14.02 c0 -0.24 0.08666 -0.44666 0.26 -0.62 s0.38 -0.26 0.62 -0.26 c0.36 0 0.62666 0.16 0.8 0.48 l6.12 12.42 l6.12 -12.42 c0.17334 -0.32 0.44 -0.48 0.8 -0.48 c0.24 0 0.44666 0.08666 0.62 0.26 s0.26 0.38 0.26 0.62 l0 14.02 c0 0.24 -0.08666 0.44666 -0.26 0.62 s-0.38 0.26 -0.62 0.26 z M726.344 20.3 l-6.88 -0.000019531 c-0.25334 0 -0.46668 -0.08666 -0.64002 -0.26 s-0.26 -0.38 -0.26 -0.62 l0 -0.04 l0 -0.04 l0 -13.94 c0 -0.24 0.08666 -0.44666 0.26 -0.62 s0.38668 -0.26 0.64002 -0.26 l6.88 0 c0.25334 0 0.46668 0.08666 0.64002 0.26 s0.26 0.38 0.26 0.62 c0 0.25334 -0.08666 0.46334 -0.26 0.63 s-0.38668 0.25 -0.64002 0.25 l-6 0 l0 5.1 l5.06 0 c0.24 0 0.44666 0.08334 0.62 0.25 s0.26 0.37666 0.26 0.63 c0 0.24 -0.08666 0.44666 -0.26 0.62 s-0.38 0.26 -0.62 0.26 l-5.06 0 l0 5.38 l6 0 c0.25334 0 0.46668 0.08666 0.64002 0.26 s0.26 0.38668 0.26 0.64002 c0 0.24 -0.08666 0.44666 -0.26 0.62 s-0.38668 0.26 -0.64002 0.26 z M758.787 20.3 c-0.24 0 -0.44666 -0.08666 -0.62 -0.26 s-0.26 -0.38 -0.26 -0.62 l0 -10.42 l-5.24 10.8 c-0.08 0.14666 -0.19334 0.26666 -0.34 0.36 s-0.3 0.14 -0.46 0.14 s-0.31334 -0.04666 -0.46 -0.14 s-0.26 -0.21334 -0.34 -0.36 l-5.24 -10.8 l0 10.42 c0 0.24 -0.08334 0.44666 -0.25 0.62 s-0.37666 0.26 -0.63 0.26 c-0.24 0 -0.44666 -0.08666 -0.62 -0.26 s-0.26 -0.38 -0.26 -0.62 l0 -14.02 c0 -0.24 0.08666 -0.44666 0.26 -0.62 s0.38 -0.26 0.62 -0.26 c0.36 0 0.62666 0.16 0.8 0.48 l6.12 12.42 l6.12 -12.42 c0.17334 -0.32 0.44 -0.48 0.8 -0.48 c0.24 0 0.44666 0.08666 0.62 0.26 s0.26 0.38 0.26 0.62 l0 14.02 c0 0.24 -0.08666 0.44666 -0.26 0.62 s-0.38 0.26 -0.62 0.26 z M785.11 20.3 c-1.0933 0 -2.12 -0.20666 -3.08 -0.62 s-1.7967 -0.97668 -2.51 -1.69 s-1.2767 -1.55 -1.69 -2.51 s-0.62 -1.9867 -0.62 -3.08 c0 -1.08 0.20666 -2.1 0.62 -3.06 s0.97668 -1.7967 1.69 -2.51 s1.55 -1.2767 2.51 -1.69 s1.9867 -0.62 3.08 -0.62 c1.08 0 2.1 0.20666 3.06 0.62 s1.7967 0.97668 2.51 1.69 s1.2767 1.55 1.69 2.51 s0.62 1.98 0.62 3.06 c0 1.0933 -0.20666 2.12 -0.62 3.08 s-0.97668 1.7967 -1.69 2.51 s-1.55 1.2767 -2.51 1.69 s-1.98 0.62 -3.06 0.62 z M785.11 6.279999999999999 c-0.84 0 -1.6333 0.16 -2.38 0.48 s-1.4 0.75666 -1.96 1.31 s-1 1.2033 -1.32 1.95 s-0.48 1.54 -0.48 2.38 s0.16 1.6333 0.48 2.38 s0.76 1.4 1.32 1.96 s1.2133 1 1.96 1.32 s1.54 0.48 2.38 0.48 s1.6333 -0.16 2.38 -0.48 s1.3967 -0.76 1.95 -1.32 s0.99 -1.2133 1.31 -1.96 s0.48 -1.54 0.48 -2.38 s-0.16 -1.6333 -0.48 -2.38 s-0.75666 -1.3967 -1.31 -1.95 s-1.2033 -0.99 -1.95 -1.31 s-1.54 -0.48 -2.38 -0.48 z M814.9730000000001 13.36 l-0.24 -0.000039062 l0.26 -0.46 l3.62 6.06 c0.08 0.14666 0.12 0.3 0.12 0.46 c0 0.24 -0.08666 0.44666 -0.26 0.62 s-0.38 0.26 -0.62 0.26 c-0.16 0 -0.31 -0.04 -0.45 -0.12 s-0.25 -0.18666 -0.33 -0.32 l-3.88 -6.5 l-0.86 0 l0 6.06 c0 0.24 -0.08666 0.44666 -0.26 0.62 s-0.38 0.26 -0.62 0.26 c-0.25334 0 -0.46668 -0.08666 -0.64002 -0.26 s-0.26 -0.38 -0.26 -0.62 l0 -14.02 c0 -0.24 0.08666 -0.44666 0.26 -0.62 s0.38668 -0.26 0.64002 -0.26 l3.52 0 c0.61334 0 1.19 0.11666 1.73 0.35 s1.01 0.55 1.41 0.95 s0.71666 0.86666 0.95 1.4 s0.35 1.1067 0.35 1.72 s-0.11666 1.1867 -0.35 1.72 s-0.55 1 -0.95 1.4 s-0.87 0.71666 -1.41 0.95 s-1.1167 0.35 -1.73 0.35 z M814.9730000000001 6.279999999999999 l-2.64 0 l0 5.3 l2.64 0 c0.36 0 0.70334 -0.07 1.03 -0.21 s0.61 -0.33 0.85 -0.57 s0.43 -0.52 0.57 -0.84 s0.21 -0.66 0.21 -1.02 s-0.07 -0.70334 -0.21 -1.03 s-0.33 -0.61 -0.57 -0.85 s-0.52334 -0.43 -0.85 -0.57 s-0.67 -0.21 -1.03 -0.21 z M836.976 20.3 c-0.25334 0 -0.46668 -0.08666 -0.64002 -0.26 s-0.26 -0.38 -0.26 -0.62 l0 -14.02 c0 -0.24 0.08666 -0.44666 0.26 -0.62 s0.38668 -0.26 0.64002 -0.26 c0.24 0 0.44666 0.08666 0.62 0.26 s0.26 0.38 0.26 0.62 l0 14.02 c0 0.24 -0.08666 0.44666 -0.26 0.62 s-0.38 0.26 -0.62 0.26 z M863.6190000000001 20.3 l-6.88 -0.000019531 c-0.25334 0 -0.46668 -0.08666 -0.64002 -0.26 s-0.26 -0.38 -0.26 -0.62 l0 -0.04 l0 -0.04 l0 -13.94 c0 -0.24 0.08666 -0.44666 0.26 -0.62 s0.38668 -0.26 0.64002 -0.26 l6.88 0 c0.25334 0 0.46668 0.08666 0.64002 0.26 s0.26 0.38 0.26 0.62 c0 0.25334 -0.08666 0.46334 -0.26 0.63 s-0.38668 0.25 -0.64002 0.25 l-6 0 l0 5.1 l5.06 0 c0.24 0 0.44666 0.08334 0.62 0.25 s0.26 0.37666 0.26 0.63 c0 0.24 -0.08666 0.44666 -0.26 0.62 s-0.38 0.26 -0.62 0.26 l-5.06 0 l0 5.38 l6 0 c0.25334 0 0.46668 0.08666 0.64002 0.26 s0.26 0.38668 0.26 0.64002 c0 0.24 -0.08666 0.44666 -0.26 0.62 s-0.38668 0.26 -0.64002 0.26 z M885.3220000000001 20.3 c-0.61334 0 -1.1867 -0.11668 -1.72 -0.35002 s-1 -0.55 -1.4 -0.95 s-0.71666 -0.86666 -0.95 -1.4 s-0.35 -1.1067 -0.35 -1.72 c0 -0.25334 0.08666 -0.46668 0.26 -0.64002 s0.38668 -0.26 0.64002 -0.26 c0.24 0 0.44666 0.08666 0.62 0.26 s0.26 0.38668 0.26 0.64002 c0 0.36 0.07 0.7 0.21 1.02 s0.33 0.6 0.57 0.84 s0.52 0.43 0.84 0.57 s0.66 0.21 1.02 0.21 s0.70334 -0.07 1.03 -0.21 s0.61 -0.33 0.85 -0.57 s0.43 -0.52 0.57 -0.84 s0.21 -0.66 0.21 -1.02 c0 -0.44 -0.08666 -0.80334 -0.26 -1.09 s-0.41334 -0.53666 -0.72 -0.75 c-0.14666 -0.10666 -0.31332 -0.20332 -0.49998 -0.28998 s-0.38 -0.17666 -0.58 -0.27 c-0.2 -0.08 -0.40666 -0.16 -0.62 -0.24 s-0.43334 -0.16 -0.66 -0.24 c-0.44 -0.16 -0.88334 -0.34 -1.33 -0.54 s-0.84666 -0.45 -1.2 -0.75 s-0.64334 -0.67334 -0.87 -1.12 s-0.34 -0.99666 -0.34 -1.65 c0 -0.61334 0.11666 -1.1867 0.35 -1.72 s0.55 -1 0.95 -1.4 s0.86666 -0.71666 1.4 -0.95 s1.1067 -0.35 1.72 -0.35 s1.19 0.11666 1.73 0.35 s1.01 0.55 1.41 0.95 s0.71666 0.86666 0.95 1.4 s0.35 1.1067 0.35 1.72 c0 0.24 -0.08666 0.44666 -0.26 0.62 s-0.38668 0.26 -0.64002 0.26 c-0.24 0 -0.44666 -0.08666 -0.62 -0.26 s-0.26 -0.38 -0.26 -0.62 c0 -0.36 -0.07 -0.70334 -0.21 -1.03 s-0.33 -0.61 -0.57 -0.85 s-0.52334 -0.43 -0.85 -0.57 s-0.67 -0.21 -1.03 -0.21 s-0.7 0.07 -1.02 0.21 s-0.6 0.33 -0.84 0.57 s-0.43 0.52334 -0.57 0.85 s-0.21 0.67 -0.21 1.03 c0 0.4 0.08334 0.73334 0.25 1 s0.40332 0.5 0.70998 0.7 c0.32 0.2 0.68 0.38 1.08 0.54 l0.64 0.24 l0.66 0.24 c0.44 0.16 0.88334 0.34334 1.33 0.55 s0.84666 0.46666 1.2 0.78 s0.64334 0.70334 0.87 1.17 s0.34 1.04 0.34 1.72 c0 0.61334 -0.11666 1.1867 -0.35 1.72 s-0.55 1 -0.95 1.4 s-0.87 0.71666 -1.41 0.95 s-1.1167 0.35 -1.73 0.35 z" fill="#222831"></path></g></svg>