<svg xmlns:xlink="http://www.w3.org/1999/xlink" xmlns="http://www.w3.org/2000/svg" id="twMu8SVw2" viewBox="0 0 375 64.9935121629092" height="64.9935121629092" width="375" style="width: 375px; height: 64.9935px; position: absolute; top: 50%; left: 50%; transform: translate(-50%, -50%) scale(0.604933); z-index: 0; cursor: pointer; overflow: visible;"><defs id="SvgjsDefs1001"></defs><g id="SvgjsG1007" featurekey="nYIUkx-0" transform="matrix(1.0500953619773379,0,0,1.0500953619773379,6.534228444451708,-16.717938550930572)" fill="#111111"><path xmlns="http://www.w3.org/2000/svg" fill="#111111" d="M44.456,46.552h1.324c-0.162,0.662-0.281,1.365-0.365,2.097H43.64C43.833,47.9,44.108,47.197,44.456,46.552z   M50.45,46.552h-3.721c-0.168,0.66-0.297,1.364-0.387,2.097h4.107V46.552z M43.173,46.552c-0.383,0.651-0.686,1.356-0.896,2.097  h0.648c0.178-0.736,0.432-1.441,0.754-2.097H43.173z M50.917,51.09c-1.422,0-2.57,1.15-2.57,2.57c0,1.416,1.148,2.566,2.57,2.566  c1.416,0,2.564-1.15,2.564-2.566C53.481,52.24,52.333,51.09,50.917,51.09z M51.374,46.552v2.097h4.109  c-0.088-0.734-0.215-1.437-0.385-2.097H51.374z M98.526,49.879c0.041,0.576-0.227,1.125-1.549,1.266L76.874,53.23  c0.52,0.746,0.85,1.641,0.916,2.616c0.201,2.886-1.975,5.386-4.855,5.586c-2.889,0.203-5.389-1.973-5.588-4.858  c-0.061-0.851,0.086-1.666,0.396-2.399l-5.578,0.58c-0.039,0.002-0.092,0.002-0.17,0c-1.535,4.647-5.918,8-11.08,8  c-5.164,0-9.543-3.354-11.082-8c-0.074,0.002-0.129,0.002-0.164,0l-5.584-0.58c0.314,0.733,0.461,1.549,0.4,2.399  c-0.201,2.887-2.703,5.062-5.59,4.858c-2.883-0.2-5.057-2.7-4.854-5.585c0.064-0.975,0.395-1.869,0.916-2.615L4.849,51.146  c-1.318-0.142-1.584-0.689-1.545-1.267c0.039-0.578,0.383-1.082,1.709-1.039l34.275,1.246c0.307-3.623,2.27-6.777,5.129-8.697  l-11.596-2.236c-0.66-0.127-0.771-0.418-0.727-0.707c0.047-0.287,0.24-0.527,0.906-0.445l14.229,1.762  c0.277,0,0.506-0.227,0.506-0.506c0-0.08-0.027-0.156-0.055-0.225c-0.246-0.457-0.4-0.969-0.438-1.516  c-0.123-1.74,0.971-3.287,2.555-3.807l0.312-9.309c0.035-0.924,0.402-1.139,0.805-1.139s0.77,0.215,0.805,1.139l0.312,9.277  c1.445,0.432,2.543,1.723,2.654,3.316c0.053,0.742-0.117,1.447-0.451,2.053c-0.021,0.062-0.045,0.137-0.045,0.209  c0,0.279,0.227,0.506,0.51,0.506L68.923,38c0.67-0.082,0.863,0.158,0.906,0.445c0.049,0.289-0.064,0.58-0.723,0.707l-11.672,2.252  c2.848,1.92,4.807,5.066,5.109,8.682l34.275-1.246C98.146,48.797,98.489,49.301,98.526,49.879z M32.526,56.441  c0.127-1.807-1.232-3.369-3.035-3.494c-1.801-0.127-3.367,1.231-3.492,3.037c-0.125,1.803,1.23,3.363,3.035,3.492  C30.837,59.6,32.401,58.246,32.526,56.441z M48.831,37.408c0.084,1.182,1.104,2.07,2.283,1.988c1.18-0.084,2.068-1.105,1.986-2.285  c-0.084-1.178-1.104-2.066-2.281-1.984C49.638,35.209,48.751,36.231,48.831,37.408z M60.196,51.088c0-5.125-4.154-9.277-9.279-9.277  c-5.127-0.001-9.279,4.152-9.279,9.277c0,5.124,4.152,9.279,9.279,9.279C56.042,60.367,60.196,56.212,60.196,51.088z M75.833,55.984  c-0.123-1.805-1.688-3.164-3.49-3.037c-1.805,0.125-3.162,1.688-3.039,3.494c0.129,1.805,1.689,3.158,3.494,3.035  C74.599,59.348,75.962,57.787,75.833,55.984z M59.55,48.648c-0.209-0.742-0.512-1.447-0.895-2.097h-0.502  c0.318,0.657,0.574,1.362,0.75,2.097H59.55z M56.05,46.552c0.156,0.662,0.283,1.366,0.365,2.097h1.777  c-0.195-0.748-0.473-1.451-0.82-2.097H56.05z"></path></g><g id="SvgjsG1008" featurekey="PXhRQw-0" transform="matrix(3.2125414606867593,0,0,3.2125414606867593,123.07247389810063,-12.668971906340612)" fill="#111111"><path d="M3.5 8.04 l0 5 l1.42 0 c0.18666 0 0.28 -0.1 0.28 -0.3 l0 -4.4 c0 -0.2 -0.09334 -0.3 -0.28 -0.3 l-1.42 0 z M8.06 14.1 c0 0.32 -0.11 0.61334 -0.33 0.88 s-0.54334 0.4 -0.97 0.4 l1.52 4.62 l-3 0 l-1.4 -4.62 l-0.38 0 l0 4.62 l-2.9 0 l0 -14.5 l5.5 0 c0.68 0 1.1767 0.17 1.49 0.51 s0.47 0.79666 0.47 1.37 l0 6.72 z M12.48 8.04 c-0.17334 0 -0.26 0.09334 -0.26 0.28 l0 8.84 c0 0.10666 0.01666 0.18332 0.05 0.22998 s0.11 0.07 0.23 0.07 l1.1 0 c0.12 0 0.19666 -0.02334 0.23 -0.07 s0.05 -0.12332 0.05 -0.22998 l0 -8.84 c0 -0.18666 -0.08666 -0.28 -0.26 -0.28 l-1.14 0 z M16.82 17.94 c0 0.28 -0.03334 0.54334 -0.1 0.79 s-0.18 0.46332 -0.34 0.64998 s-0.37334 0.33666 -0.64 0.45 s-0.6 0.17 -1 0.17 l-3.36 0 c-0.4 0 -0.73334 -0.05666 -1 -0.17 s-0.48 -0.26334 -0.64 -0.45 s-0.27334 -0.40332 -0.34 -0.64998 s-0.1 -0.51 -0.1 -0.79 l0 -10.56 c0 -0.57334 0.15666 -1.03 0.47 -1.37 s0.81 -0.51 1.49 -0.51 l3.6 0 c0.68 0 1.1767 0.17 1.49 0.51 s0.47 0.79666 0.47 1.37 l0 10.56 z M21.200000000000003 8.04 c-0.17334 0 -0.26 0.09334 -0.26 0.28 l0 8.84 c0 0.10666 0.01666 0.18332 0.05 0.22998 s0.11 0.07 0.23 0.07 l1.1 0 c0.12 0 0.19666 -0.02334 0.23 -0.07 s0.05 -0.12332 0.05 -0.22998 l0 -8.84 c0 -0.18666 -0.08666 -0.28 -0.26 -0.28 l-1.14 0 z M25.54 17.94 c0 0.28 -0.03334 0.54334 -0.1 0.79 s-0.18 0.46332 -0.34 0.64998 s-0.37334 0.33666 -0.64 0.45 s-0.6 0.17 -1 0.17 l-3.36 0 c-0.4 0 -0.73334 -0.05666 -1 -0.17 s-0.48 -0.26334 -0.64 -0.45 s-0.27334 -0.40332 -0.34 -0.64998 s-0.1 -0.51 -0.1 -0.79 l0 -10.56 c0 -0.57334 0.15666 -1.03 0.47 -1.37 s0.81 -0.51 1.49 -0.51 l3.6 0 c0.68 0 1.1767 0.17 1.49 0.51 s0.47 0.79666 0.47 1.37 l0 10.56 z M29.560000000000002 13.16 l0 6.84 l-2.82 0 l0 -14.5 l3.06 0 l1.58 6.12 l1.58 -6.12 l3.08 0 l0 14.5 l-2.82 0 l0 -6.84 l-1.84 5.8 z M40.14 8.04 l0 5 l1.42 0 c0.18666 0 0.28 -0.1 0.28 -0.3 l0 -4.4 c0 -0.2 -0.09334 -0.3 -0.28 -0.3 l-1.42 0 z M44.7 14.1 c0 0.32 -0.11 0.61334 -0.33 0.88 s-0.54334 0.4 -0.97 0.4 l1.52 4.62 l-3 0 l-1.4 -4.62 l-0.38 0 l0 4.62 l-2.9 0 l0 -14.5 l5.5 0 c0.68 0 1.1767 0.17 1.49 0.51 s0.47 0.79666 0.47 1.37 l0 6.72 z M45.940000000000005 5.5 l5.64 0 l0.5 2.7 l-3.16 0 l0 3.44 l2.4 0 l0 2.5 l-2.4 0 l0 3.16 l3.04 0 l-0.5 2.7 l-5.52 0 l0 -14.5 z M55.74000000000001 18.2 l-0.26 1.8 l-2.92 0 l2.62 -14.5 l3.1 0 l2.62 14.5 l-2.92 0 l-0.26 -1.8 l-1.98 0 z M56.06000000000001 15.9 l1.34 0 l-0.66 -5.14 z M64.58000000000001 8.04 l0 9.42 l1.36 0 c0.12 0 0.19666 -0.02334 0.23 -0.07 s0.05 -0.12332 0.05 -0.22998 l0 -8.84 c0 -0.18666 -0.08666 -0.28 -0.26 -0.28 l-1.38 0 z M69.10000000000001 17.759999999999998 c0 0.8 -0.16666 1.3733 -0.5 1.72 s-0.92 0.52 -1.76 0.52 l-5.14 0 l0 -14.5 l5.68 0 c0.57334 0 1.0033 0.16 1.29 0.48 s0.43 0.74666 0.43 1.28 l0 10.5 z M75.64000000000001 20 l-3.06 0 l0 -3.68 l-2.78 -10.82 l3 0 l1.3 6.84 l1.32 -6.84 l3 0 l-2.78 10.82 l0 3.68 z" fill="#111111"></path></g><g id="SvgjsG1009" featurekey="mlRtrp-0" transform="matrix(0.19015535195511016,0,0,0.19015535195511016,149.60074985379137,60.81344098406091)" fill="#111111"><path d="M2.0996 20 l0 -13.418 l3.623 0 l0 13.418 l-3.623 0 z M37.515234375 20 l-9.0527 -9.2188 l0 9.2188 l-3.623 0 l0 -13.418 l3.9355 0 l9.0625 9.2578 l0 -9.2578 l3.6035 0 l0 13.418 l-3.9258 0 z M72.921984375 10.3613 c-0.25391 -0.1237 -0.58916 -0.26372 -1.0059 -0.41997 s-0.88867 -0.30437 -1.416 -0.44434 s-1.1003 -0.25716 -1.7188 -0.35156 s-1.2532 -0.1416 -1.9043 -0.1416 c-0.52083 0 -0.96517 0.016279 -1.333 0.048828 s-0.67709 0.074863 -0.92774 0.12694 s-0.44922 0.1123 -0.5957 0.18066 s-0.25879 0.13835 -0.33691 0.20996 s-0.12858 0.14322 -0.15137 0.21483 s-0.03418 0.13672 -0.03418 0.19531 c0 0.19531 0.097656 0.36621 0.29297 0.5127 s0.46224 0.27669 0.80078 0.39063 s0.73242 0.22136 1.1816 0.32227 s0.9261 0.20508 1.4307 0.3125 s1.0254 0.22461 1.5625 0.35156 s1.0579 0.27507 1.5625 0.44434 s0.98145 0.36621 1.4307 0.59082 s0.8431 0.48665 1.1816 0.78613 s0.60547 0.64453 0.80078 1.0352 s0.29297 0.83659 0.29297 1.3379 c0 0.64453 -0.11394 1.1979 -0.3418 1.6602 s-0.53223 0.85286 -0.91309 1.1719 s-0.82194 0.57455 -1.3232 0.76661 s-1.0271 0.34018 -1.5771 0.44435 s-1.1067 0.17253 -1.6699 0.20508 s-1.0986 0.048828 -1.6064 0.048828 c-1.3281 0 -2.5569 -0.10905 -3.6865 -0.32715 s-2.1272 -0.4899 -2.9932 -0.81542 l0 -3.2031 c0.89192 0.49479 1.9092 0.88217 3.0518 1.1621 s2.3649 0.41992 3.667 0.41992 c0.76823 0 1.3948 -0.040693 1.8799 -0.12207 s0.86426 -0.18555 1.1377 -0.3125 s0.45898 -0.2653 0.55664 -0.41504 s0.14648 -0.29297 0.14648 -0.42969 c0 -0.21484 -0.097656 -0.40202 -0.29297 -0.56152 s-0.46224 -0.29947 -0.80078 -0.41991 s-0.73242 -0.23111 -1.1816 -0.33202 s-0.9261 -0.20182 -1.4307 -0.30272 s-1.0237 -0.20996 -1.5576 -0.32715 s-1.053 -0.25554 -1.5576 -0.41504 s-0.98145 -0.34505 -1.4307 -0.55664 s-0.8431 -0.46225 -1.1816 -0.75196 s-0.60547 -0.625 -0.80078 -1.0059 s-0.29297 -0.82194 -0.29297 -1.3232 c0 -0.59245 0.10417 -1.1035 0.3125 -1.5332 s0.4899 -0.7959 0.84472 -1.0986 s0.76497 -0.54851 1.2305 -0.7373 s0.95541 -0.33528 1.4697 -0.43945 s1.0352 -0.17578 1.5625 -0.21484 s1.0286 -0.058594 1.5039 -0.058594 c0.52083 0 1.0563 0.026045 1.6064 0.078125 s1.0921 0.12532 1.626 0.21973 s1.0498 0.20346 1.5479 0.32716 s0.95866 0.25391 1.3818 0.39063 l0 3.1055 z M99.90035 9.502 l0 10.498 l-3.623 0 l0 -10.498 l-5.6934 0 l0 -2.9199 l15.02 0 l0 2.9199 l-5.7031 0 z M132.914203125 17.4609 l-7.4805 0 l-1.2598 2.5391 l-4.043 0 l7.0215 -13.418 l4.043 0 l7.0215 13.418 l-4.043 0 z M126.732403125 14.8437 l4.9023 0 l-2.4414 -4.9414 z M168.007421875 20 l-9.0527 -9.2188 l0 9.2188 l-3.623 0 l0 -13.418 l3.9355 0 l9.0625 9.2578 l0 -9.2578 l3.6035 0 l0 13.418 l-3.9258 0 z M198.570271875 9.502 l0 10.498 l-3.623 0 l0 -10.498 l-5.6934 0 l0 -2.9199 l15.02 0 l0 2.9199 l-5.7031 0 z M259.323875 16.2988 c0 0.52083 -0.068369 0.97333 -0.20509 1.3574 s-0.32715 0.71451 -0.57129 0.99121 s-0.53711 0.5013 -0.87891 0.67383 s-0.7194 0.30925 -1.1328 0.41016 s-0.85449 0.1709 -1.3232 0.20996 s-0.95378 0.058594 -1.4551 0.058594 l-9.7363 0 l0 -13.418 l9.5605 0 c0.38411 0 0.76985 0.016279 1.1572 0.048828 s0.75684 0.092773 1.1084 0.18066 s0.67871 0.20996 0.98145 0.36621 s0.56641 0.36133 0.79102 0.61523 s0.40039 0.55989 0.52734 0.91797 s0.19043 0.78125 0.19043 1.2695 c0 0.87239 -0.21484 1.5642 -0.64453 2.0752 s-1.1067 0.85123 -2.0313 1.0205 c0.65104 0.045576 1.2093 0.14486 1.6748 0.29786 s0.84473 0.36133 1.1377 0.625 s0.50781 0.58594 0.64453 0.9668 s0.20508 0.8252 0.20508 1.333 z M254.802875 10.5566 c0 -0.16927 -0.026045 -0.3304 -0.078125 -0.4834 s-0.14648 -0.28809 -0.2832 -0.40527 s-0.32227 -0.21159 -0.55664 -0.2832 s-0.53386 -0.10742 -0.89844 -0.10742 l-5.3418 0 l0 2.5195 l5.3418 0 c0.36458 0 0.66406 -0.032549 0.89844 -0.097656 s0.41992 -0.153 0.55664 -0.26367 s0.23112 -0.24251 0.2832 -0.39551 s0.078125 -0.31413 0.078125 -0.4834 z M255.642875 15.8789 c0 -0.30599 -0.05208 -0.55177 -0.15625 -0.73731 s-0.26693 -0.32878 -0.48829 -0.42969 s-0.50781 -0.16764 -0.85938 -0.20019 s-0.77148 -0.048828 -1.2598 -0.048828 l-5.2344 0 l0 2.8418 l5.2344 0 c0.48828 0 0.9082 -0.016279 1.2598 -0.048828 s0.63802 -0.10091 0.85938 -0.20508 s0.38412 -0.24902 0.48829 -0.43457 s0.15625 -0.43132 0.15625 -0.7373 z M294.906359375 13.300799999999999 c0 1.1523 -0.21159 2.1696 -0.63477 3.0518 s-1.0286 1.6194 -1.8164 2.2119 s-1.7432 1.04 -2.8662 1.3428 s-2.3845 0.4541 -3.7842 0.4541 s-2.6644 -0.15137 -3.7939 -0.4541 s-2.0915 -0.75032 -2.8857 -1.3428 s-1.4063 -1.3298 -1.8359 -2.2119 s-0.64453 -1.8994 -0.64453 -3.0518 s0.21484 -2.1696 0.64453 -3.0518 s1.0417 -1.6194 1.8359 -2.2119 s1.7562 -1.04 2.8857 -1.3428 s2.3942 -0.4541 3.7939 -0.4541 s2.6611 0.15137 3.7842 0.4541 s2.0784 0.75032 2.8662 1.3428 s1.3933 1.3298 1.8164 2.2119 s0.63477 1.8994 0.63477 3.0518 z M291.244359375 13.300799999999999 c0 -0.5013 -0.079756 -1.001 -0.23926 -1.499 s-0.44271 -0.94563 -0.84961 -1.3428 s-0.96191 -0.7194 -1.665 -0.9668 s-1.5983 -0.37109 -2.6855 -0.37109 c-0.72917 0 -1.3704 0.056963 -1.9238 0.1709 s-1.0319 0.27182 -1.4355 0.47364 s-0.74219 0.43783 -1.0156 0.70802 s-0.49153 0.5599 -0.6543 0.86915 s-0.27832 0.63151 -0.34668 0.9668 s-0.10254 0.66568 -0.10254 0.99121 c0 0.33203 0.03418 0.66731 0.10254 1.0059 s0.18392 0.66244 0.34668 0.97169 s0.38086 0.59733 0.6543 0.86426 s0.61198 0.49967 1.0156 0.69823 s0.88216 0.35481 1.4355 0.46875 s1.1946 0.1709 1.9238 0.1709 c1.0872 0 1.9824 -0.1237 2.6855 -0.37109 s1.2581 -0.56966 1.665 -0.9668 s0.69011 -0.84473 0.84961 -1.3428 s0.23926 -0.99775 0.23926 -1.499 z M330.488390625 13.300799999999999 c0 1.1523 -0.21159 2.1696 -0.63477 3.0518 s-1.0286 1.6194 -1.8164 2.2119 s-1.7432 1.04 -2.8662 1.3428 s-2.3845 0.4541 -3.7842 0.4541 s-2.6644 -0.15137 -3.7939 -0.4541 s-2.0915 -0.75032 -2.8857 -1.3428 s-1.4063 -1.3298 -1.8359 -2.2119 s-0.64453 -1.8994 -0.64453 -3.0518 s0.21484 -2.1696 0.64453 -3.0518 s1.0417 -1.6194 1.8359 -2.2119 s1.7562 -1.04 2.8857 -1.3428 s2.3942 -0.4541 3.7939 -0.4541 s2.6611 0.15137 3.7842 0.4541 s2.0784 0.75032 2.8662 1.3428 s1.3933 1.3298 1.8164 2.2119 s0.63477 1.8994 0.63477 3.0518 z M326.826390625 13.300799999999999 c0 -0.5013 -0.079756 -1.001 -0.23926 -1.499 s-0.44271 -0.94563 -0.84961 -1.3428 s-0.96191 -0.7194 -1.665 -0.9668 s-1.5983 -0.37109 -2.6855 -0.37109 c-0.72917 0 -1.3704 0.056963 -1.9238 0.1709 s-1.0319 0.27182 -1.4355 0.47364 s-0.74219 0.43783 -1.0156 0.70802 s-0.49153 0.5599 -0.6543 0.86915 s-0.27832 0.63151 -0.34668 0.9668 s-0.10254 0.66568 -0.10254 0.99121 c0 0.33203 0.03418 0.66731 0.10254 1.0059 s0.18392 0.66244 0.34668 0.97169 s0.38086 0.59733 0.6543 0.86426 s0.61198 0.49967 1.0156 0.69823 s0.88216 0.35481 1.4355 0.46875 s1.1946 0.1709 1.9238 0.1709 c1.0872 0 1.9824 -0.1237 2.6855 -0.37109 s1.2581 -0.56966 1.665 -0.9668 s0.69011 -0.84473 0.84961 -1.3428 s0.23926 -0.99775 0.23926 -1.499 z M352.349621875 11.6992 l7.4219 -5.1172 l4.8535 0 l-9.0332 6.4355 l9.6387 6.9824 l-5.2832 0 l-7.5977 -5.5762 l0 5.5762 l-3.6426 0 l0 -13.418 l3.6426 0 l0 5.1172 z M382.2480375 20 l0 -13.418 l3.623 0 l0 13.418 l-3.623 0 z M417.663671875 20 l-9.0527 -9.2188 l0 9.2188 l-3.623 0 l0 -13.418 l3.9355 0 l9.0625 9.2578 l0 -9.2578 l3.6035 0 l0 13.418 l-3.9258 0 z M449.349421875 6.24 c1.3151 0 2.5375 0.11229 3.667 0.33689 s2.1663 0.5127 3.1104 0.86426 l0 3.2813 c-0.37109 -0.20833 -0.78938 -0.41016 -1.2549 -0.60547 s-0.97168 -0.36784 -1.5186 -0.51758 s-1.1328 -0.27018 -1.7578 -0.36132 s-1.2825 -0.13672 -1.9727 -0.13672 c-0.85938 0 -1.6081 0.061846 -2.2461 0.18555 s-1.1849 0.28972 -1.6406 0.49805 s-0.83008 0.45084 -1.123 0.72753 s-0.52409 0.57129 -0.69336 0.88379 s-0.28646 0.63151 -0.35156 0.95703 s-0.097656 0.64127 -0.097656 0.94726 c0 0.26692 0.027666 0.55664 0.083008 0.86914 s0.15951 0.625 0.31251 0.9375 s0.36621 0.61198 0.63965 0.89844 s0.62988 0.54036 1.0693 0.76172 s0.96843 0.39877 1.5869 0.53224 s1.3542 0.2002 2.207 0.2002 c0.42969 0 0.80403 -0.013018 1.123 -0.039063 s0.61035 -0.061855 0.87402 -0.10743 s0.51106 -0.10092 0.74219 -0.16603 s0.47038 -0.13347 0.71777 -0.20508 l0 -1.6211 l-4.0625 0 l0 -2.9395 l7.6855 0 l0 6.8555 c-0.48177 0.16276 -1.0205 0.31088 -1.6162 0.44435 s-1.2109 0.2474 -1.8457 0.34181 s-1.2712 0.16765 -1.9092 0.21973 s-1.2402 0.078125 -1.8066 0.078125 c-0.87891 0 -1.722 -0.058594 -2.5293 -0.17578 s-1.5608 -0.29785 -2.2607 -0.54199 s-1.3379 -0.55501 -1.9141 -0.93262 s-1.0677 -0.82683 -1.4746 -1.3477 s-0.72266 -1.1182 -0.94727 -1.792 s-0.33691 -1.4307 -0.33691 -2.2705 c0 -0.83333 0.11719 -1.5886 0.35156 -2.2656 s0.56152 -1.2761 0.98145 -1.7969 s0.92448 -0.97005 1.5137 -1.3477 s1.237 -0.68848 1.9434 -0.93262 s1.4616 -0.4248 2.2656 -0.54199 s1.6325 -0.17578 2.4854 -0.17578 z M487.6270625 10.3613 c-0.25391 -0.1237 -0.58916 -0.26372 -1.0059 -0.41997 s-0.88867 -0.30437 -1.416 -0.44434 s-1.1003 -0.25716 -1.7188 -0.35156 s-1.2532 -0.1416 -1.9043 -0.1416 c-0.52083 0 -0.96517 0.016279 -1.333 0.048828 s-0.67709 0.074863 -0.92774 0.12694 s-0.44922 0.1123 -0.5957 0.18066 s-0.25879 0.13835 -0.33691 0.20996 s-0.12858 0.14322 -0.15137 0.21483 s-0.03418 0.13672 -0.03418 0.19531 c0 0.19531 0.097656 0.36621 0.29297 0.5127 s0.46224 0.27669 0.80078 0.39063 s0.73242 0.22136 1.1816 0.32227 s0.9261 0.20508 1.4307 0.3125 s1.0254 0.22461 1.5625 0.35156 s1.0579 0.27507 1.5625 0.44434 s0.98145 0.36621 1.4307 0.59082 s0.8431 0.48665 1.1816 0.78613 s0.60547 0.64453 0.80078 1.0352 s0.29297 0.83659 0.29297 1.3379 c0 0.64453 -0.11394 1.1979 -0.3418 1.6602 s-0.53223 0.85286 -0.91309 1.1719 s-0.82194 0.57455 -1.3232 0.76661 s-1.0271 0.34018 -1.5771 0.44435 s-1.1067 0.17253 -1.6699 0.20508 s-1.0986 0.048828 -1.6064 0.048828 c-1.3281 0 -2.5569 -0.10905 -3.6865 -0.32715 s-2.1272 -0.4899 -2.9932 -0.81542 l0 -3.2031 c0.89192 0.49479 1.9092 0.88217 3.0518 1.1621 s2.3649 0.41992 3.667 0.41992 c0.76823 0 1.3948 -0.040693 1.8799 -0.12207 s0.86426 -0.18555 1.1377 -0.3125 s0.45898 -0.2653 0.55664 -0.41504 s0.14648 -0.29297 0.14648 -0.42969 c0 -0.21484 -0.097656 -0.40202 -0.29297 -0.56152 s-0.46224 -0.29947 -0.80078 -0.41991 s-0.73242 -0.23111 -1.1816 -0.33202 s-0.9261 -0.20182 -1.4307 -0.30272 s-1.0237 -0.20996 -1.5576 -0.32715 s-1.053 -0.25554 -1.5576 -0.41504 s-0.98145 -0.34505 -1.4307 -0.55664 s-0.8431 -0.46225 -1.1816 -0.75196 s-0.60547 -0.625 -0.80078 -1.0059 s-0.29297 -0.82194 -0.29297 -1.3232 c0 -0.59245 0.10417 -1.1035 0.3125 -1.5332 s0.4899 -0.7959 0.84472 -1.0986 s0.76497 -0.54851 1.2305 -0.7373 s0.95541 -0.33528 1.4697 -0.43945 s1.0352 -0.17578 1.5625 -0.21484 s1.0286 -0.058594 1.5039 -0.058594 c0.52083 0 1.0563 0.026045 1.6064 0.078125 s1.0921 0.12532 1.626 0.21973 s1.0498 0.20346 1.5479 0.32716 s0.95866 0.25391 1.3818 0.39063 l0 3.1055 z M507.964828125 21.9824 l-2.9785 0 l0.80078 -5.498 l3.6035 0 z M549.246084375 20 l0 -13.418 l3.623 0 l0 13.418 l-3.623 0 z M584.66171875 20 l-9.0527 -9.2188 l0 9.2188 l-3.623 0 l0 -13.418 l3.9355 0 l9.0625 9.2578 l0 -9.2578 l3.6035 0 l0 13.418 l-3.9258 0 z M611.32816875 9.443 l0 2.334 l8.7207 0 l0 2.8613 l-8.7207 0 l0 5.3613 l-3.623 0 l0 -13.418 l12.822 0 l0 2.8613 l-9.1992 0 z M638.54100625 20 l0 -13.418 l3.623 0 l0 13.418 l-3.623 0 z M673.956640625 20 l-9.0527 -9.2188 l0 9.2188 l-3.623 0 l0 -13.418 l3.9355 0 l9.0625 9.2578 l0 -9.2578 l3.6035 0 l0 13.418 l-3.9258 0 z M696.999990625 20 l0 -13.418 l3.623 0 l0 13.418 l-3.623 0 z M727.259725 9.502 l0 10.498 l-3.623 0 l0 -10.498 l-5.6934 0 l0 -2.9199 l15.02 0 l0 2.9199 l-5.7031 0 z M750.273428125 20 l0 -13.418 l13.584 0 l0 2.8613 l-9.8633 0 l0 2.2168 l9.3555 0 l0 2.8613 l-9.3555 0 l0 2.6172 l10 0 l0 2.8613 l-13.721 0 z M821.90609375 20 l0 -9.4238 l-4.9805 9.4238 l-3.4766 0 l-4.9805 -9.4238 l0 9.4238 l-3.623 0 l0 -13.418 l4.9219 0 l5.4199 10.156 l5.4199 -10.156 l4.9023 0 l0 13.418 l-3.6035 0 z M844.62694375 20 l0 -13.418 l13.584 0 l0 2.8613 l-9.8633 0 l0 2.2168 l9.3555 0 l0 2.8613 l-9.3555 0 l0 2.6172 l10 0 l0 2.8613 l-13.721 0 z M893.822109375 20 l0 -9.4238 l-4.9805 9.4238 l-3.4766 0 l-4.9805 -9.4238 l0 9.4238 l-3.623 0 l0 -13.418 l4.9219 0 l5.4199 10.156 l5.4199 -10.156 l4.9023 0 l0 13.418 l-3.6035 0 z M933.906359375 13.300799999999999 c0 1.1523 -0.21159 2.1696 -0.63477 3.0518 s-1.0286 1.6194 -1.8164 2.2119 s-1.7432 1.04 -2.8662 1.3428 s-2.3845 0.4541 -3.7842 0.4541 s-2.6644 -0.15137 -3.7939 -0.4541 s-2.0915 -0.75032 -2.8857 -1.3428 s-1.4063 -1.3298 -1.8359 -2.2119 s-0.64453 -1.8994 -0.64453 -3.0518 s0.21484 -2.1696 0.64453 -3.0518 s1.0417 -1.6194 1.8359 -2.2119 s1.7562 -1.04 2.8857 -1.3428 s2.3942 -0.4541 3.7939 -0.4541 s2.6611 0.15137 3.7842 0.4541 s2.0784 0.75032 2.8662 1.3428 s1.3933 1.3298 1.8164 2.2119 s0.63477 1.8994 0.63477 3.0518 z M930.244359375 13.300799999999999 c0 -0.5013 -0.079756 -1.001 -0.23926 -1.499 s-0.44271 -0.94563 -0.84961 -1.3428 s-0.96191 -0.7194 -1.665 -0.9668 s-1.5983 -0.37109 -2.6855 -0.37109 c-0.72917 0 -1.3704 0.056963 -1.9238 0.1709 s-1.0319 0.27182 -1.4355 0.47364 s-0.74219 0.43783 -1.0156 0.70802 s-0.49153 0.5599 -0.6543 0.86915 s-0.27832 0.63151 -0.34668 0.9668 s-0.10254 0.66568 -0.10254 0.99121 c0 0.33203 0.03418 0.66731 0.10254 1.0059 s0.18392 0.66244 0.34668 0.97169 s0.38086 0.59733 0.6543 0.86426 s0.61198 0.49967 1.0156 0.69823 s0.88216 0.35481 1.4355 0.46875 s1.1946 0.1709 1.9238 0.1709 c1.0872 0 1.9824 -0.1237 2.6855 -0.37109 s1.2581 -0.56966 1.665 -0.9668 s0.69011 -0.84473 0.84961 -1.3428 s0.23926 -0.99775 0.23926 -1.499 z M955.748090625 20 l-3.623 0 l0 -13.418 l9.082 0 c0.97656 0 1.805 0.10091 2.4854 0.30273 s1.2337 0.48828 1.6602 0.85938 s0.73568 0.81868 0.92774 1.3428 s0.28809 1.1084 0.28809 1.7529 c0 0.56641 -0.079756 1.0612 -0.23926 1.4844 s-0.37435 0.78613 -0.64453 1.0889 s-0.58432 0.55827 -0.94239 0.7666 s-0.73568 0.38086 -1.1328 0.51758 l4.3945 5.3027 l-4.2383 0 l-4.0625 -4.9414 l-3.9551 0 l0 4.9414 z M962.906390625 10.8203 c0 -0.26042 -0.03418 -0.48174 -0.10254 -0.66403 s-0.18718 -0.33041 -0.35645 -0.44435 s-0.39551 -0.19694 -0.67871 -0.24902 s-0.6364 -0.078125 -1.0596 -0.078125 l-4.9609 0 l0 2.8711 l4.9609 0 c0.42317 0 0.77637 -0.026045 1.0596 -0.078125 s0.50944 -0.13509 0.67871 -0.24902 s0.28809 -0.26205 0.35645 -0.44435 s0.10254 -0.40365 0.10254 -0.66407 z M985.519521875 20 l0 -13.418 l3.623 0 l0 13.418 l-3.623 0 z M1008.25975625 20 l0 -13.418 l13.584 0 l0 2.8613 l-9.8633 0 l0 2.2168 l9.3555 0 l0 2.8613 l-9.3555 0 l0 2.6172 l10 0 l0 2.8613 l-13.721 0 z M1052.757921875 10.3613 c-0.25391 -0.1237 -0.58916 -0.26372 -1.0059 -0.41997 s-0.88867 -0.30437 -1.416 -0.44434 s-1.1003 -0.25716 -1.7188 -0.35156 s-1.2532 -0.1416 -1.9043 -0.1416 c-0.52083 0 -0.96517 0.016279 -1.333 0.048828 s-0.67709 0.074863 -0.92774 0.12694 s-0.44922 0.1123 -0.5957 0.18066 s-0.25879 0.13835 -0.33691 0.20996 s-0.12858 0.14322 -0.15137 0.21483 s-0.03418 0.13672 -0.03418 0.19531 c0 0.19531 0.097656 0.36621 0.29297 0.5127 s0.46224 0.27669 0.80078 0.39063 s0.73242 0.22136 1.1816 0.32227 s0.9261 0.20508 1.4307 0.3125 s1.0254 0.22461 1.5625 0.35156 s1.0579 0.27507 1.5625 0.44434 s0.98145 0.36621 1.4307 0.59082 s0.8431 0.48665 1.1816 0.78613 s0.60547 0.64453 0.80078 1.0352 s0.29297 0.83659 0.29297 1.3379 c0 0.64453 -0.11394 1.1979 -0.3418 1.6602 s-0.53223 0.85286 -0.91309 1.1719 s-0.82194 0.57455 -1.3232 0.76661 s-1.0271 0.34018 -1.5771 0.44435 s-1.1067 0.17253 -1.6699 0.20508 s-1.0986 0.048828 -1.6064 0.048828 c-1.3281 0 -2.5569 -0.10905 -3.6865 -0.32715 s-2.1272 -0.4899 -2.9932 -0.81542 l0 -3.2031 c0.89192 0.49479 1.9092 0.88217 3.0518 1.1621 s2.3649 0.41992 3.667 0.41992 c0.76823 0 1.3948 -0.040693 1.8799 -0.12207 s0.86426 -0.18555 1.1377 -0.3125 s0.45898 -0.2653 0.55664 -0.41504 s0.14648 -0.29297 0.14648 -0.42969 c0 -0.21484 -0.097656 -0.40202 -0.29297 -0.56152 s-0.46224 -0.29947 -0.80078 -0.41991 s-0.73242 -0.23111 -1.1816 -0.33202 s-0.9261 -0.20182 -1.4307 -0.30272 s-1.0237 -0.20996 -1.5576 -0.32715 s-1.053 -0.25554 -1.5576 -0.41504 s-0.98145 -0.34505 -1.4307 -0.55664 s-0.8431 -0.46225 -1.1816 -0.75196 s-0.60547 -0.625 -0.80078 -1.0059 s-0.29297 -0.82194 -0.29297 -1.3232 c0 -0.59245 0.10417 -1.1035 0.3125 -1.5332 s0.4899 -0.7959 0.84472 -1.0986 s0.76497 -0.54851 1.2305 -0.7373 s0.95541 -0.33528 1.4697 -0.43945 s1.0352 -0.17578 1.5625 -0.21484 s1.0286 -0.058594 1.5039 -0.058594 c0.52083 0 1.0563 0.026045 1.6064 0.078125 s1.0921 0.12532 1.626 0.21973 s1.0498 0.20346 1.5479 0.32716 s0.95866 0.25391 1.3818 0.39063 l0 3.1055 z" fill="#111111"></path></g></svg>