<svg xmlns:xlink="http://www.w3.org/1999/xlink" xmlns="http://www.w3.org/2000/svg" id="Hbbi75Q5P" viewBox="0 0 350 102.33124345675925" height="102.33124345675925" width="350" style="width: 350px; height: 102.331px; position: absolute; top: 50%; left: 50%; transform: translate(-50%, -50%) scale(0.598286); z-index: 0; cursor: pointer; overflow: visible;"><defs id="SvgjsDefs1052"></defs><g id="SvgjsG1053" featurekey="HWvxnO-0" transform="matrix(2.9239766827340743,0,0,2.9239766827340743,0.000005577042928188466,-4.79531718650868)" fill="#FFFFFF"><path d="M30.98 23.36 c0 -0.1 0.12 -0.16 0.22 -0.16 c0.14 0 0.26 0.06 0.26 0.18 c0 0 -2.6 5.58 -7.18 5.58 c-9.78 0 -7.32 -12.4 -10.32 -12.4 c-0.04 0 -0.1 -0.02 -0.14 -0.02 c-2.08 3.6 -4.76 6.44 -8.94 6.44 c-4.08 0 -4.88 -2.9 -4.88 -3.44 c0 -0.22 0.12 -0.36 0.22 -0.36 c0.08 0 0.18 0.12 0.18 0.36 c0 0.34 1.06 2.96 4.38 2.96 c6.28 0 9.26 -14.94 15.38 -19.54 l0.18 -0.12 c-0.96 -0.42 -2.2 -0.68 -3.76 -0.68 c-8.16 0 -12.56 7.22 -12.56 11.74 c0 2.06 0.92 3.56 2.8 3.56 c3.32 0 7.24 -5 7.24 -8.26 c0 -1.58 -0.92 -2.76 -3.28 -2.76 c-0.26 0 -0.38 -0.1 -0.38 -0.2 s0.12 -0.2 0.38 -0.2 c2.56 0 3.58 1.4 3.58 3.24 c0 3.5 -3.72 8.58 -7.54 8.58 c-2.66 0 -3.84 -1.62 -3.84 -3.84 c0 -4.8 5.48 -12.34 13.6 -12.34 c1.8 0 3.28 0.28 4.44 0.74 c0.88 -0.5 1.82 -0.78 2.84 -0.78 c1.44 0 2.28 0.84 2.28 1.76 c0 0.46 -0.44 1.48 -1.04 1.48 c-0.14 0 -0.22 -0.06 -0.22 -0.16 c0 -0.06 0.02 -0.14 0.1 -0.22 c0.3 -0.3 0.48 -0.72 0.48 -1.14 c0 -0.72 -0.52 -1.4 -1.58 -1.4 c-0.82 0 -1.56 0.26 -2.24 0.74 c2 1.02 2.88 2.7 2.88 4.54 c0 3.92 -3.98 8.54 -9.74 9.02 c3.36 1.64 3.52 12.22 9.78 12.22 c3.66 0 6.42 -5.12 6.42 -5.12 z M20.82 3.3999999999999986 c-2.5 2.52 -4.14 7.92 -6.58 12.4 c4.84 -0.22 8.78 -5 8.78 -8.84 c0 -1.5 -0.62 -2.88 -2 -3.76 c-0.06 0.08 -0.14 0.14 -0.2 0.2 z M33.660000000000004 15.3 l0.32 0.02 s-0.98 2.18 -3.48 2.18 c-0.22 0 -0.44 -0.02 -0.66 -0.04 c-0.94 1.46 -2.18 2.54 -3.4 2.54 c-1.68 0 -2.38 -1.22 -2.38 -2.82 c0 -2.96 2.42 -7.18 5.48 -7.18 c1.42 0 2 1.02 2 2.42 s-0.58 3.16 -1.46 4.64 c0.18 0.02 0.38 0.04 0.56 0.04 c2.1 0 3.02 -1.8 3.02 -1.8 z M29.400000000000002 16.96 c0.84 -1.5 1.46 -3.4 1.46 -4.74 c0 -1.02 -0.36 -1.72 -1.2 -1.72 c-1.18 0 -2.38 1.92 -2.38 3.7 c0 1.22 0.56 2.38 2.12 2.76 z M26.6 19.48 c0.88 0 1.82 -0.9 2.58 -2.14 c-1.72 -0.46 -2.38 -1.82 -2.38 -3.26 c0 -0.24 0.02 -0.5 0.06 -0.76 c-0.76 1.5 -1.28 3.3 -1.28 4.56 c0 0.96 0.3 1.6 1.02 1.6 z M42.78000000000001 15.3 l0.32 0.02 s-0.98 2.18 -3.48 2.18 c-0.22 0 -0.44 -0.02 -0.66 -0.04 c-0.94 1.46 -2.18 2.54 -3.4 2.54 c-1.68 0 -2.38 -1.22 -2.38 -2.82 c0 -2.96 2.42 -7.18 5.48 -7.18 c1.42 0 2 1.02 2 2.42 s-0.58 3.16 -1.46 4.64 c0.18 0.02 0.38 0.04 0.56 0.04 c2.1 0 3.02 -1.8 3.02 -1.8 z M38.52000000000001 16.96 c0.84 -1.5 1.46 -3.4 1.46 -4.74 c0 -1.02 -0.36 -1.72 -1.2 -1.72 c-1.18 0 -2.38 1.92 -2.38 3.7 c0 1.22 0.56 2.38 2.12 2.76 z M35.720000000000006 19.48 c0.88 0 1.82 -0.9 2.58 -2.14 c-1.72 -0.46 -2.38 -1.82 -2.38 -3.26 c0 -0.24 0.02 -0.5 0.06 -0.76 c-0.76 1.5 -1.28 3.3 -1.28 4.56 c0 0.96 0.3 1.6 1.02 1.6 z M57.66000000000001 15.280000000000001 l0.34 0.02 s-1.78 4.7 -3.86 4.7 c-1.3 0 -2.22 -0.72 -2.22 -2.16 c0 -0.78 1.86 -5.94 1.86 -6.36 c0 -0.6 -0.36 -0.94 -0.84 -0.94 c-1.2 0 -2.5 2.34 -3.08 3.52 c-0.68 2.36 -1.88 5.94 -1.88 5.94 l-1.66 0 s2.44 -7.34 2.44 -8.52 c0 -0.6 -0.36 -0.94 -0.84 -0.94 c-1.18 0 -2.48 2.3 -3.06 3.5 l-1.98 5.96 l-1.78 0 l3.42 -10 l1.66 0 l-0.7 2.12 c0.7 -1.1 1.6 -2.12 2.58 -2.12 c1.3 0 2.22 0.72 2.22 2.16 c0 0.1 -0.02 0.24 -0.04 0.42 c0.7 -1.26 1.74 -2.58 2.84 -2.58 c1.28 0 2.22 0.72 2.22 2.16 c0 0.66 -1.86 5.24 -1.86 6.36 c0 0.6 0.36 0.94 0.84 0.94 c1.6 0 3.38 -4.18 3.38 -4.18 z M88.18 23.36 c0 -0.1 0.12 -0.16 0.22 -0.16 c0.14 0 0.26 0.06 0.26 0.18 c0 0 -2.6 5.58 -7.18 5.58 c-9.78 0 -7.32 -12.4 -10.32 -12.4 c-0.04 0 -0.1 -0.02 -0.14 -0.02 c-2.08 3.6 -4.76 6.44 -8.94 6.44 c-4.08 0 -4.88 -2.9 -4.88 -3.44 c0 -0.22 0.12 -0.36 0.22 -0.36 c0.08 0 0.18 0.12 0.18 0.36 c0 0.34 1.06 2.96 4.38 2.96 c6.28 0 9.26 -14.94 15.38 -19.54 l0.18 -0.12 c-0.96 -0.42 -2.2 -0.68 -3.76 -0.68 c-8.16 0 -12.56 7.22 -12.56 11.74 c0 2.06 0.92 3.56 2.8 3.56 c3.32 0 7.24 -5 7.24 -8.26 c0 -1.58 -0.92 -2.76 -3.28 -2.76 c-0.26 0 -0.38 -0.1 -0.38 -0.2 s0.12 -0.2 0.38 -0.2 c2.56 0 3.58 1.4 3.58 3.24 c0 3.5 -3.72 8.58 -7.54 8.58 c-2.66 0 -3.84 -1.62 -3.84 -3.84 c0 -4.8 5.48 -12.34 13.6 -12.34 c1.8 0 3.28 0.28 4.44 0.74 c0.88 -0.5 1.82 -0.78 2.84 -0.78 c1.44 0 2.28 0.84 2.28 1.76 c0 0.46 -0.44 1.48 -1.04 1.48 c-0.14 0 -0.22 -0.06 -0.22 -0.16 c0 -0.06 0.02 -0.14 0.1 -0.22 c0.3 -0.3 0.48 -0.72 0.48 -1.14 c0 -0.72 -0.52 -1.4 -1.58 -1.4 c-0.82 0 -1.56 0.26 -2.24 0.74 c2 1.02 2.88 2.7 2.88 4.54 c0 3.92 -3.98 8.54 -9.74 9.02 c3.36 1.64 3.52 12.22 9.78 12.22 c3.66 0 6.42 -5.12 6.42 -5.12 z M78.02000000000001 3.3999999999999986 c-2.5 2.52 -4.14 7.92 -6.58 12.4 c4.84 -0.22 8.78 -5 8.78 -8.84 c0 -1.5 -0.62 -2.88 -2 -3.76 c-0.06 0.08 -0.14 0.14 -0.2 0.2 z M89.04000000000002 15.26 l0.34 0.04 s-1.74 4.68 -4.9 4.68 c-2.92 0 -3.22 -2.16 -3.22 -3.06 c0 -1.74 1.36 -4.88 1.52 -4.88 c0 0 0.98 -2.06 3.1 -2.06 c1.1 0 1.6 0.7 1.6 1.64 c0 1.8 -1.84 4.46 -4.56 4.62 c-0.1 0.44 -0.14 0.8 -0.14 1.2 c0 0.54 0.16 2 1.84 2 c2.6 0 4.42 -4.18 4.42 -4.18 z M84.48000000000002 12 c0 0 -1.02 1.96 -1.46 3.78 c2.38 -0.22 4.02 -2.78 4.02 -4.26 c0 -0.6 -0.28 -1.04 -0.92 -1.04 c-0.92 0 -1.64 1.52 -1.64 1.52 z M99.22000000000001 15.26 l0.34 0.04 s-1.8 4.7 -3.88 4.7 c-1.28 0 -2.22 -0.72 -2.22 -2.18 c-0.86 1.28 -1.86 2.18 -2.76 2.18 c-1.5 0 -2.12 -1.16 -2.12 -2.68 c0 -2.96 2.36 -7.32 5.22 -7.32 c1.1 0 1.6 0.74 1.66 1.82 c0.42 -1.06 0.72 -1.82 0.72 -1.82 l1.66 0 s-2.84 7.34 -2.84 8.52 c0 0.6 0.36 0.94 0.82 0.94 c1.6 0 3.4 -4.2 3.4 -4.2 z M90.84000000000002 19.48 c1.64 0 4 -5.02 4 -7.56 c0 -0.84 -0.28 -1.42 -0.92 -1.42 c-1.7 0 -3.86 5.12 -3.86 7.64 c0 0.8 0.24 1.34 0.78 1.34 z M109.5 15.280000000000001 l0.34 0.02 s-1.8 4.7 -3.88 4.7 c-1.32 0 -2.22 -0.74 -2.22 -2.24 c-0.86 1.3 -1.88 2.24 -2.8 2.24 c-1.5 0 -2.12 -1.16 -2.12 -2.68 c0 -2.96 2.36 -7.32 5.22 -7.32 c0.96 0 1.46 0.58 1.62 1.44 c1.12 -3.22 2.32 -6.44 2.32 -6.44 l1.68 0 s-4.38 11.88 -4.38 13.52 c0 0.6 0.36 0.94 0.82 0.94 c1.6 0 3.4 -4.18 3.4 -4.18 z M101.08000000000001 19.48 c1.64 0 4 -5.02 4 -7.56 c0 -0.84 -0.28 -1.42 -0.92 -1.42 c-1.7 0 -3.86 5.12 -3.86 7.64 c0 0.8 0.24 1.34 0.78 1.34 z M119.7 15.32 c0 0 -1.24 3.74 -5.14 4.24 l-0.36 1.04 s-1.24 4.44 -4.46 4.44 c-1.14 0 -1.7 -0.72 -1.7 -1.64 c0 -1.12 0.82 -2.54 2.4 -3.42 c-1.1 -0.12 -1.86 -0.84 -1.86 -2.16 c0 -0.98 2.72 -7.82 2.72 -7.82 l1.66 0 s-2.86 7.34 -2.86 8.52 c0 0.6 0.38 0.94 0.84 0.94 c1.4 0 2.94 -3.2 3.32 -4 l1.86 -5.44 l1.66 0 l-3.08 9.1 c3.5 -0.52 4.66 -3.82 4.66 -3.82 z M113.48 17.7 c-0.36 0.62 -0.8 1.22 -1.28 1.66 c0.24 -0.06 0.48 -0.1 0.76 -0.12 z M111.98 22.08 l0.82 -2.42 c-2.7 0.38 -4.04 2.38 -4.04 3.68 c0 0.68 0.34 1.16 1.06 1.16 c1.32 0 2.16 -2.42 2.16 -2.42 z" fill="#FFFFFF"></path></g><g id="SvgjsG1054" featurekey="UyFMmJ-0" transform="matrix(0.8289910504594488,0,0,0.8289910504594488,34.585504474770275,83.98152636509836)" fill="#FFFFFF"><path d="M3.82 18.74 c0 0.5 0.38 0.64 1.44 0.74 l0 0.52 c-1.56 -0.06 -3.2 -0.06 -4.76 0 l0 -0.52 c1.06 -0.1 1.44 -0.24 1.44 -0.74 l0 -9.92 c0 -0.5 -0.38 -0.62 -1.44 -0.74 l0 -0.5 c1.56 0.06 3.2 0.06 4.76 0 l0 0.5 c-1.06 0.12 -1.44 0.24 -1.44 0.74 l0 9.92 z M13.559999999999999 7.58 c1.42 0.06 2.88 0.06 4.3 0 l0 0.5 c-1.24 0.14 -1.8 0.24 -1.8 0.74 l0 11.18 l-0.54 0 l-6.98 -10.72 l0 9.46 c0 0.5 0.58 0.62 1.82 0.74 l0 0.52 c-1.44 -0.06 -2.88 -0.06 -4.3 0 l0 -0.52 c1.28 -0.12 1.8 -0.24 1.8 -0.74 l0 -9.8 c0 -0.54 -0.52 -0.74 -1.58 -0.86 l0 -0.5 c1.14 0.06 2.26 0.06 3.4 0 l5.7 8.82 l0 -7.58 c0 -0.5 -0.52 -0.6 -1.82 -0.74 l0 -0.5 z M24.78 17.46 c0 -1.6 -1.36 -2.3 -2.9 -3 c-1.9 -0.88 -3.5 -1.9 -3.5 -3.94 c0 -1.8 1.36 -3.26 3.68 -3.26 c1.5 0 2 0.46 2.46 0.46 c0.22 0 0.38 -0.04 0.46 -0.3 l0.52 0 l0.14 2.62 l-0.32 -0.02 c-0.22 -0.02 -0.32 -0.06 -0.42 -0.3 c-0.5 -1.06 -1.52 -1.88 -2.76 -1.88 c-1.36 0 -2.14 0.96 -2.14 2.06 c0 1.36 0.92 1.98 2.48 2.72 c1.64 0.76 4.14 1.68 4.14 4.16 c0 2.2 -2.04 3.48 -4 3.48 c-1.66 0 -2.46 -0.76 -3.04 -0.76 c-0.3 0 -0.5 0.2 -0.58 0.48 l-0.56 0 l-0.18 -2.8 l0.48 0 c0.18 0 0.26 0.08 0.36 0.3 c0.5 1.14 1.58 2.14 3.26 2.14 c1.5 0 2.42 -0.88 2.42 -2.16 z M36.36 7.380000000000001 l0.44 0 l-0.7 2.72 l-0.54 0 c0.12 -1.42 0 -1.94 -0.82 -1.94 l-1.82 0 l0 10.58 c0 0.5 0.38 0.64 1.42 0.74 l0 0.52 c-1.54 -0.06 -3.2 -0.06 -4.74 0 l0 -0.52 c1.04 -0.1 1.42 -0.24 1.42 -0.74 l0 -10.58 l-1.64 0 c-0.82 0 -1.02 0.32 -1.82 1.94 l-0.54 0 l0.72 -2.72 l0.44 0 c0.5 0.14 0.76 0.2 1.7 0.2 l4.78 0 c0.94 0 1.22 -0.06 1.7 -0.2 z M46.72 18.24 c0.28 0.78 0.36 1.12 1.8 1.24 l0 0.52 c-1.56 -0.06 -3.26 -0.06 -4.84 0 l0 -0.52 c1.52 -0.12 1.38 -0.38 1.08 -1.18 l-0.92 -2.5 l-4.42 0 l-0.9 2.64 c-0.24 0.7 0.44 0.92 1.6 1.04 l0 0.52 c-1.3 -0.06 -2.92 -0.06 -4.18 0 l0 -0.52 c1.26 -0.12 1.7 -0.44 2.02 -1.36 l3.64 -10.64 l1.08 0 z M39.620000000000005 15.219999999999999 l4 0 l-2.08 -5.68 z M56.519999999999996 7.58 c1.42 0.06 2.88 0.06 4.3 0 l0 0.5 c-1.24 0.14 -1.8 0.24 -1.8 0.74 l0 11.18 l-0.54 0 l-6.98 -10.72 l0 9.46 c0 0.5 0.58 0.62 1.82 0.74 l0 0.52 c-1.44 -0.06 -2.88 -0.06 -4.3 0 l0 -0.52 c1.28 -0.12 1.8 -0.24 1.8 -0.74 l0 -9.8 c0 -0.54 -0.52 -0.74 -1.58 -0.86 l0 -0.5 c1.14 0.06 2.26 0.06 3.4 0 l5.7 8.82 l0 -7.58 c0 -0.5 -0.52 -0.6 -1.82 -0.74 l0 -0.5 z M70.75999999999999 7.380000000000001 l0.44 0 l-0.7 2.72 l-0.54 0 c0.12 -1.42 0 -1.94 -0.82 -1.94 l-1.82 0 l0 10.58 c0 0.5 0.38 0.64 1.42 0.74 l0 0.52 c-1.54 -0.06 -3.2 -0.06 -4.74 0 l0 -0.52 c1.04 -0.1 1.42 -0.24 1.42 -0.74 l0 -10.58 l-1.64 0 c-0.82 0 -1.02 0.32 -1.82 1.94 l-0.54 0 l0.72 -2.72 l0.44 0 c0.5 0.14 0.76 0.2 1.7 0.2 l4.78 0 c0.94 0 1.22 -0.06 1.7 -0.2 z M83.42 13.120000000000001 c2.32 0.28 3.74 1.56 3.74 3.34 c0 2.18 -1.84 3.54 -5.22 3.54 l-5.54 0 l0 -0.52 c1.06 -0.08 1.4 -0.22 1.4 -0.72 l0 -9.56 c0 -0.58 -0.28 -1 -1.36 -1.12 l0 -0.5 c1.74 0.08 3.24 0 4.46 0 c4 0 4.86 1.64 4.86 2.96 c0 1.06 -0.56 1.86 -2.34 2.58 z M79.68 8.2 l0 5.2 c3.22 -0.44 4.14 -1.14 4.14 -2.86 c0 -1.24 -0.76 -2.36 -2.74 -2.36 c-0.74 0 -1.04 0 -1.4 0.02 z M81.82000000000001 19.38 c2.34 0 3.32 -1.02 3.32 -2.84 c0 -1.62 -1.12 -3 -2.98 -3 l-2.48 0.4 l0 4.84 c0 0.5 0.06 0.6 1.16 0.6 l0.98 0 z M93.9 7.26 c3.32 0 5.64 2.82 5.64 6.52 c0 3.66 -2.22 6.48 -5.54 6.48 s-5.64 -2.84 -5.64 -6.54 c0 -3.66 2.22 -6.46 5.54 -6.46 z M94.22000000000001 19.66 c1.64 0 3.28 -1.26 3.28 -5.3 c0 -3.8 -1.64 -6.52 -3.92 -6.52 c-1.54 0 -3.18 1.28 -3.18 5.32 c0 3.78 1.64 6.5 3.82 6.5 z M106.48 7.26 c3.32 0 5.64 2.82 5.64 6.52 c0 3.66 -2.22 6.48 -5.54 6.48 s-5.64 -2.84 -5.64 -6.54 c0 -3.66 2.22 -6.46 5.54 -6.46 z M106.80000000000001 19.66 c1.64 0 3.28 -1.26 3.28 -5.3 c0 -3.8 -1.64 -6.52 -3.92 -6.52 c-1.54 0 -3.18 1.28 -3.18 5.32 c0 3.78 1.64 6.5 3.82 6.5 z M121.62 17.82 c0.96 1.26 2.04 1.88 2.68 1.94 l-0.56 0.52 c-1.64 0 -2.78 -0.3 -3.88 -1.8 l-2.96 -3.96 l-0.58 0.66 l0 3.56 c0 0.5 0.38 0.64 1.44 0.74 l0 0.52 c-1.56 -0.06 -3.2 -0.06 -4.76 0 l0 -0.52 c1.06 -0.1 1.44 -0.24 1.44 -0.74 l0 -9.92 c0 -0.5 -0.38 -0.62 -1.44 -0.74 l0 -0.5 c1.56 0.06 3.2 0.06 4.76 0 l0 0.5 c-1.06 0.12 -1.44 0.24 -1.44 0.74 l0 5.46 l4.72 -5.46 c0.48 -0.54 -0.34 -0.68 -1.26 -0.74 l0 -0.5 c1.32 0.06 2.66 0.06 4 0 l0 0.5 c-0.86 0.06 -1.4 0.12 -1.86 0.64 l-3.86 4.44 z M128.32000000000002 18.74 c0 0.5 0.38 0.64 1.44 0.74 l0 0.52 c-1.56 -0.06 -3.2 -0.06 -4.76 0 l0 -0.52 c1.06 -0.1 1.44 -0.24 1.44 -0.74 l0 -9.92 c0 -0.5 -0.38 -0.62 -1.44 -0.74 l0 -0.5 c1.56 0.06 3.2 0.06 4.76 0 l0 0.5 c-1.06 0.12 -1.44 0.24 -1.44 0.74 l0 9.92 z M138.06000000000003 7.58 c1.42 0.06 2.88 0.06 4.3 0 l0 0.5 c-1.24 0.14 -1.8 0.24 -1.8 0.74 l0 11.18 l-0.54 0 l-6.98 -10.72 l0 9.46 c0 0.5 0.58 0.62 1.82 0.74 l0 0.52 c-1.44 -0.06 -2.88 -0.06 -4.3 0 l0 -0.52 c1.28 -0.12 1.8 -0.24 1.8 -0.74 l0 -9.8 c0 -0.54 -0.52 -0.74 -1.58 -0.86 l0 -0.5 c1.14 0.06 2.26 0.06 3.4 0 l5.7 8.82 l0 -7.58 c0 -0.5 -0.52 -0.6 -1.82 -0.74 l0 -0.5 z M149.56000000000003 14.120000000000001 c1.44 0.04 3.28 0.04 4.62 -0.02 l0 0.52 l-0.48 0.08 c-0.88 0.14 -0.78 1.02 -0.78 2.54 c0 0.6 0.02 1.22 0.06 1.76 l0.38 0.04 c0.1 0.02 0.14 0.08 0.14 0.16 l0 0.44 c-0.32 -0.06 -0.64 -0.06 -0.86 -0.06 c-1.5 0 -2.04 0.68 -4.2 0.68 c-3.4 0 -5.78 -2.84 -5.78 -6.54 c0 -3.68 2.28 -6.46 5.6 -6.46 c1.4 0 1.78 0.38 3 0.38 c0.2 0 0.32 0 0.6 -0.04 c0.22 1.14 0.5 2.18 1.04 3.4 l-0.92 0 c-0.82 -1.98 -1.96 -3.16 -4 -3.16 c-1.58 0 -3.28 1.28 -3.28 5.32 c0 3.78 1.7 6.5 3.88 6.5 c2.5 0 2.58 -0.88 2.58 -3.42 c0 -1.24 0.06 -1.46 -1.08 -1.56 l-0.52 -0.06 l0 -0.5 z M161.60000000000005 17.46 c0 -1.6 -1.36 -2.3 -2.9 -3 c-1.9 -0.88 -3.5 -1.9 -3.5 -3.94 c0 -1.8 1.36 -3.26 3.68 -3.26 c1.5 0 2 0.46 2.46 0.46 c0.22 0 0.38 -0.04 0.46 -0.3 l0.52 0 l0.14 2.62 l-0.32 -0.02 c-0.22 -0.02 -0.32 -0.06 -0.42 -0.3 c-0.5 -1.06 -1.52 -1.88 -2.76 -1.88 c-1.36 0 -2.14 0.96 -2.14 2.06 c0 1.36 0.92 1.98 2.48 2.72 c1.64 0.76 4.14 1.68 4.14 4.16 c0 2.2 -2.04 3.48 -4 3.48 c-1.66 0 -2.46 -0.76 -3.04 -0.76 c-0.3 0 -0.5 0.2 -0.58 0.48 l-0.56 0 l-0.18 -2.8 l0.48 0 c0.18 0 0.26 0.08 0.36 0.3 c0.5 1.14 1.58 2.14 3.26 2.14 c1.5 0 2.42 -0.88 2.42 -2.16 z M166.16000000000005 22.06 c-0.12 0.1 -0.2 0.1 -0.3 0 l-0.14 -0.2 c0.36 -0.38 0.66 -1.02 0.66 -1.56 c0 -0.06 0 -0.14 -0.04 -0.2 c-0.1 0.02 -0.16 0.04 -0.32 0.04 c-0.52 0 -0.98 -0.44 -0.98 -1.02 c0 -0.66 0.48 -1.1 1.1 -1.1 c0.76 0 1.2 0.7 1.2 1.5 c0 0.94 -0.48 1.92 -1.18 2.54 z M176.66000000000005 18.74 c0 0.5 0.38 0.64 1.44 0.74 l0 0.52 c-1.56 -0.06 -3.2 -0.06 -4.76 0 l0 -0.52 c1.06 -0.1 1.44 -0.24 1.44 -0.74 l0 -9.92 c0 -0.5 -0.38 -0.62 -1.44 -0.74 l0 -0.5 c1.56 0.06 3.2 0.06 4.76 0 l0 0.5 c-1.06 0.12 -1.44 0.24 -1.44 0.74 l0 9.92 z M186.40000000000006 7.58 c1.42 0.06 2.88 0.06 4.3 0 l0 0.5 c-1.24 0.14 -1.8 0.24 -1.8 0.74 l0 11.18 l-0.54 0 l-6.98 -10.72 l0 9.46 c0 0.5 0.58 0.62 1.82 0.74 l0 0.52 c-1.44 -0.06 -2.88 -0.06 -4.3 0 l0 -0.52 c1.28 -0.12 1.8 -0.24 1.8 -0.74 l0 -9.8 c0 -0.54 -0.52 -0.74 -1.58 -0.86 l0 -0.5 c1.14 0.06 2.26 0.06 3.4 0 l5.7 8.82 l0 -7.58 c0 -0.5 -0.52 -0.6 -1.82 -0.74 l0 -0.5 z M200.06000000000006 7.9399999999999995 l0.26 2.12 l-0.54 0 l-0.22 -0.42 c-0.52 -1.04 -1.12 -1.46 -2.12 -1.46 l-2.48 0 c-0.1 0 -0.18 0.08 -0.18 0.18 l0 5.02 l2.62 0 c1 0 1.18 -0.54 1.36 -1.32 l0.5 0 c-0.1 1.08 -0.1 2.16 0 3.24 l-0.5 0 c-0.18 -0.8 -0.36 -1.32 -1.36 -1.32 l-2.62 0 l0 4.8 c0 0.5 0.34 0.6 1.4 0.7 l0 0.52 c-1.56 -0.06 -3.12 -0.06 -4.68 0 l0 -0.52 c1.06 -0.1 1.4 -0.2 1.4 -0.7 l0 -9.98 c0 -0.5 -0.34 -0.64 -1.4 -0.72 l0 -0.5 l8.22 0 c0.26 0 0.3 0.06 0.34 0.36 z M204.74000000000004 18.74 c0 0.5 0.38 0.64 1.44 0.74 l0 0.52 c-1.56 -0.06 -3.2 -0.06 -4.76 0 l0 -0.52 c1.06 -0.1 1.44 -0.24 1.44 -0.74 l0 -9.92 c0 -0.5 -0.38 -0.62 -1.44 -0.74 l0 -0.5 c1.56 0.06 3.2 0.06 4.76 0 l0 0.5 c-1.06 0.12 -1.44 0.24 -1.44 0.74 l0 9.92 z M214.48000000000005 7.58 c1.42 0.06 2.88 0.06 4.3 0 l0 0.5 c-1.24 0.14 -1.8 0.24 -1.8 0.74 l0 11.18 l-0.54 0 l-6.98 -10.72 l0 9.46 c0 0.5 0.58 0.62 1.82 0.74 l0 0.52 c-1.44 -0.06 -2.88 -0.06 -4.3 0 l0 -0.52 c1.28 -0.12 1.8 -0.24 1.8 -0.74 l0 -9.8 c0 -0.54 -0.52 -0.74 -1.58 -0.86 l0 -0.5 c1.14 0.06 2.26 0.06 3.4 0 l5.7 8.82 l0 -7.58 c0 -0.5 -0.52 -0.6 -1.82 -0.74 l0 -0.5 z M222.90000000000003 18.74 c0 0.5 0.38 0.64 1.44 0.74 l0 0.52 c-1.56 -0.06 -3.2 -0.06 -4.76 0 l0 -0.52 c1.06 -0.1 1.44 -0.24 1.44 -0.74 l0 -9.92 c0 -0.5 -0.38 -0.62 -1.44 -0.74 l0 -0.5 c1.56 0.06 3.2 0.06 4.76 0 l0 0.5 c-1.06 0.12 -1.44 0.24 -1.44 0.74 l0 9.92 z M234.48000000000002 7.380000000000001 l0.44 0 l-0.7 2.72 l-0.54 0 c0.12 -1.42 0 -1.94 -0.82 -1.94 l-1.82 0 l0 10.58 c0 0.5 0.38 0.64 1.42 0.74 l0 0.52 c-1.54 -0.06 -3.2 -0.06 -4.74 0 l0 -0.52 c1.04 -0.1 1.42 -0.24 1.42 -0.74 l0 -10.58 l-1.64 0 c-0.82 0 -1.02 0.32 -1.82 1.94 l-0.54 0 l0.72 -2.72 l0.44 0 c0.5 0.14 0.76 0.2 1.7 0.2 l4.78 0 c0.94 0 1.22 -0.06 1.7 -0.2 z M244.28000000000003 16.9 l0.58 0 c-0.34 1.08 -0.5 2.06 -0.58 3.08 c-3 -0.04 -5.62 -0.04 -8.56 0 l0 -0.6 c1.06 -0.1 1.4 -0.2 1.4 -0.7 l0 -9.88 c0 -0.5 -0.34 -0.64 -1.4 -0.72 l0 -0.5 l8.22 0 c0.26 0 0.3 0.06 0.34 0.36 l0.24 2.12 l-0.54 0 l-0.2 -0.42 c-0.54 -1.04 -1.14 -1.46 -2.12 -1.46 l-2.48 0 c-0.1 0 -0.18 0.08 -0.18 0.18 l0 5.02 l2.62 0 c1 0 1.18 -0.54 1.36 -1.32 l0.5 0 c-0.1 1.08 -0.1 2.16 0 3.24 l-0.5 0 c-0.18 -0.8 -0.36 -1.32 -1.36 -1.32 l-2.62 0 l0 5.22 c0 0.1 0.08 0.16 0.18 0.16 l2.26 0 c1.18 0 1.8 -0.36 2.2 -1.18 z M262.96000000000004 18.74 c0 0.5 0.38 0.64 1.42 0.74 l0 0.52 c-1.54 -0.06 -3.2 -0.06 -4.74 0 l0 -0.52 c1.04 -0.1 1.42 -0.24 1.42 -0.74 l0 -9.42 l-3.92 10.68 l-4.54 -10.72 l0 9.46 c0 0.5 0.58 0.62 1.84 0.74 l0 0.52 c-1.44 -0.06 -2.9 -0.06 -4.28 0 l0 -0.52 c1.24 -0.12 1.78 -0.24 1.78 -0.74 l0 -9.8 c0 -0.56 -0.54 -0.74 -1.58 -0.86 l0 -0.5 c1.16 0.06 2.32 0.06 3.48 0 l3.8 9.18 l3.38 -9.18 c1.06 0.06 2.24 0.06 3.32 0 l0 0.48 c-1 0.1 -1.38 0.24 -1.38 0.74 l0 9.94 z M273.74000000000007 16.9 l0.58 0 c-0.34 1.08 -0.5 2.06 -0.58 3.08 c-3 -0.04 -5.62 -0.04 -8.56 0 l0 -0.6 c1.06 -0.1 1.4 -0.2 1.4 -0.7 l0 -9.88 c0 -0.5 -0.34 -0.64 -1.4 -0.72 l0 -0.5 l8.22 0 c0.26 0 0.3 0.06 0.34 0.36 l0.24 2.12 l-0.54 0 l-0.2 -0.42 c-0.54 -1.04 -1.14 -1.46 -2.12 -1.46 l-2.48 0 c-0.1 0 -0.18 0.08 -0.18 0.18 l0 5.02 l2.62 0 c1 0 1.18 -0.54 1.36 -1.32 l0.5 0 c-0.1 1.08 -0.1 2.16 0 3.24 l-0.5 0 c-0.18 -0.8 -0.36 -1.32 -1.36 -1.32 l-2.62 0 l0 5.22 c0 0.1 0.08 0.16 0.18 0.16 l2.26 0 c1.18 0 1.8 -0.36 2.2 -1.18 z M288.0200000000001 18.74 c0 0.5 0.38 0.64 1.42 0.74 l0 0.52 c-1.54 -0.06 -3.2 -0.06 -4.74 0 l0 -0.52 c1.04 -0.1 1.42 -0.24 1.42 -0.74 l0 -9.42 l-3.92 10.68 l-4.54 -10.72 l0 9.46 c0 0.5 0.58 0.62 1.84 0.74 l0 0.52 c-1.44 -0.06 -2.9 -0.06 -4.28 0 l0 -0.52 c1.24 -0.12 1.78 -0.24 1.78 -0.74 l0 -9.8 c0 -0.56 -0.54 -0.74 -1.58 -0.86 l0 -0.5 c1.16 0.06 2.32 0.06 3.48 0 l3.8 9.18 l3.38 -9.18 c1.06 0.06 2.24 0.06 3.32 0 l0 0.48 c-1 0.1 -1.38 0.24 -1.38 0.74 l0 9.94 z M295.76000000000005 7.26 c3.32 0 5.64 2.82 5.64 6.52 c0 3.66 -2.22 6.48 -5.54 6.48 s-5.64 -2.84 -5.64 -6.54 c0 -3.66 2.22 -6.46 5.54 -6.46 z M296.08000000000004 19.66 c1.64 0 3.28 -1.26 3.28 -5.3 c0 -3.8 -1.64 -6.52 -3.92 -6.52 c-1.54 0 -3.18 1.28 -3.18 5.32 c0 3.78 1.64 6.5 3.82 6.5 z M310.06 17.12 c1.08 1.5 2.28 2.48 3.04 2.52 l-0.34 0.52 c-1.64 0 -2.88 -0.72 -4.32 -2.56 l-2.04 -2.64 c-0.06 0 -0.12 0.02 -0.18 0.02 l-0.56 0.06 l0 3.72 c0 0.5 0.34 0.64 1.4 0.72 l0 0.52 c-1.56 -0.06 -3.12 -0.06 -4.68 0 l0 -0.52 c1.06 -0.08 1.4 -0.22 1.4 -0.72 l0 -9.56 c0 -0.58 -0.28 -1 -1.36 -1.12 l0 -0.5 c1.74 0.08 3.56 0 4.82 0 c4.04 0 4.96 1.7 4.96 3.4 c0 1.42 -1.02 2.9 -3.94 3.64 z M305.65999999999997 8.18 l0 6.26 l0.6 -0.08 c3.1 -0.42 3.98 -1.76 3.98 -3.46 c0 -1.46 -0.84 -2.72 -2.78 -2.72 l-1.8 0 z M317.21999999999997 18.74 c0 0.5 0.38 0.64 1.44 0.74 l0 0.52 c-1.56 -0.06 -3.2 -0.06 -4.76 0 l0 -0.52 c1.06 -0.1 1.44 -0.24 1.44 -0.74 l0 -9.92 c0 -0.5 -0.38 -0.62 -1.44 -0.74 l0 -0.5 c1.56 0.06 3.2 0.06 4.76 0 l0 0.5 c-1.06 0.12 -1.44 0.24 -1.44 0.74 l0 9.92 z M328.21999999999997 16.9 l0.58 0 c-0.34 1.08 -0.5 2.06 -0.58 3.08 c-3 -0.04 -5.62 -0.04 -8.56 0 l0 -0.6 c1.06 -0.1 1.4 -0.2 1.4 -0.7 l0 -9.88 c0 -0.5 -0.34 -0.64 -1.4 -0.72 l0 -0.5 l8.22 0 c0.26 0 0.3 0.06 0.34 0.36 l0.24 2.12 l-0.54 0 l-0.2 -0.42 c-0.54 -1.04 -1.14 -1.46 -2.12 -1.46 l-2.48 0 c-0.1 0 -0.18 0.08 -0.18 0.18 l0 5.02 l2.62 0 c1 0 1.18 -0.54 1.36 -1.32 l0.5 0 c-0.1 1.08 -0.1 2.16 0 3.24 l-0.5 0 c-0.18 -0.8 -0.36 -1.32 -1.36 -1.32 l-2.62 0 l0 5.22 c0 0.1 0.08 0.16 0.18 0.16 l2.26 0 c1.18 0 1.8 -0.36 2.2 -1.18 z M336.41999999999996 17.46 c0 -1.6 -1.36 -2.3 -2.9 -3 c-1.9 -0.88 -3.5 -1.9 -3.5 -3.94 c0 -1.8 1.36 -3.26 3.68 -3.26 c1.5 0 2 0.46 2.46 0.46 c0.22 0 0.38 -0.04 0.46 -0.3 l0.52 0 l0.14 2.62 l-0.32 -0.02 c-0.22 -0.02 -0.32 -0.06 -0.42 -0.3 c-0.5 -1.06 -1.52 -1.88 -2.76 -1.88 c-1.36 0 -2.14 0.96 -2.14 2.06 c0 1.36 0.92 1.98 2.48 2.72 c1.64 0.76 4.14 1.68 4.14 4.16 c0 2.2 -2.04 3.48 -4 3.48 c-1.66 0 -2.46 -0.76 -3.04 -0.76 c-0.3 0 -0.5 0.2 -0.58 0.48 l-0.56 0 l-0.18 -2.8 l0.48 0 c0.18 0 0.26 0.08 0.36 0.3 c0.5 1.14 1.58 2.14 3.26 2.14 c1.5 0 2.42 -0.88 2.42 -2.16 z" fill="#FFFFFF"></path></g></svg>