<svg xmlns:xlink="http://www.w3.org/1999/xlink" xmlns="http://www.w3.org/2000/svg" id="1pMBtLyF9" viewBox="0 0 349.99999999999994 226.207194059852" height="226.207194059852" width="349.99999999999994" style="width: 350px; height: 226.207px; position: absolute; top: 50%; left: 50%; transform: translate(-50%, -50%) scale(0.598286); z-index: 0; cursor: pointer; overflow: visible;"><defs id="SvgjsDefs1045"></defs><g id="SvgjsG1046" featurekey="DMynUx-0" transform="matrix(1.740413564088719,0,0,1.740413564088719,87.42182233878884,-26.280245481654745)" fill="#444F5A"><path xmlns="http://www.w3.org/2000/svg" d="M39.9,50.3c-1.9,0-3.4,1.5-3.4,3.4v3.2c0,0.6,0.4,1,1,1h4.8c0.6,0,1-0.4,1-1v-3.2C43.3,51.8,41.8,50.3,39.9,50.3z   M41.3,55.8h-2.8v-2.2c0-0.8,0.6-1.4,1.4-1.4s1.4,0.6,1.4,1.4V55.8z" fill="#444F5A"></path><path xmlns="http://www.w3.org/2000/svg" d="M47.5,57.8h4.8c0.6,0,1-0.4,1-1v-3.2c0-1.9-1.5-3.4-3.4-3.4s-3.4,1.5-3.4,3.4v3.2C46.5,57.4,46.9,57.8,47.5,57.8z   M48.5,53.7c0-0.8,0.6-1.4,1.4-1.4s1.4,0.6,1.4,1.4v2.2h-2.8V53.7z" fill="#444F5A"></path><path xmlns="http://www.w3.org/2000/svg" d="M39.9,61.5c-1.9,0-3.4,1.5-3.4,3.4v3.2c0,0.6,0.4,1,1,1h4.8c0.6,0,1-0.4,1-1v-3.2C43.3,63,41.8,61.5,39.9,61.5z M41.3,67.1  h-2.8v-2.2c0-0.8,0.6-1.4,1.4-1.4s1.4,0.6,1.4,1.4V67.1z" fill="#444F5A"></path><path xmlns="http://www.w3.org/2000/svg" d="M47.5,69.1h4.8c0.6,0,1-0.4,1-1v-3.2c0-1.9-1.5-3.4-3.4-3.4s-3.4,1.5-3.4,3.4v3.2C46.5,68.6,46.9,69.1,47.5,69.1z   M48.5,64.9c0-0.8,0.6-1.4,1.4-1.4s1.4,0.6,1.4,1.4v2.2h-2.8V64.9z" fill="#444F5A"></path><path xmlns="http://www.w3.org/2000/svg" d="M59.7,50.3c-1.9,0-3.4,1.5-3.4,3.4v3.2c0,0.6,0.4,1,1,1h4.8c0.6,0,1-0.4,1-1v-3.2C63.1,51.8,61.5,50.3,59.7,50.3z   M61.1,55.8h-2.8v-2.2c0-0.8,0.6-1.4,1.4-1.4s1.4,0.6,1.4,1.4V55.8z" fill="#444F5A"></path><path xmlns="http://www.w3.org/2000/svg" d="M39.9,39.1c-1.9,0-3.4,1.5-3.4,3.4v3.2c0,0.6,0.4,1,1,1h4.8c0.6,0,1-0.4,1-1v-3.2C43.3,40.6,41.8,39.1,39.9,39.1z   M41.3,44.7h-2.8v-2.2c0-0.8,0.6-1.4,1.4-1.4s1.4,0.6,1.4,1.4V44.7z" fill="#444F5A"></path><path xmlns="http://www.w3.org/2000/svg" d="M47.5,46.7h4.8c0.6,0,1-0.4,1-1v-3.2c0-1.9-1.5-3.4-3.4-3.4s-3.4,1.5-3.4,3.4v3.2C46.5,46.2,46.9,46.7,47.5,46.7z   M48.5,42.5c0-0.8,0.6-1.4,1.4-1.4s1.4,0.6,1.4,1.4v2.2h-2.8V42.5z" fill="#444F5A"></path><path xmlns="http://www.w3.org/2000/svg" d="M39.9,28.1c-1.9,0-3.4,1.5-3.4,3.4v3.2c0,0.6,0.4,1,1,1h4.8c0.6,0,1-0.4,1-1v-3.2C43.3,29.6,41.8,28.1,39.9,28.1z   M41.3,33.7h-2.8v-2.2c0-0.8,0.6-1.4,1.4-1.4s1.4,0.6,1.4,1.4V33.7z" fill="#444F5A"></path><path xmlns="http://www.w3.org/2000/svg" d="M47.5,35.7h4.8c0.6,0,1-0.4,1-1v-3.2c0-1.9-1.5-3.4-3.4-3.4s-3.4,1.5-3.4,3.4v3.2C46.5,35.2,46.9,35.7,47.5,35.7z   M48.5,31.5c0-0.8,0.6-1.4,1.4-1.4s1.4,0.6,1.4,1.4v2.2h-2.8V31.5z" fill="#444F5A"></path><path xmlns="http://www.w3.org/2000/svg" d="M57.2,35.7h4.8c0.6,0,1-0.4,1-1v-3.2c0-1.9-1.5-3.4-3.4-3.4s-3.4,1.5-3.4,3.4v3.2C56.2,35.2,56.7,35.7,57.2,35.7z   M58.2,31.5c0-0.8,0.6-1.4,1.4-1.4c0.8,0,1.4,0.6,1.4,1.4v2.2h-2.8V31.5z" fill="#444F5A"></path><path xmlns="http://www.w3.org/2000/svg" d="M59.7,39.1c-1.9,0-3.4,1.5-3.4,3.4v3.2c0,0.6,0.4,1,1,1h4.8c0.6,0,1-0.4,1-1v-3.2C63.1,40.6,61.5,39.1,59.7,39.1z   M61.1,44.7h-2.8v-2.2c0-0.8,0.6-1.4,1.4-1.4s1.4,0.6,1.4,1.4V44.7z" fill="#444F5A"></path><path xmlns="http://www.w3.org/2000/svg" d="M59.7,61.5c-1.9,0-3.4,1.5-3.4,3.4v3.2c0,0.6,0.4,1,1,1h4.8c0.6,0,1-0.4,1-1v-3.2C63.1,63,61.5,61.5,59.7,61.5z M61.1,67.1  h-2.8v-2.2c0-0.8,0.6-1.4,1.4-1.4s1.4,0.6,1.4,1.4V67.1z" fill="#444F5A"></path><path xmlns="http://www.w3.org/2000/svg" d="M87.6,73.4c-0.3,0-0.7,0.1-1,0.2c0.5-1.1,1.6-1.8,2.8-1.8c0.6,0,1-0.4,1-1s-0.4-1-1-1c-1.2,0-2.2,0.4-3.1,1.1v-1.5  c0-0.6-0.4-1-1-1s-1,0.4-1,1v1.5c-0.9-0.7-1.9-1.1-3.1-1.1c-0.6,0-1,0.4-1,1s0.4,1,1,1c1.3,0,2.3,0.8,2.8,1.8  c-0.3-0.1-0.6-0.2-1-0.2c-1.8,0-3.2,1.4-3.2,3.2c0,0.6,0.4,1,1,1s1-0.4,1-1c0-0.7,0.5-1.2,1.2-1.2s1.2,0.5,1.2,1.2v8.6h-5.5V66.1  c0-1,0.8-1.7,1.7-1.7s1.7,0.8,1.7,1.7c0,0.6,0.4,1,1,1s1-0.4,1-1c0-2.1-1.7-3.7-3.7-3.7c-0.6,0-1.1,0.1-1.6,0.4  c0.5-1.7,2-2.9,3.9-2.9c0.6,0,1-0.4,1-1s-0.4-1-1-1c-1.6,0-3,0.6-4,1.6V57c0-0.6-0.4-1-1-1s-1,0.4-1,1v2.3c-1.1-1-2.5-1.6-4-1.6  c-0.6,0-1,0.4-1,1s0.4,1,1,1c1.8,0,3.4,1.2,3.9,2.9c-0.5-0.2-1-0.4-1.6-0.4c-2.1,0-3.7,1.7-3.7,3.7c0,0.6,0.4,1,1,1s1-0.4,1-1  c0-1,0.8-1.7,1.7-1.7s1.7,0.8,1.7,1.7v19.2h-7.5V16.1c0-0.6-0.4-1-1-1H32.4c-0.6,0-1,0.4-1,1v69.1h-7.2V66.1c0-1,0.8-1.7,1.7-1.7  s1.7,0.8,1.7,1.7c0,0.6,0.4,1,1,1s1-0.4,1-1c0-2.1-1.7-3.7-3.7-3.7c-0.6,0-1.1,0.1-1.6,0.4c0.5-1.7,2-2.9,3.9-2.9c0.6,0,1-0.4,1-1  s-0.4-1-1-1c-1.6,0-3,0.6-4,1.6V57c0-0.6-0.4-1-1-1s-1,0.4-1,1v2.3c-1.1-1-2.5-1.6-4-1.6c-0.6,0-1,0.4-1,1s0.4,1,1,1  c1.8,0,3.4,1.2,3.9,2.9c-0.5-0.2-1-0.4-1.6-0.4c-2.1,0-3.7,1.7-3.7,3.7c0,0.6,0.4,1,1,1s1-0.4,1-1c0-1,0.8-1.7,1.7-1.7  s1.7,0.8,1.7,1.7v19.2h-5.5v-8.6c0-0.7,0.5-1.2,1.2-1.2s1.2,0.5,1.2,1.2c0,0.6,0.4,1,1,1s1-0.4,1-1c0-1.8-1.4-3.2-3.2-3.2  c-0.3,0-0.7,0.1-1,0.2c0.5-1.1,1.6-1.8,2.8-1.8c0.6,0,1-0.4,1-1s-0.4-1-1-1c-1.2,0-2.2,0.4-3.1,1.1v-1.5c0-0.6-0.4-1-1-1s-1,0.4-1,1  v1.5c-0.9-0.7-1.9-1.1-3.1-1.1c-0.6,0-1,0.4-1,1s0.4,1,1,1c1.3,0,2.3,0.8,2.8,1.8c-0.3-0.1-0.6-0.2-1-0.2c-1.8,0-3.2,1.4-3.2,3.2  c0,0.6,0.4,1,1,1s1-0.4,1-1c0-0.7,0.5-1.2,1.2-1.2s1.2,0.5,1.2,1.2v8.6h-3c-0.6,0-1,0.4-1,1s0.4,1,1,1h77.3c0.6,0,1-0.4,1-1  s-0.4-1-1-1h-2.7v-8.6c0-0.7,0.5-1.2,1.2-1.2s1.2,0.5,1.2,1.2c0,0.6,0.4,1,1,1s1-0.4,1-1C90.8,74.8,89.4,73.4,87.6,73.4z M67.4,17.1  v3.5H33.4v-3.5H67.4z M33.4,22.6h33.9v62.6H54.8v-6c0-2.8-2.2-5.2-4.9-5.2s-4.9,2.3-4.9,5.2v6H33.4V22.6z M52.8,85.2h-5.9v-6  c0-1.7,1.3-3.2,2.9-3.2s2.9,1.4,2.9,3.2V85.2z" fill="#444F5A"></path></g><g id="SvgjsG1047" featurekey="xgcenu-0" transform="matrix(3.5778698231958974,0,0,3.5778698231958974,-3.636799738861486,121.9551179537622)" fill="#444F5A"><path d="M11.474 19.61017 c0.13559 0.20339 0.034064 0.38983 -0.23712 0.38983 l-1.5763 0 c-0.47458 0 -0.88136 -0.44068 -1.0339 -0.69492 l-2.339 -3.5763 l-2.8475 0 l0 3.9322 c0 0.20339 -0.13559 0.33881 -0.32203 0.33881 l-1.7966 0 c-0.16949 0 -0.30508 -0.13543 -0.30508 -0.33881 l0 -12.898 c0 -0.16949 0.13559 -0.32203 0.32203 -0.32203 l5.4068 0 c2.7797 0 4.4915 2.5763 4.4915 4.6441 c0 1.6442 -0.98305 3.4576 -2.661 4.2373 z M3.4408 8.78 l0.00033103 4.6102 l2.9659 0 c1.6102 0 2.3898 -1.1695 2.3898 -2.3559 c0 -1.1356 -0.79661 -2.2542 -2.3902 -2.2542 l-2.9659 0 z M17.237138983050848 20.11864 c2.3729 0 4.339 -1.8642 4.339 -4.3049 c0 -2.4746 -1.9661 -4.322 -4.339 -4.322 s-4.339 1.8475 -4.339 4.322 c0 2.4407 1.9661 4.3049 4.339 4.3049 z M17.237138983050848 17.9493 c-1.2034 0 -2.0847 -0.98305 -2.0847 -2.1186 c0 -1.1695 0.88136 -2.1525 2.0847 -2.1525 s2.0847 0.98305 2.0847 2.1525 c0 1.1356 -0.88136 2.1186 -2.0847 2.1186 z M27.118494915254235 20.11864 c2.3729 0 4.339 -1.8642 4.339 -4.3049 c0 -2.4746 -1.9661 -4.322 -4.339 -4.322 s-4.339 1.8475 -4.339 4.322 c0 2.4407 1.9661 4.3049 4.339 4.3049 z M27.118494915254235 17.9493 c-1.2034 0 -2.0847 -0.98305 -2.0847 -2.1186 c0 -1.1695 0.88136 -2.1525 2.0847 -2.1525 s2.0847 0.98305 2.0847 2.1525 c0 1.1356 -0.88136 2.1186 -2.0847 2.1186 z M47.22005084745763 19.57644 c0.050847 0.22034 -0.033898 0.42373 -0.20339 0.42373 l-1.4237 0 c-0.52542 0 -0.83051 -0.37288 -0.83051 -0.84746 l0 -4.2202 c0 -0.94915 -0.74576 -1.339 -1.5424 -1.339 c-0.74576 0 -1.3898 0.42356 -1.9661 0.98288 l0 0.18644 l0 3.7119 c0.016949 0.47458 0.067797 0.79661 0.13559 1.1017 c0.033898 0.22034 -0.033898 0.42356 -0.20356 0.42356 l-1.4236 0 c-0.54237 0 -0.84746 -0.37288 -0.84746 -0.84746 l0 -4.2202 c0 -0.94915 -0.72881 -1.339 -1.5254 -1.339 c-0.74559 0 -1.3897 0.40661 -1.9659 0.98288 l0 5.1017 c0 0.16949 -0.15254 0.32186 -0.32203 0.32186 l-1.712 0 c-0.16949 0 -0.30508 -0.15238 -0.30508 -0.32186 l0 -7.7456 c0 -0.16949 0.13559 -0.32203 0.30508 -0.32203 l1.1697 0 c0.42373 0 0.71169 0.35593 0.81339 0.71186 c0.61017 -0.44068 1.3898 -0.81356 2.3559 -0.81356 c1.1017 0 2.2203 0.45763 2.8983 1.322 l0 -0.033898 c0.64407 -0.57627 1.6102 -1.2881 2.9492 -1.2881 c1.7288 0 3.5085 1.1525 3.5085 3.2542 l0 3.7119 c0.016949 0.47458 0.067797 0.79661 0.13559 1.1017 z M59.558745762711865 19.61017 c0.13559 0.20339 0.034064 0.38983 -0.23712 0.38983 l-1.5763 0 c-0.47458 0 -0.88136 -0.44068 -1.0339 -0.69492 l-2.339 -3.5763 l-2.8475 0 l0 3.9322 c0 0.20339 -0.13559 0.33881 -0.32203 0.33881 l-1.7966 0 c-0.16949 0 -0.30508 -0.13543 -0.30508 -0.33881 l0 -12.898 c0 -0.16949 0.13559 -0.32203 0.32203 -0.32203 l5.4068 0 c2.7797 0 4.4915 2.5763 4.4915 4.6441 c0 1.6442 -0.98305 3.4576 -2.661 4.2373 z M51.525545762711864 8.78 l0.00033103 4.6102 l2.9659 0 c1.6102 0 2.3898 -1.1695 2.3898 -2.3559 c0 -1.1356 -0.79661 -2.2542 -2.3902 -2.2542 l-2.9659 0 z M67.62715084745763 16.5934 c0.74576 0 1.2375 -0.40695 1.2375 -1.2205 c0 -1.9831 -1.5593 -3.8814 -4.0678 -3.8814 c-2.3729 0 -4.2203 1.8475 -4.2203 4.3051 c0 2.5763 1.949 4.288 4.3219 4.288 c1.5085 0 2.7119 -0.52542 3.4068 -1.5085 c0.11864 -0.15254 0.084746 -0.27119 -0.050847 -0.44068 l-0.38983 -0.5422 c-0.16949 -0.22034 -0.32203 -0.18644 -0.52542 -0.084746 c-0.45763 0.25424 -1.339 0.52542 -2.1695 0.52542 c-1.0169 0 -1.9322 -0.49153 -2.1356 -1.4405 l4.5932 0 z M63.050850847457625 14.7966 c0.084746 -0.54237 0.72881 -1.1695 1.6949 -1.1695 c0.98305 0 1.5932 0.61017 1.678 1.1695 l-3.3729 0 z M77.93217627118644 19.57644 c-0.25441 -1.661 -0.27153 -3.1529 -0.20373 -4.7631 c0.08458 -2.0168 -1.0678 -3.3049 -3.1356 -3.3049 c-1.3729 0 -2.8136 0.38983 -3.6441 0.84746 c-0.16933 0.10186 -0.30492 0.28831 -0.22017 0.4578 l0.54237 1.2881 c0.084746 0.18644 0.22034 0.25424 0.47458 0.15254 c1.0169 -0.44068 1.8644 -0.69492 2.678 -0.69492 c0.66102 0 1.0678 0.13559 1.051 0.79661 c-2.7458 0.47458 -5.2373 1.0169 -5.2373 3.339 c0 1.5424 1.1017 2.3897 2.8475 2.3897 c1.4407 0 2.0847 -0.42356 2.6102 -0.9322 c0.11864 0.50864 0.32203 0.84746 0.74576 0.84746 l1.2712 0 c0.18644 0 0.25424 -0.22017 0.22034 -0.42356 z M73.50817627118644 18.2541 c-0.52542 0 -0.88136 -0.15254 -0.88136 -0.59322 c0 -0.76271 1.6102 -1.1017 2.8136 -1.3559 c-0.016949 0.37288 -0.016949 0.94915 0 1.2712 c-0.50847 0.42356 -1.322 0.67797 -1.9322 0.67797 z M87.01681016949152 6.441000000000001 c0.49153 0 0.83051 0.32186 0.83051 0.77949 l0 12.458 c0 0.16949 -0.15254 0.32186 -0.32203 0.32186 l-0.88136 0 c-0.32203 0 -0.79661 -0.20322 -1.0169 -0.5422 c-0.54237 0.37288 -1.2542 0.66085 -2.1356 0.66085 c-2.3898 0 -4.0169 -1.932 -4.0169 -4.4236 c0 -2.5254 1.9492 -4.1525 3.9153 -4.1525 c0.89831 0 1.5763 0.25441 2.1186 0.57644 l0 -4.0339 c0 -0.61017 -0.11864 -0.89831 -0.18644 -1.2203 c-0.050847 -0.22034 0.033898 -0.42373 0.20339 -0.42373 l1.4915 0 z M81.77951016949152 15.6949 c0 1.4576 0.94932 2.2712 2.0847 2.2712 c0.66102 0 1.2032 -0.18644 1.6441 -0.40678 l0 -3.3051 c-0.54237 -0.32203 -1.1356 -0.54237 -1.7797 -0.54237 c-0.83051 0 -1.9492 0.52542 -1.9492 1.9831 z M98.54224067796609 11.6102 c0.23729 0 0.37271 0.16966 0.25407 0.38983 l-3.2542 6.678 c-1.7797 3.6947 -3.2034 5.7456 -3.8983 6.3897 c-0.20339 0.15254 -0.42373 0.084746 -0.64407 -0.13559 l-0.9322 -0.9322 c-0.22034 -0.22034 -0.18644 -0.42373 0.016949 -0.67797 c0.98305 -1.1017 2.1525 -2.8475 3.0339 -4.8305 l-3.4576 -6.4915 c-0.10153 -0.22017 0 -0.38966 0.23746 -0.38966 l1.8644 0 c0.20339 0 0.30508 0.084746 0.38983 0.23729 l2.1525 4.3898 l2.0168 -4.3898 c0.084746 -0.15254 0.20339 -0.23729 0.39 -0.23729 l1.8305 0 z" fill="#444F5A"></path></g><g id="SvgjsG1048" featurekey="jZLKOX-0" transform="matrix(0.23284936744429302,0,0,0.23284936744429302,34.81808644556305,221.07677531704937)" fill="#444F5A"><path d="M0.78125 20 l0 -15.742 l3.1543 0 l0 15.742 l-3.1543 0 z M29.6005859375 3.965 l9.4434 8.9941 l0 -8.7012 l3.1543 0 l0 16.035 l-9.4434 -9.0039 l0 8.7109 l-3.1543 0 l0 -16.035 z M72.54103125 16.8945 l-0.0097656 -0.019531 c0.86914 0 1.5918 -0.72266 1.5918 -1.5918 c0 -0.67383 -0.26367 -1.1035 -0.80078 -1.2988 c-1.1328 -0.41992 -0.85938 -0.32227 -1.9629 -0.70313 c-1.1621 -0.40039 -2.2363 -1.1914 -2.959 -2.1777 c-0.42969 -0.58594 -0.64453 -1.3086 -0.64453 -2.1777 c0 -1.3086 0.46875 -2.4316 1.4063 -3.3691 s2.0605 -1.4063 3.3789 -1.4063 c1.3086 0 2.4316 0.46875 3.3691 1.4063 s1.4063 2.0605 1.4063 3.3691 l-3.1738 0 c0 -0.85938 -0.72266 -1.582 -1.582 -1.582 c-0.86914 0 -1.5918 0.72266 -1.5918 1.5918 c0 0.56641 0.22461 0.99609 0.68359 1.2891 c0.9375 0.60547 0.83008 0.48828 1.9531 0.82031 c1.2109 0.35156 2.3047 1.1035 3.0566 2.0703 c0.43945 0.56641 0.66406 1.2988 0.66406 2.1875 c0 1.3184 -0.46875 2.4414 -1.4063 3.3789 s-2.0605 1.4063 -3.3691 1.4063 c-1.3184 0 -2.4414 -0.46875 -3.3789 -1.4063 s-1.4063 -2.0605 -1.4063 -3.3789 l3.1836 0 c0 0.87891 0.71289 1.5918 1.5918 1.5918 z M106.6142734375 4.257999999999999 l3.1543 0 l3.9355 0 l0 3.1445 l-3.9355 0 l0 12.598 l-3.1543 0 l0 -12.598 l-3.9355 0 l0 -3.1445 l3.9355 0 z M141.693346875 14.7949 l2.7832 0 l-1.3867 -3.2715 z M140.404346875 17.5781 l-0.019531 -0.0097656 c-0.35156 0.80078 -0.71289 1.5918 -1.0742 2.3926 l-3.3887 0 l7.1387 -15.996 l7.1582 15.996 l-3.3984 0 c-0.35156 -0.79102 -0.70313 -1.5918 -1.0547 -2.3828 l-5.3613 0 z M175.5224609375 3.965 l9.4434 8.9941 l0 -8.7012 l3.1543 0 l0 16.035 l-9.4434 -9.0039 l0 8.7109 l-3.1543 0 l0 -16.035 z M217.52540625 4.257999999999999 l3.1543 0 l3.9355 0 l0 3.1445 l-3.9355 0 l0 12.598 l-3.1543 0 l0 -12.598 l-3.9355 0 l0 -3.1445 l3.9355 0 z M283.972625 4.307 l-0.0097656 0 c2.1094 0 3.877 1.748 3.916 3.8379 c0 0.41992 -0.14648 0.9082 -0.27344 1.2988 c1.7969 0.78125 3.4082 2.5586 3.4082 5.0488 c0 1.5039 -0.53711 2.793 -1.6113 3.8672 s-2.3633 1.6113 -3.8672 1.6113 l-5.4785 0 l0 -15.664 l3.916 0 z M283.181625 9.316 l0.78125 0 c0.52734 0 0.94727 -0.40039 0.94727 -0.91797 c0 -0.52734 -0.41992 -0.9668 -0.94727 -0.9668 l-0.78125 0 l0 1.8848 z M285.525425 16.8359 c1.2891 0 2.3535 -1.0547 2.3535 -2.334 c0 -0.6543 -0.23438 -1.2109 -0.69336 -1.6699 s-1.0156 -0.48828 -1.6602 -0.48828 l-2.3438 0 l0 4.4922 l2.3438 0 z M323.8564015625 4.18 c2.1875 0 4.0625 0.78125 5.625 2.3438 s2.3438 3.4375 2.3438 5.625 s-0.78125 4.0625 -2.3438 5.6152 s-3.4375 2.334 -5.625 2.334 s-4.0625 -0.78125 -5.6152 -2.334 s-2.334 -3.4277 -2.334 -5.6152 s0.78125 -4.0625 2.334 -5.625 s3.4277 -2.3438 5.6152 -2.3438 z M323.8564015625 7.353999999999999 c-1.3184 0 -2.4414 0.46875 -3.3691 1.4063 s-1.3965 2.0605 -1.3965 3.3691 c0 1.3184 0.46875 2.4414 1.3965 3.3691 s2.0508 1.3965 3.3691 1.3965 c1.3086 0 2.4316 -0.46875 3.3691 -1.3965 s1.4063 -2.0508 1.4063 -3.3691 c0 -1.3086 -0.46875 -2.4316 -1.4063 -3.3691 s-2.0605 -1.4063 -3.3691 -1.4063 z M364.638628125 4.18 c2.1875 0 4.0625 0.78125 5.625 2.3438 s2.3438 3.4375 2.3438 5.625 s-0.78125 4.0625 -2.3438 5.6152 s-3.4375 2.334 -5.625 2.334 s-4.0625 -0.78125 -5.6152 -2.334 s-2.334 -3.4277 -2.334 -5.6152 s0.78125 -4.0625 2.334 -5.625 s3.4277 -2.3438 5.6152 -2.3438 z M364.638628125 7.353999999999999 c-1.3184 0 -2.4414 0.46875 -3.3691 1.4063 s-1.3965 2.0605 -1.3965 3.3691 c0 1.3184 0.46875 2.4414 1.3965 3.3691 s2.0508 1.3965 3.3691 1.3965 c1.3086 0 2.4316 -0.46875 3.3691 -1.3965 s1.4063 -2.0508 1.4063 -3.3691 c0 -1.3086 -0.46875 -2.4316 -1.4063 -3.3691 s-2.0605 -1.4063 -3.3691 -1.4063 z M397.8623046875 4.257999999999999 l3.1543 0 l0 5.9766 l3.4668 -5.9766 l3.6426 0 l-4.6484 7.998 l5.4004 7.7441 l-3.8379 0 l-4.0234 -5.7813 l0 5.7813 l-3.1543 0 l0 -15.742 z M434.15234375 20 l0 -15.742 l3.1543 0 l0 15.742 l-3.1543 0 z M462.9716796875 3.965 l9.4434 8.9941 l0 -8.7012 l3.1543 0 l0 16.035 l-9.4434 -9.0039 l0 8.7109 l-3.1543 0 l0 -16.035 z M508.792925 4.18 l0.0097656 0.029297 c1.0938 0 2.1191 0.20508 3.0859 0.625 s1.8164 0.98633 2.5488 1.6992 l-2.2461 2.2461 c-0.94727 -0.9375 -2.0703 -1.4063 -3.3691 -1.4063 c-1.3184 0 -2.4414 0.46875 -3.3691 1.4063 s-1.3965 2.0605 -1.3965 3.3691 c0 1.3184 0.46875 2.4414 1.3965 3.3691 s2.0508 1.3965 3.3691 1.3965 c1.0352 0 1.9629 -0.29297 2.7734 -0.88867 s1.3867 -1.3574 1.7188 -2.2852 l-4.502 0 l0 -3.1738 l4.502 0 l1.8457 0 l1.4453 0 c0.10742 0.49805 0.15625 1.0254 0.15625 1.582 c0 2.1875 -0.78125 4.0625 -2.3438 5.6152 s-3.4375 2.334 -5.625 2.334 s-4.0625 -0.78125 -5.6152 -2.334 s-2.334 -3.4277 -2.334 -5.6152 s0.78125 -4.0625 2.334 -5.625 s3.4277 -2.3438 5.6152 -2.3438 z M546.6943515625 16.8945 l-0.0097656 -0.019531 c0.86914 0 1.5918 -0.72266 1.5918 -1.5918 c0 -0.67383 -0.26367 -1.1035 -0.80078 -1.2988 c-1.1328 -0.41992 -0.85938 -0.32227 -1.9629 -0.70313 c-1.1621 -0.40039 -2.2363 -1.1914 -2.959 -2.1777 c-0.42969 -0.58594 -0.64453 -1.3086 -0.64453 -2.1777 c0 -1.3086 0.46875 -2.4316 1.4063 -3.3691 s2.0605 -1.4063 3.3789 -1.4063 c1.3086 0 2.4316 0.46875 3.3691 1.4063 s1.4063 2.0605 1.4063 3.3691 l-3.1738 0 c0 -0.85938 -0.72266 -1.582 -1.582 -1.582 c-0.86914 0 -1.5918 0.72266 -1.5918 1.5918 c0 0.56641 0.22461 0.99609 0.68359 1.2891 c0.9375 0.60547 0.83008 0.48828 1.9531 0.82031 c1.2109 0.35156 2.3047 1.1035 3.0566 2.0703 c0.43945 0.56641 0.66406 1.2988 0.66406 2.1875 c0 1.3184 -0.46875 2.4414 -1.4063 3.3789 s-2.0605 1.4063 -3.3691 1.4063 c-1.3184 0 -2.4414 -0.46875 -3.3789 -1.4063 s-1.4063 -2.0605 -1.4063 -3.3789 l3.1836 0 c0 0.87891 0.71289 1.5918 1.5918 1.5918 z M578.92189375 16.2988 l-0.0097656 -0.0097656 c1.1523 0 2.1387 0.98633 2.1387 2.1387 c0 0.41992 0.0097656 0.97656 -0.36133 1.709 c-0.36133 0.73242 -0.85938 1.4355 -2.0508 1.8555 c-0.37109 0.12695 -1.3086 -0.068359 -1.416 -0.21484 c-0.16602 -0.24414 1.2988 -0.70313 1.0449 -1.5332 c-0.81055 -0.26367 -1.4355 -0.94727 -1.4355 -1.8555 c0 -1.1523 0.9375 -2.0898 2.0898 -2.0898 z M636.58984375 20 l0 -15.742 l3.1543 0 l0 15.742 l-3.1543 0 z M665.4091796875 3.965 l9.4434 8.9941 l0 -8.7012 l3.1543 0 l0 16.035 l-9.4434 -9.0039 l0 8.7109 l-3.1543 0 l0 -16.035 z M703.671875 4.257999999999999 l9.4434 0 l0 3.1445 l-6.2891 0 l0 3.1543 l4.7168 0 l0 3.1445 l-4.7168 0 l0 3.1445 l0 3.1543 l-3.1543 0 l0 -6.2988 l0 -3.1445 l0 -6.2988 z M738.3896484375 20 l0 -15.742 l3.1543 0 l0 15.742 l-3.1543 0 z M767.208984375 3.965 l9.4434 8.9941 l0 -8.7012 l3.1543 0 l0 16.035 l-9.4434 -9.0039 l0 8.7109 l-3.1543 0 l0 -16.035 z M805.4716796875 20 l0 -15.742 l3.1543 0 l0 15.742 l-3.1543 0 z M838.031265625 4.257999999999999 l3.1543 0 l3.9355 0 l0 3.1445 l-3.9355 0 l0 12.598 l-3.1543 0 l0 -12.598 l-3.9355 0 l0 -3.1445 l3.9355 0 z M870.5908203125 4.257999999999999 l9.4434 0 l0 3.1445 l-6.2891 0 l0 3.1543 l4.7168 0 l0 3.1445 l-4.7168 0 l0 3.1445 l6.2891 0 l0 3.1543 l-6.2891 0 l-3.1543 0 l0 -15.742 z M935.5634765625 3.965 l7.6758 10.527 l7.6758 -10.527 l0 16.035 l-3.1543 0 l0 -6.4941 l-4.5215 6.2402 l-4.5215 -6.2402 l0 6.4941 l-3.1543 0 l0 -16.035 z M976.580078125 4.257999999999999 l9.4434 0 l0 3.1445 l-6.2891 0 l0 3.1543 l4.7168 0 l0 3.1445 l-4.7168 0 l0 3.1445 l6.2891 0 l0 3.1543 l-6.2891 0 l-3.1543 0 l0 -15.742 z M1011.5908203125 3.965 l7.6758 10.527 l7.6758 -10.527 l0 16.035 l-3.1543 0 l0 -6.4941 l-4.5215 6.2402 l-4.5215 -6.2402 l0 6.4941 l-3.1543 0 l0 -16.035 z M1060.165971875 4.18 c2.1875 0 4.0625 0.78125 5.625 2.3438 s2.3438 3.4375 2.3438 5.625 s-0.78125 4.0625 -2.3438 5.6152 s-3.4375 2.334 -5.625 2.334 s-4.0625 -0.78125 -5.6152 -2.334 s-2.334 -3.4277 -2.334 -5.6152 s0.78125 -4.0625 2.334 -5.625 s3.4277 -2.3438 5.6152 -2.3438 z M1060.165971875 7.353999999999999 c-1.3184 0 -2.4414 0.46875 -3.3691 1.4063 s-1.3965 2.0605 -1.3965 3.3691 c0 1.3184 0.46875 2.4414 1.3965 3.3691 s2.0508 1.3965 3.3691 1.3965 c1.3086 0 2.4316 -0.46875 3.3691 -1.3965 s1.4063 -2.0508 1.4063 -3.3691 c0 -1.3086 -0.46875 -2.4316 -1.4063 -3.3691 s-2.0605 -1.4063 -3.3691 -1.4063 z M1093.3896484375 20 l-0.0097656 -15.762 l5.1172 0 c1.5137 0 3.0078 0.52734 4.0918 1.6113 s1.5234 2.0996 1.5234 3.6133 l0 0.48828 c0 1.1719 -0.33203 2.0313 -0.99609 2.9688 s-1.2207 1.2109 -2.2559 1.6016 l3.5547 5.4785 l-3.8477 0 l-4.0234 -6.1523 l0 6.1523 l-3.1543 0 z M1096.5341984375 11.8164 l2.2559 0.0097656 c0.6543 0 0.98633 -0.16602 1.4453 -0.625 s0.625 -0.98633 0.625 -1.6406 c0 -0.64453 -0.16602 -1.0742 -0.625 -1.543 s-1.2793 -0.63477 -1.9336 -0.63477 l-1.7676 0 l0 4.4336 z M1129.982421875 20 l0 -15.742 l3.1543 0 l0 15.742 l-3.1543 0 z M1158.8017578125 4.257999999999999 l9.4434 0 l0 3.1445 l-6.2891 0 l0 3.1543 l4.7168 0 l0 3.1445 l-4.7168 0 l0 3.1445 l6.2891 0 l0 3.1543 l-6.2891 0 l-3.1543 0 l0 -15.742 z M1198.49025 16.8945 l-0.0097656 -0.019531 c0.86914 0 1.5918 -0.72266 1.5918 -1.5918 c0 -0.67383 -0.26367 -1.1035 -0.80078 -1.2988 c-1.1328 -0.41992 -0.85938 -0.32227 -1.9629 -0.70313 c-1.1621 -0.40039 -2.2363 -1.1914 -2.959 -2.1777 c-0.42969 -0.58594 -0.64453 -1.3086 -0.64453 -2.1777 c0 -1.3086 0.46875 -2.4316 1.4063 -3.3691 s2.0605 -1.4063 3.3789 -1.4063 c1.3086 0 2.4316 0.46875 3.3691 1.4063 s1.4063 2.0605 1.4063 3.3691 l-3.1738 0 c0 -0.85938 -0.72266 -1.582 -1.582 -1.582 c-0.86914 0 -1.5918 0.72266 -1.5918 1.5918 c0 0.56641 0.22461 0.99609 0.68359 1.2891 c0.9375 0.60547 0.83008 0.48828 1.9531 0.82031 c1.2109 0.35156 2.3047 1.1035 3.0566 2.0703 c0.43945 0.56641 0.66406 1.2988 0.66406 2.1875 c0 1.3184 -0.46875 2.4414 -1.4063 3.3789 s-2.0605 1.4063 -3.3691 1.4063 c-1.3184 0 -2.4414 -0.46875 -3.3789 -1.4063 s-1.4063 -2.0605 -1.4063 -3.3789 l3.1836 0 c0 0.87891 0.71289 1.5918 1.5918 1.5918 z" fill="#444F5A"></path></g></svg>